<svg id="Layer_1" data-name="Layer 1" xmlns="http://www.w3.org/2000/svg" xmlns:xlink="http://www.w3.org/1999/xlink" width="244.68" height="68.66" viewBox="0 0 244.68 68.66">
  <defs>
    <clipPath id="clip-path" transform="translate(-0.36 0.9)">
      <path d="M16.81,27l-4.33-7.86C8.83,19.08,7,19,3.44,19c1.16.65,1.73,1,2.79,1.67-.29.46-.38.74-.67,1.2-2.5,4.35-.39,7.68,4.33,7.77,1.25,0,2.59.1,4.13.1-1.34-.19-2.11-.93-1.44-2,.58-.93.87-1.39,1.44-2.41,1.06.74,1.64,1,2.79,1.76" style="fill: none"/>
    </clipPath>
    <clipPath id="clip-path-2" transform="translate(-0.36 0.9)">
      <path d="M-1139.81-1453.67c2.45.88,4.16-1.37,5.56-3.95,2.51-4.63,3.71-7.14,6-12,5.14,5.77,7.68,8.74,12.93,14.47a73.31,73.31,0,0,1-4.46,8.65c-1.17,2.22-3.75,2.36-6.67.65-5.47-3.26-8.15-4.91-13.31-7.86" style="fill: none"/>
    </clipPath>
    <clipPath id="clip-path-3" transform="translate(-0.36 0.9)">
      <path d="M23,18c3.65-.09,5.58-.18,9.23-.27C34,14.56,34.76,13,36.4,9.93c-1.16.65-1.73,1-2.79,1.67a8.43,8.43,0,0,0-.87-1.11c-3-4.07-7-3.7-9.13.37-.58,1-1.16,2.22-1.93,3.52.77-1.11,1.83-1.48,2.5-.37a26.48,26.48,0,0,1,1.54,2.31A30.73,30.73,0,0,1,23,18" style="fill: none"/>
    </clipPath>
    <clipPath id="clip-path-4" transform="translate(-0.36 0.9)">
      <path d="M20.77,15.77s5.84,0,7.76-4.44l2,1.33.28-2s3,.28,5.76,4.27l-.28,3.4H20.87Z" style="fill: none"/>
    </clipPath>
    <clipPath id="clip-path-5" transform="translate(-0.36 0.9)">
      <path d="M21.38,17.62c.11,0,.28.12.44.12.63,0,1.27-.09,1.88-.12a19.6,19.6,0,0,0,3.14-.35,6.9,6.9,0,0,0,3.24-1.46A20.11,20.11,0,0,0,31.71,14a.54.54,0,0,1,.16.06,2.83,2.83,0,0,0,.43.2,8.16,8.16,0,0,1,2.17,1.31,5.64,5.64,0,0,1,1.61,1.2,1.36,1.36,0,0,1,.38.67c.15,1.16-1.35,1.16-2,1.19-.2,0-.38,0-.58,0h-.69c-1.38,0-2.76-.06-4.13,0-1.05,0-2.1.21-3.12.29-.74.06-1.5.09-2.24.12a2.74,2.74,0,0,0-.51,0c-.18,0-.33,0-.49.06-.45.06-1.14.2-1.45-.29a.64.64,0,0,1-.13-.59" style="fill: none"/>
    </clipPath>
    <clipPath id="clip-path-6" transform="translate(-0.36 0.9)">
      <path d="M26.76,7.05c-1.64.18-2.89,2-4,4-2,3.51-3.08,5.27-5.1,8.79-3.08-1.76-4.52-2.59-7.6-4.17,1.45-2.59,2.22-3.79,3.76-6.47a5.13,5.13,0,0,1,4.51-2.69c3.37.19,5.1.28,8.47.56" style="fill: none"/>
    </clipPath>
    <clipPath id="clip-path-7" transform="translate(-0.36 0.9)">
      <path d="M28.6,27c-1.83,3-2.79,4.63-4.71,7.68,1.83,3.05,2.79,4.53,4.61,7.49V39a7.08,7.08,0,0,0,1.45-.1c5.19-.18,7-3.7,4.52-7.58-.58-1-1.35-2.13-2.12-3.43.58,1.21.29,2.22-1.06,2.32-1.15,0-1.73.09-2.88.09A18.55,18.55,0,0,0,28.6,27" style="fill: none"/>
    </clipPath>
    <clipPath id="clip-path-8" transform="translate(-0.36 0.9)">
      <path d="M36.11,35.47c.58-1.57-.29-3.42-1.44-5.27-2-3.33-3.08-5.09-5.1-8.51,3.08-1.76,4.62-2.6,7.7-4.26,1.44,2.5,2.21,3.7,3.75,6.11a4.38,4.38,0,0,1,0,4.81c-2,2.77-3,4.25-4.91,7.12" style="fill: none"/>
    </clipPath>
  </defs>
  <g id="OBJECTS">
    <g>
      <path d="M16.81,27l-4.33-7.86C8.83,19.08,7,19,3.44,19c1.16.65,1.73,1,2.79,1.67-.29.46-.38.74-.67,1.2-2.5,4.35-.39,7.68,4.33,7.77,1.25,0,2.59.1,4.13.1-1.34-.19-2.11-.93-1.44-2,.58-.93.87-1.39,1.44-2.41,1.06.74,1.64,1,2.79,1.76" transform="translate(-0.36 0.9)" style="fill: #006c78"/>
      <g style="clip-path: url(#clip-path)">
        <path d="M15.2,22.9c0,.1.1,0,0,0s-.5.1-.7.1a7.57,7.57,0,0,1-1.5.1,27.9,27.9,0,0,0-5,.2c-.2,0-.3.1-.5.2s-.3.2-.5.3c-.3.3.1.5.3.6a9.36,9.36,0,0,1,1.6.4c.3.1.9.5.6.6a3.21,3.21,0,0,1-1.7.2c-1.4,0-3.1-.3-4.5.2-.5.2-2,.6-1.8,1.6A5.72,5.72,0,0,0,5,30.2c3.8,1,7.2.5,11-.1,1.2-.2,2.6-.1,3.7-.8,1.4-.9,3.5-2.8,1.9-4.6a4.3,4.3,0,0,0-1-.9,3.38,3.38,0,0,0-1.2-.6l-4.2-.3" transform="translate(-0.36 0.9)" style="fill: #0098a8;fill-rule: evenodd"/>
      </g>
    </g>
    <path d="M5.2,28.5c1,1.3,3.2,1.6,5.5,1.7,4,.2,6.1.2,10.1.2v8.8c-3,0-4.4,0-7.4-.2A5.26,5.26,0,0,1,9,36.1C7.4,33,6.7,31.5,5.2,28.5" transform="translate(-0.36 0.9)" style="fill: #0099a8"/>
    <g style="clip-path: url(#clip-path-2)">
      <path d="M2.6,28.32c.1,0,.12-.33.22-.36.4-.13,1.25.86,1.38.95A15.88,15.88,0,0,0,8,30.49a17.29,17.29,0,0,0,4.11.62,11.69,11.69,0,0,1,3.17.36c2,.6,3.89,2.38,5.93,3a35,35,0,0,1,3.42.84,2.06,2.06,0,0,1,1.22,1.15,2.69,2.69,0,0,1-1.08,2.89c-2.16,1.13-4.66.83-7.15.52a28.74,28.74,0,0,1-6.15-1.21,24.41,24.41,0,0,1-8.35-4.85L2.6,28.32" transform="translate(-0.36 0.9)" style="fill: #00b4c6;fill-rule: evenodd"/>
    </g>
    <g>
      <path d="M23,18c3.65-.09,5.58-.18,9.23-.27C34,14.56,34.76,13,36.4,9.93c-1.16.65-1.73,1-2.79,1.67a8.43,8.43,0,0,0-.87-1.11c-3-4.07-7-3.7-9.13.37-.58,1-1.16,2.22-1.93,3.52.77-1.11,1.83-1.48,2.5-.37a26.48,26.48,0,0,1,1.54,2.31A30.73,30.73,0,0,1,23,18" transform="translate(-0.36 0.9)" style="fill: #003939"/>
      <g style="clip-path: url(#clip-path-3)">
        <g>
          <path d="M20.77,15.77s5.84,0,7.76-4.44l2,1.33.28-2s3,.28,5.76,4.27l-.28,3.4H20.87Z" transform="translate(-0.36 0.9)" style="fill: #007476;fill-rule: evenodd"/>
          <g style="clip-path: url(#clip-path-4)">
            <g>
              <path d="M28.45,11v.38a5.05,5.05,0,0,1-.08.88,4.88,4.88,0,0,1-.92,2.33,8.19,8.19,0,0,1-4.71,2.77c-.69.14-1.71.14-2.12-.58s.36-1.58.87-1.9A7.68,7.68,0,0,1,23,14.24,18.63,18.63,0,0,0,25.87,13a7.28,7.28,0,0,0,1.61-1.25,4.15,4.15,0,0,1,1-.85" transform="translate(-0.36 0.9)" style="fill: #006566;fill-rule: evenodd"/>
              <path d="M30.3,12.38s0,.17,0,.21a4.93,4.93,0,0,0,0,.54s0,.15.06.14.33-.42.39-.54a3.34,3.34,0,0,0,.5-1.69c0-.19,0-.42,0-.57s-.51-.44-.55-.38c-.19.4,0,1.48-.16,1.9a2.14,2.14,0,0,1-.16.42l-.09.18" transform="translate(-0.36 0.9)" style="fill: #006566;fill-rule: evenodd"/>
              <g>
                <path d="M21.38,17.62c.11,0,.28.12.44.12.63,0,1.27-.09,1.88-.12a19.6,19.6,0,0,0,3.14-.35,6.9,6.9,0,0,0,3.24-1.46A20.11,20.11,0,0,0,31.71,14a.54.54,0,0,1,.16.06,2.83,2.83,0,0,0,.43.2,8.16,8.16,0,0,1,2.17,1.31,5.64,5.64,0,0,1,1.61,1.2,1.36,1.36,0,0,1,.38.67c.15,1.16-1.35,1.16-2,1.19-.2,0-.38,0-.58,0h-.69c-1.38,0-2.76-.06-4.13,0-1.05,0-2.1.21-3.12.29-.74.06-1.5.09-2.24.12a2.74,2.74,0,0,0-.51,0c-.18,0-.33,0-.49.06-.45.06-1.14.2-1.45-.29a.64.64,0,0,1-.13-.59" transform="translate(-0.36 0.9)" style="fill: #006566;fill-rule: evenodd"/>
                <g style="clip-path: url(#clip-path-5)">
                  <path d="M31.56,13.74s.08.15.08.18.13.2.2.29a3.19,3.19,0,0,1,.31.47,2.27,2.27,0,0,0,.25.52,3,3,0,0,0,.77.7c.25.12.51.21.76.32s.62.59,1,.82a1.87,1.87,0,0,0,1,.23c.06,0,.39,0,.39-.12s-.16-.32-.21-.4a3.09,3.09,0,0,0-.71-1.05A7.36,7.36,0,0,0,32.51,14a1.94,1.94,0,0,0-.39-.12,1,1,0,0,1-.3,0c-.16,0-.26-.09-.39-.06" transform="translate(-0.36 0.9)" style="fill: #00a99e;fill-rule: evenodd"/>
                </g>
              </g>
              <path d="M28.55,11.24a1.06,1.06,0,0,0,.08.23,3.57,3.57,0,0,0,.25.47c.26.32.49.61.77.9a1.28,1.28,0,0,0,.38.29c.13.06.38.26.51.06a2.65,2.65,0,0,0-.23-1.78c-.13-.14-.36.38-.51.26s-.2-.14-.33-.23a2,2,0,0,0-.54-.32c-.15,0-.3.15-.43.06" transform="translate(-0.36 0.9)" style="fill: #00a99e;fill-rule: evenodd"/>
              <path d="M30.8,10.48c-.05.09.18.29.25.32.33.26.74.41,1.07.67s.39.35.59.52l.69.53a4.32,4.32,0,0,0,.79.49c.05,0,.08,0,.13.06s.61.15.71-.11c0-.06-.05-.21-.08-.27a2.75,2.75,0,0,0-.45-.61A5.92,5.92,0,0,0,33,10.74a2.35,2.35,0,0,0-.84-.41,2.38,2.38,0,0,0-1-.14c-.12,0-.23,0-.3.14s0,.09,0,.15,0,.06,0,.06" transform="translate(-0.36 0.9)" style="fill: #00a99e;fill-rule: evenodd"/>
              <path d="M31.59,11.82c.12,0,.23.15.35.26.31.26.57.58.85.85a15.29,15.29,0,0,1,2.09,2.68v0c.15.23.28.47.43.7v0l0,0h0l0,0a18.07,18.07,0,0,0-2.6-3.44,9.61,9.61,0,0,0-.77-.79.92.92,0,0,0-.25-.23c-.05,0,0,0,0,0h0l0,0v0S31.56,11.82,31.59,11.82ZM34.32,14a.17.17,0,0,1,.1.05s0,0,0,0c.13.24.28.41.43.64a5.3,5.3,0,0,1,.28.47s.11.18.21.32a3.28,3.28,0,0,0,.25.44v0l0,0h0s0,.06,0,.08-.13-.05-.18-.14l0-.09v0h0l0-.06c-.23-.4-.43-.81-.66-1.22,0,0,0-.06-.05-.06a.87.87,0,0,1-.18-.32l0,0a.19.19,0,0,1-.05-.12l0,0Zm.43-.27c.1,0,.18.12.2.24s.13.23,0,.29-.25-.21-.3-.38S34.67,13.77,34.75,13.77Z" transform="translate(-0.36 0.9)" style="fill: #006566"/>
              <path d="M29,13.45l0,0,0,0a5.57,5.57,0,0,1-.39,2.25,3.44,3.44,0,0,1-1.37,1.69,5.75,5.75,0,0,1-1.28.55,1.63,1.63,0,0,1-.53.06l-.08,0c-.08,0-.05,0-.05,0v-.06s0,0,.05,0h.13a2.78,2.78,0,0,0,.63-.11,4.57,4.57,0,0,0,1.69-.94,4,4,0,0,0,1-2.42,4.54,4.54,0,0,0,.06-.9l0,0S29,13.45,29,13.45Zm2.62,1,0,0c0,.15-.13.26-.18.38a5.2,5.2,0,0,1-1.38,1.58,6.34,6.34,0,0,1-1,.64h0c-.25.14-.48.29-.74.41a.59.59,0,0,1-.2.05h-.05l0,0v-.05l0,0a5.64,5.64,0,0,0,1.07-.59,5.46,5.46,0,0,0,2.06-1.77,4.2,4.2,0,0,1,.29-.44c0-.06.07-.09.07-.15h0v0l0,0Zm-.86,2.28h0v0l0,0a2.68,2.68,0,0,1-.82.72.4.4,0,0,1-.2,0h0l0,0v0s.05,0,.05,0a1.5,1.5,0,0,0,.64-.44l.15-.18.15-.14h.06A.06.06,0,0,0,30.8,16.72Zm.48.26,0,0v0s0,0,0,0a2.24,2.24,0,0,0-.18.23l0,0h0l0,0v0c.08-.09.13-.2.2-.26A.1.1,0,0,1,31.28,17Zm-1.45-2.16.05,0,0,.06v.15a2.72,2.72,0,0,1-.4,1.19,2.28,2.28,0,0,1-.59.73.32.32,0,0,1-.18.06l0,0,0,0v0a.36.36,0,0,0,.15-.09,3,3,0,0,0,.9-1.69.71.71,0,0,1,0-.14v-.12l0,0Zm.38.12c.1,0,.08.2,0,.29s-.15,0-.07-.17S30.18,14.94,30.21,14.94Z" transform="translate(-0.36 0.9)" style="fill: #006566"/>
            </g>
          </g>
        </g>
      </g>
    </g>
    <g>
      <path d="M26.76,7.05c-1.64.18-2.89,2-4,4-2,3.51-3.08,5.27-5.1,8.79-3.08-1.76-4.52-2.59-7.6-4.17,1.45-2.59,2.22-3.79,3.76-6.47a5.13,5.13,0,0,1,4.51-2.69c3.37.19,5.1.28,8.47.56" transform="translate(-0.36 0.9)" style="fill: #008a77"/>
      <g style="clip-path: url(#clip-path-6)">
        <path d="M6.3,14.2a10.07,10.07,0,0,1,7.7-2c1.5.2,2.9.9,4.4.9,2.4-.1,4.1-1.9,6.2-2.8,1.4-.5,3.5-1,4.4.6,1.4,2.7-1.8,6-3.5,7.7a15,15,0,0,1-6.9,4.3c-4.1,1-10.3-.1-13.8-2.2Z" transform="translate(-0.36 0.9)" style="fill: #00af85;fill-rule: evenodd"/>
      </g>
    </g>
    <g>
      <path d="M28.6,27c-1.83,3-2.79,4.63-4.71,7.68,1.83,3.05,2.79,4.53,4.61,7.49V39a7.08,7.08,0,0,0,1.45-.1c5.19-.18,7-3.7,4.52-7.58-.58-1-1.35-2.13-2.12-3.43.58,1.21.29,2.22-1.06,2.32-1.15,0-1.73.09-2.88.09A18.55,18.55,0,0,0,28.6,27" transform="translate(-0.36 0.9)" style="fill: #003939"/>
      <g style="clip-path: url(#clip-path-7)">
        <g>
          <path d="M35.65,30.22a.09.09,0,0,0-.1.08c-.1.08-.21.24-.31.32l-.91.7a15.88,15.88,0,0,1-2.72,1.46c-.85.25-1.7.51-2.45.68a13.73,13.73,0,0,1-1.86.4,18.5,18.5,0,0,0-5.49,1.83,2.06,2.06,0,0,0-.87,2.51,6.8,6.8,0,0,0,3.85,3.29c3.11,1.21,6.14,1.6,9.16,0a6.41,6.41,0,0,0,3-2.32,6.35,6.35,0,0,0,1.09-3.57c-.07-.82-.35-.77-.62-1.53a3.53,3.53,0,0,1,.17-1.33l-2-2.51" transform="translate(-0.36 0.9)" style="fill: #005e5e;fill-rule: evenodd"/>
          <path d="M19.68,33.93c.1,0,.19-.13.38-.17a15.93,15.93,0,0,1,3.69.23c1.05.24,1.76.94,2.91,1.16.72.09,2.19-.24,2.88.26s-.88.84-1,.86-.33.46-.12.52a4,4,0,0,0,1.23.11c.82.08,4,.09,4.21,1.67a.52.52,0,0,1-.13.42,1.87,1.87,0,0,1,0,1A12.62,12.62,0,0,1,32,41.49,6.59,6.59,0,0,1,29.11,43c-.59.1-1.81.09-2.4.18-1.91.1-3.09.29-4.83-.45l-2.2-8.76" transform="translate(-0.36 0.9)" style="fill: #0099a8;fill-rule: evenodd"/>
        </g>
      </g>
    </g>
    <g>
      <path d="M36.11,35.47c.58-1.57-.29-3.42-1.44-5.27-2-3.33-3.08-5.09-5.1-8.51,3.08-1.76,4.62-2.6,7.7-4.26,1.44,2.5,2.21,3.7,3.75,6.11a4.38,4.38,0,0,1,0,4.81c-2,2.77-3,4.25-4.91,7.12" transform="translate(-0.36 0.9)" style="fill: #008a77"/>
      <g style="clip-path: url(#clip-path-8)">
        <g>
          <path d="M28.56,21.38c-.06-.13.46.18.46.18a5.19,5.19,0,0,0,1.08.54,12.94,12.94,0,0,0,3.22.84A26.65,26.65,0,0,1,41.09,25a6.32,6.32,0,0,1,2.2,2.05c.11.26,0,.63,0,.95-.14,2-2.24,2.66-4,2.5A20.35,20.35,0,0,1,35.06,30c-1.25-.39-2.33-.92-3.54-1.4-1.61-.53-3.75-1.38-4.78-2.86Z" transform="translate(-0.36 0.9)" style="fill: #00c299;fill-rule: evenodd"/>
          <path d="M29.69,26.11c0,.37.62,0,.81.1,1.09.09,2.07.12,3.06.15,3.13,0,6.56-.52,9.43.39a12,12,0,0,1,2.08,1c1.24.7,2,1.44,1,3.54a7.68,7.68,0,0,1-5,4.19c-4,1.08-8.32,1.44-11-1.3a6,6,0,0,1-.37-8.06" transform="translate(-0.36 0.9)" style="fill: #00af85;fill-rule: evenodd"/>
        </g>
      </g>
    </g>
    <path d="M37.63,19.83s0,0-.08,0h0a3.7,3.7,0,0,1-.78-1.16v-.08l0-.06v0a1.94,1.94,0,0,0-.6.07c-.06,0-.1,0-.15,0a2.92,2.92,0,0,1-1.05.09l-.17,0s-.15-.07-.1-.11,0,0,.12,0c.3,0,.6-.16.9-.21a1.93,1.93,0,0,1,1,.07v0c-.07-.18-.12-.41-.19-.59a.58.58,0,0,0-.13-.11,6.76,6.76,0,0,0-1-.34,2.19,2.19,0,0,1-.74-.39v0h0v-.06s0,0,0-.06,0,0,.06,0a7,7,0,0,1,1.42.41,1.21,1.21,0,0,1,.39.28.25.25,0,0,1,0-.12c0-.19-.07-.43-.11-.62a7.59,7.59,0,0,0-1.05-.62c-.2-.1-.37-.22-.57-.33a1.18,1.18,0,0,1-.33-.3l0-.06s0,0,.09,0l.15.07a5.19,5.19,0,0,1,1.38.67,1.24,1.24,0,0,1,.32.33h0c0-.23-.05-.46-.07-.7v-.11s0,0-.06-.07a1210379195945.72,1210379195945.72,0,0,0-.08,0c-.22-.16-.47-.25-.69-.41a4.68,4.68,0,0,1-.6-.5h0s-.06-.1,0-.11.07,0,.11,0l.15.07a2.68,2.68,0,0,1,1.16.84h0a7.07,7.07,0,0,0-.12-.84v0c-.06-.19-.15-.34-.21-.5A6.76,6.76,0,0,1,35.39,13c0-.06,0-.15,0-.2l0,0s0,0,0,0,0,0,.09.06a3.16,3.16,0,0,1,.71,1.67,1.62,1.62,0,0,1,0,.54s0,.06,0,.09a.15.15,0,0,1,0,.07v0a3.17,3.17,0,0,1,.73-1.09,1,1,0,0,1,.21-.2h0s0,.08,0,.1a0,0,0,0,1,0,0,2,2,0,0,1-.64,1,1.78,1.78,0,0,0-.36.56v.09s0,0,0,0h0c0,.17,0,.33,0,.5h0v0a1.94,1.94,0,0,1,.49-.82,6.44,6.44,0,0,1,.55-.47s0,0,.05-.05,0,0,.07,0,0,.06,0,.09a.9.9,0,0,1-.08.21,5.84,5.84,0,0,1-.72,1.06,1.64,1.64,0,0,0-.3.47h0c0,.17.05.32.09.49v.05a2.34,2.34,0,0,1,.71-1A1.14,1.14,0,0,0,37.3,16s.07-.06.09-.1.07-.06.09-.09.05,0,.09,0v.06c0,.24-.19.43-.33.64s-.42.48-.64.75a1.11,1.11,0,0,0-.17.3h0a3.67,3.67,0,0,0,.16.61.43.43,0,0,1,0-.1,1.63,1.63,0,0,1,.37-.62c.19-.26.39-.48.59-.71a.11.11,0,0,1,0,0s.05,0,.06,0a.11.11,0,0,1,0,.07A4.94,4.94,0,0,1,37,18.16a1.23,1.23,0,0,0-.25.36h0a4.55,4.55,0,0,0,.75,1.18v0c.15.07.14,0,.14.11S37.65,19.81,37.63,19.83Z" transform="translate(-0.36 0.9)" style="fill: #008a77"/>
    <path d="M39.72,17.7s0,0,0,0,0-.08,0-.13h0a1.14,1.14,0,0,1,.11-.63,3,3,0,0,1,.37-.52s.05-.05.08,0a.22.22,0,0,1,.06.14.32.32,0,0,0,0,.08,1,1,0,0,1-.09.65,2.49,2.49,0,0,1-.48.6h0a.75.75,0,0,1-.07.12,1.62,1.62,0,0,1,1-.36.65.65,0,0,1,.27.05h0s0,0,0,.06a.81.81,0,0,1-.19.18l-.1.06a1.14,1.14,0,0,1-.77.22.9.9,0,0,1-.27-.07l-.4.57a1.39,1.39,0,0,1,1-.16.58.58,0,0,1,.25.09h0a0,0,0,0,1,0,.06,1.5,1.5,0,0,1-.9.35.76.76,0,0,1-.48-.19l0,0a.06.06,0,0,0,0,.05,4.82,4.82,0,0,0-.43.73s0,0,.09-.05a1.57,1.57,0,0,1,.9-.13.72.72,0,0,1,.35.14h0a.27.27,0,0,1,0,.07s0,0,0,0a1.6,1.6,0,0,1-1,.25.7.7,0,0,1-.42-.18l0,0a3.28,3.28,0,0,0-.2.65,2.69,2.69,0,0,0,0,.8,1,1,0,0,1,0,.17v0h0l0-.17h0a2.8,2.8,0,0,1,.1-1.15,0,0,0,0,0,0,0,.92.92,0,0,1-.92-.71.75.75,0,0,1,0-.26s.06-.06.12-.07a.73.73,0,0,1,.39.13.91.91,0,0,1,.35.35c.07.13.08.29.15.42a3.81,3.81,0,0,1,.36-.73.49.49,0,0,1-.31-.09,1.08,1.08,0,0,1-.44-1s0-.16.09-.14a.54.54,0,0,1,.19.13,1.48,1.48,0,0,1,.48.61.9.9,0,0,1,0,.36c.16-.27.36-.53.54-.79a.1.1,0,0,1-.07,0,.76.76,0,0,1-.48-.95c0-.08.06-.21.14-.13a3.76,3.76,0,0,1,.28.36,1,1,0,0,1,.19.42.58.58,0,0,1,0,.19h0Z" transform="translate(-0.36 0.9)" style="fill: #008a77"/>
    <path d="M6.9,20.44s0,0,0,0h0a2.21,2.21,0,0,1-.26-.95v-.13a1.35,1.35,0,0,0-.41-.07.18.18,0,0,1-.1,0,2,2,0,0,1-.7-.15L5.28,19s-.09-.08,0-.1,0,0,.08,0c.21,0,.43,0,.63.06a1.23,1.23,0,0,1,.67.26v0c0-.14,0-.3,0-.44l-.07-.1a6.85,6.85,0,0,0-.61-.45,1.49,1.49,0,0,1-.41-.42v0h0s0,0,0,0l0,0a4.29,4.29,0,0,1,.84.57.86.86,0,0,1,.2.27.2.2,0,0,1,0-.08c0-.14,0-.31,0-.45a4.34,4.34,0,0,0-.58-.63l-.3-.35a.63.63,0,0,1-.16-.27v0s0,0,.06,0,.06.06.08.08a3.87,3.87,0,0,1,.77.74.81.81,0,0,1,.14.3h0l.1-.49v-.09s0,0,0-.06a0,0,0,0,0,0,0h0c-.11-.16-.25-.27-.36-.43a2.35,2.35,0,0,1-.29-.47h0s0-.08,0-.1,0,0,.06,0l.09.08a1.81,1.81,0,0,1,.59.81h0c0-.2.08-.41.11-.62h0c0-.14,0-.26,0-.38a4.36,4.36,0,0,1-.07-.81s0-.1,0-.14l0,0s0,0,0,0,0,0,0,.06A2.35,2.35,0,0,1,7,16.54a2.93,2.93,0,0,1-.1.37s0,0,0,.06a.07.07,0,0,1,0,0h0a2.34,2.34,0,0,1,.7-.59.76.76,0,0,1,.18-.09h0s0,.06,0,.08a0,0,0,0,1,0,0,1.3,1.3,0,0,1-.61.54,1.17,1.17,0,0,0-.35.31l0,.06s0,0,0,0h0c0,.12,0,.23-.06.35h0v0a1.41,1.41,0,0,1,.48-.46A4.9,4.9,0,0,1,7.7,17s0,0,0,0,0,0,0,0,0,0,0,.06a1,1,0,0,1-.09.13A4.27,4.27,0,0,1,7,17.8a1.18,1.18,0,0,0-.29.26h0c0,.1,0,.22,0,.35v0a1.78,1.78,0,0,1,.66-.51.65.65,0,0,0,.16-.09l.08-.05s.06,0,.08,0H7.7v0c0,.17-.21.26-.34.37s-.38.23-.55.38a.69.69,0,0,0-.17.17h0c0,.15,0,.31,0,.45a.29.29,0,0,1,0-.06A1.12,1.12,0,0,1,7,18.77c.17-.13.35-.22.52-.36l0,0s0,0,0,0a.07.07,0,0,1,0,0,3,3,0,0,1-.74.76.87.87,0,0,0-.23.19h0a3,3,0,0,0,.25,1v0s0,0,0,.06Z" transform="translate(-0.36 0.9)" style="fill: #006c78"/>
    <path d="M9.63,17.61v0s0-.06,0-.09h0a.76.76,0,0,1,.2-.41,1.35,1.35,0,0,1,.35-.28s0,0,.05,0,0,.07,0,.11a.2.2,0,0,0,0,0,.74.74,0,0,1-.19.42,1.27,1.27,0,0,1-.42.31h0l-.06.07a1,1,0,0,1,.68-.05.32.32,0,0,1,.17.09h0s0,0,0,0l-.16.08-.08,0a.74.74,0,0,1-.55,0l-.16-.1-.38.3a1,1,0,0,1,.71.11.25.25,0,0,1,.13.12h0s0,0,0,0a.42.42,0,0,1-.2,0,.72.72,0,0,1-.46,0A.51.51,0,0,1,9,18.25l0,0H9a3.41,3.41,0,0,0-.43.42l.07,0a1,1,0,0,1,.61.1.42.42,0,0,1,.2.17h0l0,.05s0,0,0,0a1.05,1.05,0,0,1-.68,0,.45.45,0,0,1-.24-.21v0a2.33,2.33,0,0,0-.27.4,1.7,1.7,0,0,0-.17.54s0,.08,0,.12v0H8v-.13H8a2.12,2.12,0,0,1,.29-.77h0a.65.65,0,0,1-.46-.67.68.68,0,0,1,0-.2s0,0,.09,0a.51.51,0,0,1,.23.16.77.77,0,0,1,.16.31c0,.11,0,.22,0,.32a3.07,3.07,0,0,1,.38-.42.41.41,0,0,1-.19-.13.81.81,0,0,1-.09-.75s0-.11.09-.08a.45.45,0,0,1,.1.13,1.13,1.13,0,0,1,.19.52,1,1,0,0,1,0,.25c.16-.15.34-.29.51-.42,0,0,0,0,0,0a.57.57,0,0,1-.13-.75c0-.05.08-.13.12-.06a2.65,2.65,0,0,1,.11.3.75.75,0,0,1,0,.33.59.59,0,0,1,0,.13h0A.5.5,0,0,0,9.63,17.61Z" transform="translate(-0.36 0.9)" style="fill: #006c78"/>
    <path d="M19,29.55s.7-1.68,2.06-1.23c.71.28.39,1.18-.32.9A1.38,1.38,0,0,0,19,29.55Z" transform="translate(-0.36 0.9)" style="fill: #0098a8;fill-rule: evenodd"/>
    <path d="M18.49,29.15s-.52-1.95.94-2.61c1.05-.45,1.48.55.69.86C19.62,27.67,18.69,27.93,18.49,29.15Z" transform="translate(-0.36 0.9)" style="fill: #00b3c6;fill-rule: evenodd"/>
    <g>
      <path d="M12.68,26.2s.21-.68.75-.74c.19,0-.24.21,0,1Z" transform="translate(-0.36 0.9)" style="fill: #2a2a2a"/>
      <path d="M11,26.94a1.58,1.58,0,0,0-.26.68c0,.1.14.57.28.58s.43-.21.5-.29-.34-.84-.32-.89-.17-.11-.2-.08" transform="translate(-0.36 0.9)" style="fill: #2a2a2a"/>
      <path d="M9.84,26.93c0-.16.31-1.33,3-.83a3.71,3.71,0,0,1,2.47,3,1.51,1.51,0,0,1,1.13.56,1.49,1.49,0,0,0-1.81.91,2,2,0,0,1,.42-1.31,1.08,1.08,0,0,0-.84-.8c-.5-.21-2.38-.58-2.69-.8s-1.63-.44-1.7-.75" transform="translate(-0.36 0.9)" style="fill: #2a2a2a"/>
      <path d="M14.16,28.25c-.46-.15-.49-.31-.36-.34s.75.35.74.15-.49-.76-.86-.69-.33.45-.62.55c-.72.25-1.59-1.09-2.12-1.23A1.58,1.58,0,0,0,9.83,27c0,.27,1.22.77,1.55.89a14.91,14.91,0,0,1,3.17.79.49.49,0,0,0-.39-.4" transform="translate(-0.36 0.9)" style="fill: #fff"/>
      <path d="M12,26.41a1.63,1.63,0,0,1-.44,0c-.13-.05-.48,0-.51.08s0,.13.26.23a1.29,1.29,0,0,0,.57,0c.2,0,.48-.35.12-.3" transform="translate(-0.36 0.9)" style="fill: #fff"/>
      <path d="M11.52,26.94c-.11.15,0,.74.06.83s.39.39.51.34.28-.42.29-.53-.68-.52-.68-.57Z" transform="translate(-0.36 0.9)" style="fill: #2a2a2a"/>
      <path d="M11.26,26.53a.07.07,0,0,1-.11,0,.1.1,0,0,1-.05-.12q0-.07.12,0c.06,0,.06.07,0,.12" transform="translate(-0.36 0.9)" style="fill: #2a2a2a"/>
    </g>
    <g>
      <path d="M40.67,22.33h0a.26.26,0,0,1-.23-.09l-.15,5.38h.45Z" transform="translate(-0.36 0.9)" style="fill: #f1ece4"/>
      <path d="M40.39,21.9c0-.07.07-.07.14-.14v-.2a.35.35,0,0,0-.34.27v.07a.12.12,0,0,1,.2,0h0" transform="translate(-0.36 0.9)" style="fill: #007b92"/>
      <path d="M40.65,21.81a.27.27,0,0,1,.06.2h0c.07,0,.14.07.2.14h0a.44.44,0,0,0-.13-.47l-.13.13" transform="translate(-0.36 0.9)" style="fill: #007b92"/>
      <path d="M40.65,22.31c0-.07-.07-.13-.07-.2h-.07L40.45,22c-.07,0-.14.07-.2.14s.13.13.2.13h.2" transform="translate(-0.36 0.9)" style="fill: #007b92"/>
      <path d="M40.48,21.74h.2l.14-.13a6.3,6.3,0,0,0,.8-1.27A5.63,5.63,0,0,0,42,18.47a5.73,5.73,0,0,0-1.07,1.6,3.43,3.43,0,0,0-.34,1.41.47.47,0,0,0-.07.26" transform="translate(-0.36 0.9)" style="fill: #f1ebe4"/>
      <path d="M40.55,22.1a.27.27,0,0,0,.06.2v.06a8.52,8.52,0,0,0,.67,1.27,6.22,6.22,0,0,0,1.47,1.21,5,5,0,0,0-.87-1.74,4.45,4.45,0,0,0-1-1c-.07-.07-.13-.07-.2-.14,0,.14-.07.14-.13.14" transform="translate(-0.36 0.9)" style="fill: #f1ebe4"/>
      <path d="M40.35,21.89a.25.25,0,0,1-.2-.07,5.34,5.34,0,0,0-1.54-.07,7.28,7.28,0,0,0-1.8.61,5,5,0,0,0,3.34-.27c.07-.07.14-.07.2-.2h0" transform="translate(-0.36 0.9)" style="fill: #f1ebe4"/>
      <path d="M40.72,22h0c.06-.06,0-.13-.07-.2h-.2a.14.14,0,0,0-.13.14h0v.13l.06.07h.07c.2-.07.2-.14.27-.14" transform="translate(-0.36 0.9)" style="fill: #fff"/>
    </g>
    <g>
      <path d="M35.9,23.77c-.08,0-.08-.11,0,0a.23.23,0,0,1-.23-.11l-.16,5.61H36Z" transform="translate(-0.36 0.9)" style="fill: #f1ece4"/>
      <path d="M35.8,23.45c.07,0,.09.05.18.09l.2-.07a.37.37,0,0,0-.38-.24l-.07,0,.07.19h0" transform="translate(-0.36 0.9)" style="fill: #007b92"/>
      <path d="M36,23.74a.22.22,0,0,1-.17.13h0a.37.37,0,0,1-.06.24h0a.45.45,0,0,0,.41-.29L36,23.74" transform="translate(-0.36 0.9)" style="fill: #007b92"/>
      <path d="M35.42,23.87c.06,0,.11-.11.17-.14l0-.06,0-.09c0-.07-.11-.11-.2-.15a.37.37,0,0,0-.06.24l0,.07.05.13" transform="translate(-0.36 0.9)" style="fill: #007b92"/>
      <path d="M35.94,23.58l.05.13,0,.07.18.08a6.16,6.16,0,0,0,1.52.36,6.19,6.19,0,0,0,2-.31,6.07,6.07,0,0,0-2-.51,3.78,3.78,0,0,0-1.49.15.56.56,0,0,0-.29,0" transform="translate(-0.36 0.9)" style="fill: #f1ebe4"/>
      <path d="M35.62,23.76a.23.23,0,0,0-.18.13l-.06,0a7.52,7.52,0,0,0-1,1.09,6.66,6.66,0,0,0-.7,1.79,5.41,5.41,0,0,0,1.41-1.45A5,5,0,0,0,35.71,24c0-.09,0-.15.06-.24,0,.09-.13,0-.15,0" transform="translate(-0.36 0.9)" style="fill: #f1ebe4"/>
      <path d="M35.82,23.47a.24.24,0,0,1,0-.22,5.59,5.59,0,0,0-.46-1.53,7.55,7.55,0,0,0-1.21-1.57,5.5,5.5,0,0,0,.53,2,5.65,5.65,0,0,0,.87,1.25c.09,0,.12.1.27.12h0" transform="translate(-0.36 0.9)" style="fill: #f1ebe4"/>
      <path d="M35.78,23.82h0c.09,0,.13-.05.17-.14l0-.06,0-.13c0-.07-.09,0-.18-.09h0l-.13.05,0,.08,0,.07c.07.2.15.24.22.22" transform="translate(-0.36 0.9)" style="fill: #fff"/>
    </g>
    <path d="M23.38,26.68h1.1c.1,0,.2.1.3.1s.1-.3.1-.6c0-.9,1.9-1.6,1.9-3.7a3.1,3.1,0,1,0-6.2,0c0,2.2,1.9,2.8,1.9,3.7a.75.75,0,0,0,.1.5c.1,0,.1-.1.2-.1l.6.1Z" transform="translate(-0.36 0.9)" style="fill: #fbde9c"/>
    <path d="M23.4,19.7h-.1L21,23h0v.1h0l2.4-3.4Z" transform="translate(-0.36 0.9)" style="fill: #fff;fill-rule: evenodd"/>
    <path d="M21.8,23.9Z" transform="translate(-0.36 0.9)" style="fill: #fff;fill-rule: evenodd"/>
    <path d="M38.55,12.86h-.13a1.54,1.54,0,0,0-.61.11.83.83,0,0,1-1-.35,2.06,2.06,0,0,0-3.57,0,.82.82,0,0,1-1,.37,1.65,1.65,0,0,0-.54-.09h-.13a.87.87,0,0,0-.8.86h8.57a.86.86,0,0,0-.79-.86" transform="translate(-0.36 0.9)" style="fill: #fff"/>
    <path d="M8.12,25.45H8a1.49,1.49,0,0,0-.6.11.83.83,0,0,1-1-.35,2.14,2.14,0,0,0-1.79-1,2.17,2.17,0,0,0-1.78,1,.83.83,0,0,1-1,.37,1.35,1.35,0,0,0-.53-.1H1.17a.89.89,0,0,0-.81.87H8.94a.9.9,0,0,0-.82-.87" transform="translate(-0.36 0.9)" style="fill: #fff"/>
    <path d="M34,9.11h-.12a1.26,1.26,0,0,0-.55.11.77.77,0,0,1-.94-.33,1.9,1.9,0,0,0-3.27,0,.75.75,0,0,1-.9.34,1.33,1.33,0,0,0-.49-.09h-.12a.82.82,0,0,0-.74.8H34.7a.8.8,0,0,0-.73-.8" transform="translate(-0.36 0.9)" style="fill: #fff"/>
    <path d="M13.49,20.9h-.11a1.42,1.42,0,0,0-.55.1.77.77,0,0,1-.94-.32,1.89,1.89,0,0,0-3.27,0,.76.76,0,0,1-.9.33,1.53,1.53,0,0,0-.49-.08h-.1a.81.81,0,0,0-.74.79h7.85a.82.82,0,0,0-.75-.79" transform="translate(-0.36 0.9)" style="fill: #fff"/>
    <path d="M23.57,29.22a1,1,0,0,0,.9-.7h-1.8a1,1,0,0,0,.9.7" transform="translate(-0.36 0.9)" style="fill: #003939"/>
    <path d="M23.43,27.39h1.2a.37.37,0,0,0,.1-.3h0c0-.1,0-.2-.1-.2a.37.37,0,0,0-.3-.1h-.7v-2.5c.2-.7,1-.5,1.2-2.5a3.11,3.11,0,0,0-1.4,2s0-.6-1.2-1.2a3.18,3.18,0,0,1,.4,1.1c0,.4.5.6.5.6v2.5h-.7c-.1,0-.1,0-.2.1s-.2.2-.2.3h0c0,.1.1.2.2.3s.1-.1.2-.1Z" transform="translate(-0.36 0.9)" style="fill: #00c299"/>
    <path d="M24.91,27.72c0-.1-.1-.2-.2-.3h-2c-.1,0-.1,0-.2.1s-.2.2-.2.3a.45.45,0,0,0,.4.3h1.9c.1-.1.3-.3.3-.4" transform="translate(-0.36 0.9)" style="fill: #003939"/>
    <path d="M22.6,28c-.2,0-.4.1-.4.3s.2.3.4.3h1.9c.2,0,.4-.1.4-.3s-.2-.3-.4-.3Z" transform="translate(-0.36 0.9)" style="fill: #00c299"/>
  </g>
  <text transform="translate(57.15 40.73)" style="isolation: isolate;font-size: 48px;fill: #003939;font-family: Poppins-Medium, Poppins;font-weight: 500">BIOLETA</text>
</svg>
