<svg id="Layer_1" data-name="Layer 1" xmlns="http://www.w3.org/2000/svg" xmlns:xlink="http://www.w3.org/1999/xlink" width="46.22" height="36.7" viewBox="0 0 46.22 36.7">
  <defs>
    <clipPath id="clip-path" transform="translate(-0.34 -4.5)">
      <path d="M16.8,25c-1.71-3.15-2.59-4.73-4.31-7.87C8.84,17,7,17,3.46,17l2.82,1.69-.69,1.2c-2.52,4.33-.41,7.67,4.32,7.75,1.21,0,2.55.06,4.12.11-1.38-.18-2.15-.94-1.48-2L14,23.29,16.8,25" style="fill: none"/>
    </clipPath>
    <clipPath id="clip-path-2" transform="translate(-0.34 -4.5)">
      <path d="M-196-421.45c1.53,1.29,3.83,1,6.1.4,4-1.11,6.07-1.72,10.1-3.05l3.4,11.3c-2.94,1-4.42,1.39-7.4,2.12a5.54,5.54,0,0,1-5.51-2.25c-2.7-3.48-4-5.19-6.69-8.52" style="fill: none"/>
    </clipPath>
    <clipPath id="clip-path-3" transform="translate(-0.34 -4.5)">
      <path d="M23.05,16l9.24-.29C34,12.59,34.82,11,36.41,8L33.59,9.66l-.82-1.12c-3-4.07-7-3.7-9.12.37-.54,1-1.18,2.18-1.91,3.51.77-1.12,1.82-1.46,2.55-.39l1.59,2.28L23.05,16" style="fill: none"/>
    </clipPath>
    <clipPath id="clip-path-4" transform="translate(-0.34 -4.5)">
      <path d="M20.78,13.77s5.84,0,7.76-4.45l2,1.33.28-2s3,.28,5.76,4.27l-.27,3.39H20.88Z" style="fill: none"/>
    </clipPath>
    <clipPath id="clip-path-5" transform="translate(-0.34 -4.5)">
      <path d="M21.39,15.62c.1,0,.28.12.42.13a14.87,14.87,0,0,0,1.89-.12,18.42,18.42,0,0,0,3.14-.36,7.32,7.32,0,0,0,3.24-1.46A20.15,20.15,0,0,0,31.71,12s.13,0,.15,0a2.44,2.44,0,0,0,.43.21,8.76,8.76,0,0,1,2.18,1.32,5.22,5.22,0,0,1,1.6,1.2c.15.22.36.38.39.66.15,1.18-1.35,1.18-2,1.21l-.58,0h-.69c-1.37,0-2.74-.06-4.12,0-1,0-2.08.21-3.12.3-.75.07-1.5.09-2.25.12l-.53,0-.49,0c-.47.05-1.14.2-1.45-.27a.64.64,0,0,1-.12-.59" style="fill: none"/>
    </clipPath>
    <clipPath id="clip-path-6" transform="translate(-0.34 -4.5)">
      <path d="M26.8,5.08c-1.64.23-2.94,2-4.07,4-2,3.52-3.07,5.31-5.11,8.82-3-1.74-4.56-2.6-7.6-4.2,1.5-2.54,2.24-3.84,3.73-6.45a5.2,5.2,0,0,1,4.5-2.71c3.41.13,5.12.25,8.55.58" style="fill: none"/>
    </clipPath>
    <clipPath id="clip-path-7" transform="translate(-0.34 -4.5)">
      <path d="M28.57,25,23.91,32.7c1.83,3,2.76,4.54,4.6,7.48,0-1.28,0-1.92,0-3.21.57,0,.86,0,1.43-.07,5.14-.23,7-3.72,4.55-7.62-.63-1-1.3-2.12-2.08-3.44.57,1.22.32,2.26-1,2.29l-2.85.08c0-1.27,0-1.9,0-3.18" style="fill: none"/>
    </clipPath>
    <clipPath id="clip-path-8" transform="translate(-0.34 -4.5)">
      <path d="M36.1,33.5c.59-1.55-.32-3.42-1.45-5.27-2-3.33-3-5.06-5.07-8.54,3.07-1.75,4.6-2.62,7.66-4.22C38.72,18,39.47,19.2,41,21.58a4.34,4.34,0,0,1,0,4.83C39,29.17,38,30.6,36.1,33.5" style="fill: none"/>
    </clipPath>
  </defs>
  <g id="OBJECTS">
    <g>
      <path d="M16.8,25c-1.71-3.15-2.59-4.73-4.31-7.87C8.84,17,7,17,3.46,17l2.82,1.69-.69,1.2c-2.52,4.33-.41,7.67,4.32,7.75,1.21,0,2.55.06,4.12.11-1.38-.18-2.15-.94-1.48-2L14,23.29,16.8,25" transform="translate(-0.34 -4.5)" style="fill: #006c78"/>
      <g style="clip-path: url(#clip-path)">
        <path d="M15.24,20.93s0-.08,0-.07c-.25.05-.47.17-.72.2a12.12,12.12,0,0,1-1.48.09,25.9,25.9,0,0,0-5,.23,2.34,2.34,0,0,0-.5.19,2.27,2.27,0,0,0-.46.3c-.31.29.07.52.33.59.52.14,1.05.21,1.56.36.28.08.9.47.64.6a3.05,3.05,0,0,1-1.69.2,13,13,0,0,0-4.48.18c-.53.17-2,.64-1.78,1.57C2,26.65,3.83,27.88,5,28.2c3.77,1,7.22.48,11-.13,1.2-.2,2.64-.14,3.72-.81,1.41-.88,3.46-2.84,1.89-4.59a5.52,5.52,0,0,0-1-.93,4.59,4.59,0,0,0-1.22-.59l-4.16-.22" transform="translate(-0.34 -4.5)" style="fill: #0098a8;fill-rule: evenodd"/>
      </g>
    </g>
    <path d="M5.19,26.54c1,1.27,3.23,1.62,5.48,1.71,4,.16,6,.2,10.11.2,0,3.53,0,5.29,0,8.82-3,0-4.44-.05-7.38-.23a5.36,5.36,0,0,1-4.42-2.89c-1.5-3.1-2.25-4.63-3.75-7.61" transform="translate(-0.34 -4.5)" style="fill: #0099a8"/>
    <g style="clip-path: url(#clip-path-2)">
      <path d="M2.6,26.32c.11-.07.11-.29.23-.35.39-.2,1.21.87,1.44,1A16.49,16.49,0,0,0,8,28.62a18.61,18.61,0,0,0,4.08.68,12.11,12.11,0,0,1,3.21.35c2.06.6,3.83,2.34,5.89,3a24.24,24.24,0,0,1,3.39.87,2.58,2.58,0,0,1,1.25,1.08,2.58,2.58,0,0,1-1.08,2.83c-2.18,1.1-4.71.78-7.13.55a28.5,28.5,0,0,1-6.19-1.17A25.41,25.41,0,0,1,3.1,32l-.5-5.65" transform="translate(-0.34 -4.5)" style="fill: #00b4c6;fill-rule: evenodd"/>
    </g>
    <g>
      <path d="M23.05,16l9.24-.29C34,12.59,34.82,11,36.41,8L33.59,9.66l-.82-1.12c-3-4.07-7-3.7-9.12.37-.54,1-1.18,2.18-1.91,3.51.77-1.12,1.82-1.46,2.55-.39l1.59,2.28L23.05,16" transform="translate(-0.34 -4.5)" style="fill: #003939"/>
      <g style="clip-path: url(#clip-path-3)">
        <g>
          <path d="M20.78,13.77s5.84,0,7.76-4.45l2,1.33.28-2s3,.28,5.76,4.27l-.27,3.39H20.88Z" transform="translate(-0.34 -4.5)" style="fill: #007476;fill-rule: evenodd"/>
          <g style="clip-path: url(#clip-path-4)">
            <g>
              <path d="M28.44,9v.12c0,.09,0,.17,0,.26a6.67,6.67,0,0,1-.07.89,4.83,4.83,0,0,1-.91,2.32,8.36,8.36,0,0,1-4.71,2.79c-.68.13-1.7.15-2.13-.6s.35-1.56.87-1.88a9.54,9.54,0,0,1,1.56-.65A16.93,16.93,0,0,0,25.91,11a7.66,7.66,0,0,0,1.61-1.25,3.56,3.56,0,0,1,1-.84" transform="translate(-0.34 -4.5)" style="fill: #006566;fill-rule: evenodd"/>
              <path d="M30.31,10.37s0,.19,0,.23a2.32,2.32,0,0,0,0,.53s0,.15.07.14.31-.42.38-.56A3.43,3.43,0,0,0,31.28,9c0-.2.07-.43,0-.58a2.75,2.75,0,0,0-.54-.4c-.19.39,0,1.48-.17,1.9a2.38,2.38,0,0,1-.16.4,1.12,1.12,0,0,0-.08.18" transform="translate(-0.34 -4.5)" style="fill: #006566;fill-rule: evenodd"/>
              <g>
                <path d="M21.39,15.62c.1,0,.28.12.42.13a14.87,14.87,0,0,0,1.89-.12,18.42,18.42,0,0,0,3.14-.36,7.32,7.32,0,0,0,3.24-1.46A20.15,20.15,0,0,0,31.71,12s.13,0,.15,0a2.44,2.44,0,0,0,.43.21,8.76,8.76,0,0,1,2.18,1.32,5.22,5.22,0,0,1,1.6,1.2c.15.22.36.38.39.66.15,1.18-1.35,1.18-2,1.21l-.58,0h-.69c-1.37,0-2.74-.06-4.12,0-1,0-2.08.21-3.12.3-.75.07-1.5.09-2.25.12l-.53,0-.49,0c-.47.05-1.14.2-1.45-.27a.64.64,0,0,1-.12-.59" transform="translate(-0.34 -4.5)" style="fill: #006566;fill-rule: evenodd"/>
                <g style="clip-path: url(#clip-path-5)">
                  <path d="M31.57,11.75s.07.14.09.16.13.2.2.29a2.39,2.39,0,0,1,.31.45,2.13,2.13,0,0,0,.27.52,2.8,2.8,0,0,0,.76.7c.25.13.51.19.76.32s.62.59,1,.83a2,2,0,0,0,1,.22c.06,0,.37,0,.38-.13s-.15-.31-.19-.4a3.18,3.18,0,0,0-.7-1A7.35,7.35,0,0,0,32.56,12a2.78,2.78,0,0,0-.38-.12,3,3,0,0,1-.31,0,.66.66,0,0,0-.39-.06" transform="translate(-0.34 -4.5)" style="fill: #00a99e;fill-rule: evenodd"/>
                </g>
              </g>
              <path d="M28.54,9.24s.07.2.08.24a2.68,2.68,0,0,0,.26.47,7.27,7.27,0,0,0,.76.89,1.2,1.2,0,0,0,.38.29c.13,0,.39.26.5,0a2.58,2.58,0,0,0-.24-1.78c-.13-.15-.36.38-.51.25l-.33-.23a2.14,2.14,0,0,0-.54-.32c-.15,0-.3.14-.44.07" transform="translate(-0.34 -4.5)" style="fill: #00a99e;fill-rule: evenodd"/>
              <path d="M30.81,8.47c-.06.08.18.28.25.33.34.26.74.4,1.07.68l.59.53c.22.18.46.34.7.51a3.45,3.45,0,0,0,.79.49l.12.06c.17.06.61.15.71-.11,0-.07,0-.2-.07-.26a4,4,0,0,0-.46-.62A6.9,6.9,0,0,0,33,8.73a2.62,2.62,0,0,0-.84-.41,2.46,2.46,0,0,0-1-.15c-.13,0-.23,0-.31.15a.21.21,0,0,0,0,.15s0,.07,0,0" transform="translate(-0.34 -4.5)" style="fill: #00a99e;fill-rule: evenodd"/>
              <path d="M31.59,9.83c.13,0,.24.15.35.25.3.26.55.57.84.85a15,15,0,0,1,2.09,2.69v0c.15.23.29.47.43.7v.05l0,0h0l0,0A17.62,17.62,0,0,0,32.62,11c-.26-.26-.49-.55-.75-.79a1.5,1.5,0,0,0-.27-.24s0,0,0,0h0l0,0v0ZM34.31,12a.24.24,0,0,1,.1.06.09.09,0,0,1,0,.05,5.39,5.39,0,0,0,.43.63l.27.46.19.33.24.45v0l0,0s0,0,0,0a.07.07,0,0,1,0,.07c-.06,0-.12-.07-.17-.14l0-.08v0h0s0-.07,0-.07c-.23-.41-.44-.83-.67-1.24l0-.07a1.16,1.16,0,0,1-.18-.33l0,0s-.07-.07-.06-.12l0-.05Zm.44-.25c.09,0,.17.12.22.24s.13.24,0,.28-.27-.21-.3-.38S34.68,11.78,34.75,11.78Z" transform="translate(-0.34 -4.5)" style="fill: #006566"/>
              <path d="M29,11.45l0,0v0a6.11,6.11,0,0,1-.37,2.25,3.46,3.46,0,0,1-1.38,1.69,4.42,4.42,0,0,1-1.27.54,1.66,1.66,0,0,1-.54.06l-.08,0c-.07,0-.06,0-.06,0v-.07s0,0,0,0h.14a1.9,1.9,0,0,0,.62-.12,4.14,4.14,0,0,0,1.69-.95,4.18,4.18,0,0,0,1.05-2.42A6.84,6.84,0,0,0,29,11.5v0Zm2.64,1,0,0c0,.14-.11.25-.18.38a5.07,5.07,0,0,1-1.37,1.57,7.69,7.69,0,0,1-1.05.66h0c-.25.13-.48.3-.74.41l-.2.07h0l0,0V15.5l0,0a7.21,7.21,0,0,0,1.06-.57,5.6,5.6,0,0,0,2.07-1.78l.27-.46a.6.6,0,0,0,.09-.15h0l0,0,0,0Zm-.87,2.26h0v.08a3,3,0,0,1-.83.72.65.65,0,0,1-.2.05l0,0,0,0v0l.06,0a1.4,1.4,0,0,0,.63-.43l.16-.17.16-.14h0Zm.49.27v.08l0,0-.19.24,0,0,0,0,0,0v0a1.4,1.4,0,0,1,.21-.26S31.26,15,31.29,15Zm-1.45-2.17,0,0v.05a.85.85,0,0,1,0,.13,2.91,2.91,0,0,1-.41,1.2,2.57,2.57,0,0,1-.59.74.36.36,0,0,1-.17.07l0,0v-.08a.44.44,0,0,0,.15-.09,2.94,2.94,0,0,0,.91-1.68c0-.06,0-.15,0-.15v0a.51.51,0,0,0,0-.1l0,0Zm.38.12c.09,0,.09.21,0,.28s-.15,0-.09-.18S30.18,12.94,30.22,12.94Z" transform="translate(-0.34 -4.5)" style="fill: #006566"/>
            </g>
          </g>
        </g>
      </g>
    </g>
    <g>
      <path d="M26.8,5.08c-1.64.23-2.94,2-4.07,4-2,3.52-3.07,5.31-5.11,8.82-3-1.74-4.56-2.6-7.6-4.2,1.5-2.54,2.24-3.84,3.73-6.45a5.2,5.2,0,0,1,4.5-2.71c3.41.13,5.12.25,8.55.58" transform="translate(-0.34 -4.5)" style="fill: #008a77"/>
      <g style="clip-path: url(#clip-path-6)">
        <path d="M6.27,12.15a10.08,10.08,0,0,1,7.74-2c1.47.24,2.86,1,4.39.86,2.35-.14,4.07-1.93,6.18-2.75,1.36-.53,3.55-1,4.4.62,1.4,2.71-1.77,6-3.47,7.67a14.85,14.85,0,0,1-6.85,4.27c-4.11,1-10.26-.15-13.81-2.22Z" transform="translate(-0.34 -4.5)" style="fill: #00af85;fill-rule: evenodd"/>
      </g>
    </g>
    <g>
      <path d="M28.57,25,23.91,32.7c1.83,3,2.76,4.54,4.6,7.48,0-1.28,0-1.92,0-3.21.57,0,.86,0,1.43-.07,5.14-.23,7-3.72,4.55-7.62-.63-1-1.3-2.12-2.08-3.44.57,1.22.32,2.26-1,2.29l-2.85.08c0-1.27,0-1.9,0-3.18" transform="translate(-0.34 -4.5)" style="fill: #003939"/>
      <g style="clip-path: url(#clip-path-7)">
        <g>
          <path d="M35.65,28.22c.05,0-.07,0-.1.07s-.2.22-.31.3c-.29.24-.59.46-.9.67a11.3,11.3,0,0,1-2.76,1.43c-.81.27-1.64.47-2.47.68-.61.16-1.22.26-1.83.41a17.14,17.14,0,0,0-5.5,1.87,2.06,2.06,0,0,0-.88,2.54,6.87,6.87,0,0,0,3.88,3.29c3.1,1.2,6.15,1.56,9.15,0A6.81,6.81,0,0,0,37,37.11a6.21,6.21,0,0,0,1.1-3.52c-.08-.85-.4-.74-.6-1.55a2.7,2.7,0,0,1,.17-1.32l-2-2.5" transform="translate(-0.34 -4.5)" style="fill: #005e5e;fill-rule: evenodd"/>
          <path d="M19.7,31.89c.13,0,.23-.17.36-.19A12,12,0,0,1,23.7,32c1,.26,1.81,1,2.89,1.12.73.11,2.14-.21,2.86.29s-.89.82-.94.85-.32.41-.08.56a3.47,3.47,0,0,0,1.2.14c.85.1,3.93.12,4.25,1.63,0,.14-.07.29-.08.43s0,.79-.11,1A8.22,8.22,0,0,1,32,39.46a7.19,7.19,0,0,1-2.85,1.47,16,16,0,0,1-2.39.16c-1.9.11-3.12.33-4.86-.44L19.7,31.89" transform="translate(-0.34 -4.5)" style="fill: #0099a8;fill-rule: evenodd"/>
        </g>
      </g>
    </g>
    <g>
      <path d="M36.1,33.5c.59-1.55-.32-3.42-1.45-5.27-2-3.33-3-5.06-5.07-8.54,3.07-1.75,4.6-2.62,7.66-4.22C38.72,18,39.47,19.2,41,21.58a4.34,4.34,0,0,1,0,4.83C39,29.17,38,30.6,36.1,33.5" transform="translate(-0.34 -4.5)" style="fill: #008a77"/>
      <g style="clip-path: url(#clip-path-8)">
        <g>
          <path d="M28.54,19.39c0-.15.48.18.51.21a6.37,6.37,0,0,0,1.05.51,13.82,13.82,0,0,0,3.18.85A28.25,28.25,0,0,1,41,23.06a5.91,5.91,0,0,1,2.22,2.1,2,2,0,0,1,0,.93c-.18,2-2.22,2.69-4,2.49A21.42,21.42,0,0,1,35,28c-1.21-.37-2.3-1-3.49-1.37-1.63-.58-3.75-1.37-4.73-2.87Z" transform="translate(-0.34 -4.5)" style="fill: #00c299;fill-rule: evenodd"/>
          <path d="M29.74,24.13c0,.34.59,0,.89.07,1,.05,2,.15,3.09.16,3.12,0,6.52-.57,9.38.4a15,15,0,0,1,2,1c1.25.65,2,1.47,1,3.47a7.48,7.48,0,0,1-5,4.15c-4,1-8.34,1.38-11.09-1.28A6,6,0,0,1,29.69,24" transform="translate(-0.34 -4.5)" style="fill: #00af85;fill-rule: evenodd"/>
        </g>
      </g>
    </g>
    <path d="M37.62,17.82l-.07,0h0a3.44,3.44,0,0,1-.76-1.15l0,0v-.05l0,0v0a1.61,1.61,0,0,0-.61.08l-.14,0a3.46,3.46,0,0,1-1.06.09l-.16,0s-.16-.05-.11-.11.05,0,.11,0c.3-.05.6-.15.91-.2a2,2,0,0,1,1,.06v0a4,4,0,0,1-.17-.59l-.14-.1a6.11,6.11,0,0,0-1.05-.33,2.09,2.09,0,0,1-.75-.4v0h0v0h0a0,0,0,0,1,0-.06s0,0,.07,0a9.23,9.23,0,0,1,1.43.4,1.17,1.17,0,0,1,.38.28l0-.11c0-.21-.07-.42-.1-.63a6,6,0,0,0-1.07-.62c-.18-.1-.37-.21-.55-.33a1,1,0,0,1-.33-.31.1.1,0,0,1,0,0s0,0,.08,0l.15.07A6,6,0,0,1,36,14.2a1.24,1.24,0,0,1,.31.34h0c0-.24-.05-.48-.08-.71v-.11a.31.31,0,0,0-.06-.06l0,0,0,0c-.22-.15-.48-.25-.7-.4a3.48,3.48,0,0,1-.58-.5h0s-.08-.08,0-.12.07,0,.1,0l.15.08a2.75,2.75,0,0,1,1.17.84h0c0-.28-.07-.57-.11-.85h0c-.06-.17-.15-.34-.22-.5a5.86,5.86,0,0,1-.41-1,.76.76,0,0,1,0-.21v0s0,0,0,0,0,0,.08.07a3.13,3.13,0,0,1,.71,1.67,1.69,1.69,0,0,1,0,.55.25.25,0,0,1,0,.08.26.26,0,0,1,0,.07s0,0,0,0A3.3,3.3,0,0,1,37,12.19a1.29,1.29,0,0,1,.21-.2s0,0,.05,0,0,.07,0,.1v0a2.2,2.2,0,0,1-.63,1,1.76,1.76,0,0,0-.36.54v.08s0,0,0,0h0c0,.16,0,.33,0,.49v0a1.92,1.92,0,0,1,.48-.81c.17-.17.36-.32.55-.48l0,0s.06,0,.07,0,0,0,0,.08a1,1,0,0,1-.08.2,5.6,5.6,0,0,1-.72,1,1.7,1.7,0,0,0-.29.46h0c0,.15,0,.31.07.47v0a2.29,2.29,0,0,1,.71-.95l.19-.19L37.5,14l.1-.1a0,0,0,0,1,.09,0V14a1.15,1.15,0,0,1-.33.62c-.2.25-.44.48-.62.74a.88.88,0,0,0-.16.32h0c0,.2.1.4.16.6l0-.11a1.81,1.81,0,0,1,.36-.63c.19-.24.4-.47.59-.7l.05-.06a0,0,0,0,1,0,0s0,.06,0,.06a4.7,4.7,0,0,1-.72,1.34,1.67,1.67,0,0,0-.24.37h0a3.45,3.45,0,0,0,.75,1.17v0s0,0,0,.05S37.64,17.81,37.62,17.82Z" transform="translate(-0.34 -4.5)" style="fill: #008a77"/>
    <path d="M39.73,15.7l0,0a.69.69,0,0,1,0-.13h0a1,1,0,0,1,.11-.64,2.51,2.51,0,0,1,.37-.53s0,0,.08,0a.2.2,0,0,1,.06.13.54.54,0,0,1,0,.08,1.22,1.22,0,0,1-.08.65,2.64,2.64,0,0,1-.47.6h0l-.06.12a1.65,1.65,0,0,1,.94-.37.58.58,0,0,1,.26.05h0s0,0,0,0a.55.55,0,0,1-.19.18l-.1.07a1.15,1.15,0,0,1-.77.23.79.79,0,0,1-.26-.08c-.13.19-.27.38-.41.56a1.5,1.5,0,0,1,1-.17.57.57,0,0,1,.25.11h0s0,0,0,.06a1.1,1.1,0,0,1-.25.17,1.22,1.22,0,0,1-.66.18.83.83,0,0,1-.48-.18l0,0,0,0a6.06,6.06,0,0,0-.43.73l.09,0a1.53,1.53,0,0,1,.91-.14.81.81,0,0,1,.34.15h0l0,.07s0,0,0,0a1.56,1.56,0,0,1-1,.25.64.64,0,0,1-.42-.18l0,0a3,3,0,0,0-.2.65,2.38,2.38,0,0,0,0,.8l0,.17,0,0h0a1.16,1.16,0,0,1,0-.18h0a2.5,2.5,0,0,1,.1-1.15v0a1,1,0,0,1-.92-.7c0-.09,0-.18-.05-.26s.06-.06.13-.06a.75.75,0,0,1,.37.13.84.84,0,0,1,.36.34c.07.14.09.3.15.44a3.81,3.81,0,0,1,.36-.73.56.56,0,0,1-.31-.09,1.08,1.08,0,0,1-.45-1s0-.15.09-.13a.5.5,0,0,1,.19.13,1.71,1.71,0,0,1,.49.62.82.82,0,0,1,0,.35c.17-.27.36-.53.54-.79a.07.07,0,0,1-.06,0,.76.76,0,0,1-.49-.94c0-.09.07-.21.15-.13s.18.24.27.36a1.07,1.07,0,0,1,.21.62v0C39.55,16,39.64,15.85,39.73,15.7Z" transform="translate(-0.34 -4.5)" style="fill: #008a77"/>
    <path d="M6.89,18.44s0,0,0,0h0a2.53,2.53,0,0,1-.26-.94v0h0v-.06a1.2,1.2,0,0,0-.42-.07h-.1a2.09,2.09,0,0,1-.7-.15l-.1-.06s-.1-.06,0-.09,0,0,.07,0c.21,0,.42,0,.63.05a1.45,1.45,0,0,1,.67.26v0a3.23,3.23,0,0,1,0-.44l-.07-.1a4.68,4.68,0,0,0-.62-.45,1.37,1.37,0,0,1-.41-.42h0s0,0,0,0l0,0a6.64,6.64,0,0,1,.85.57.83.83,0,0,1,.19.27v-.08l.06-.45a4.92,4.92,0,0,0-.57-.64l-.3-.34a.72.72,0,0,1-.15-.27v0s0,0,.06,0l.08.08a3.65,3.65,0,0,1,.77.75.83.83,0,0,1,.14.3h0l.09-.5v-.08l0,0v0l0,0c-.11-.15-.26-.27-.38-.41a3.24,3.24,0,0,1-.28-.47h0s0-.07,0-.09,0,0,.06,0l.08.09a2,2,0,0,1,.6.81h0c0-.2.07-.4.1-.61h0c0-.13,0-.26,0-.38a4.42,4.42,0,0,1-.06-.81.59.59,0,0,1,0-.14l0,0s0,0,0,0,0,0,0,.06A2.37,2.37,0,0,1,7,14.6a1.44,1.44,0,0,1-.1.37s0,0,0,.06v.05h0a2.26,2.26,0,0,1,.7-.6l.18-.09h0s0,0,0,.07v0a1.63,1.63,0,0,1-.61.55,1,1,0,0,0-.34.3l0,.05s0,0,0,0h0c0,.11,0,.23-.07.35h0a1.35,1.35,0,0,1,.47-.45,4.69,4.69,0,0,1,.46-.21l0,0s0,0,0,0,0,0,0,.05a.94.94,0,0,1-.09.12,4.11,4.11,0,0,1-.68.57,1.12,1.12,0,0,0-.28.25h0c0,.11,0,.22-.05.34h0a1.61,1.61,0,0,1,.66-.5l.16-.09.08,0,.08-.05a0,0,0,0,1,.06,0v0c0,.16-.21.26-.33.36s-.39.23-.56.37a.77.77,0,0,0-.17.19h0c0,.14,0,.29,0,.44l0-.07A1.13,1.13,0,0,1,7,16.78l.52-.35,0,0s0,0,0,0a.1.1,0,0,1,0,0,3.86,3.86,0,0,1-.74.77,1.55,1.55,0,0,0-.24.19h0a2.69,2.69,0,0,0,.26,1h0s0,0,0,0S6.91,18.44,6.89,18.44Z" transform="translate(-0.34 -4.5)" style="fill: #006c78"/>
    <path d="M9.64,15.61v0a.31.31,0,0,0,0-.1h0a.86.86,0,0,1,.2-.42,2.19,2.19,0,0,1,.35-.27s0,0,.06,0a.37.37,0,0,1,0,.11V15a.83.83,0,0,1-.18.42,1.66,1.66,0,0,1-.43.32h0l-.07.06a1,1,0,0,1,.69,0,.32.32,0,0,1,.16.09h0s0,0,0,0a.4.4,0,0,1-.16.08l-.08,0a.8.8,0,0,1-.55,0,.53.53,0,0,1-.15-.11c-.12.11-.25.2-.38.3a1,1,0,0,1,.71.1.53.53,0,0,1,.14.12h0s0,0,0,0a.68.68,0,0,1-.2.07.8.8,0,0,1-.46,0A.7.7,0,0,1,9,16.26v0l0,0a2.71,2.71,0,0,0-.42.41l.06,0a1,1,0,0,1,.62.1.55.55,0,0,1,.2.17h0l0,.06s0,0,0,0a1,1,0,0,1-.68,0,.45.45,0,0,1-.24-.21s0,0,0,0a2.19,2.19,0,0,0-.26.41,1.75,1.75,0,0,0-.18.53.51.51,0,0,0,0,.13l0,0H8a.53.53,0,0,1,0-.13H8a1.85,1.85,0,0,1,.29-.76v0a.66.66,0,0,1-.46-.67.55.55,0,0,1,0-.18s0,0,.09,0a.6.6,0,0,1,.22.17.62.62,0,0,1,.16.31c0,.11,0,.22,0,.33a3.22,3.22,0,0,1,.39-.43.35.35,0,0,1-.19-.12.82.82,0,0,1-.1-.75s0-.11.09-.08a.38.38,0,0,1,.09.13,1.34,1.34,0,0,1,.2.52,1.17,1.17,0,0,1,0,.26c.16-.15.34-.29.51-.43l0,0a.56.56,0,0,1-.12-.75c0-.05.08-.12.12-.05a2.64,2.64,0,0,1,.1.3.88.88,0,0,1,0,.33.51.51,0,0,1,0,.13h0A3.45,3.45,0,0,0,9.64,15.61Z" transform="translate(-0.34 -4.5)" style="fill: #006c78"/>
    <path d="M18.93,27.5s.72-1.69,2-1.25c.71.24.37,1.16-.35.91A1.47,1.47,0,0,0,18.93,27.5Z" transform="translate(-0.34 -4.5)" style="fill: #0098a8;fill-rule: evenodd"/>
    <path d="M18.49,27.17s-.49-1.91.92-2.59c1-.47,1.44.55.67.91A2.12,2.12,0,0,0,18.49,27.17Z" transform="translate(-0.34 -4.5)" style="fill: #00b3c6;fill-rule: evenodd"/>
    <g>
      <path d="M12.68,24.2s.22-.67.75-.74c.19,0-.24.2,0,.95Z" transform="translate(-0.34 -4.5)" style="fill: #2a2a2a"/>
      <path d="M11,25a1.92,1.92,0,0,0-.26.67c0,.11.15.57.29.6s.43-.21.49-.31-.33-.83-.31-.89-.18-.1-.21-.07" transform="translate(-0.34 -4.5)" style="fill: #2a2a2a"/>
      <path d="M9.84,24.92c0-.16.3-1.33,3-.82,1.52.32,2.34,2.07,2.48,3a1.52,1.52,0,0,1,1.12.54,1.51,1.51,0,0,0-1.81.91,1.94,1.94,0,0,1,.42-1.32,1.12,1.12,0,0,0-.84-.81c-.51-.21-2.39-.58-2.69-.8s-1.61-.41-1.69-.73" transform="translate(-0.34 -4.5)" style="fill: #2a2a2a"/>
      <path d="M14.17,26.25c-.48-.14-.5-.31-.37-.34s.76.36.75.15-.5-.77-.87-.69-.32.45-.61.55c-.72.25-1.59-1.09-2.11-1.24A1.61,1.61,0,0,0,9.85,25c0,.27,1.23.77,1.56.88a14.84,14.84,0,0,1,3.16.79.59.59,0,0,0-.4-.38" transform="translate(-0.34 -4.5)" style="fill: #fff"/>
      <path d="M12,24.4a1.63,1.63,0,0,1-.44,0,.72.72,0,0,0-.51.07c0,.06,0,.14.26.22a1.52,1.52,0,0,0,.57,0c.2,0,.48-.33.12-.29" transform="translate(-0.34 -4.5)" style="fill: #fff"/>
      <path d="M11.52,24.94a1.4,1.4,0,0,0,.05.82c0,.09.4.39.52.34s.28-.43.29-.54-.68-.51-.68-.57Z" transform="translate(-0.34 -4.5)" style="fill: #2a2a2a"/>
      <path d="M11.27,24.53a.08.08,0,0,1-.11,0,.09.09,0,0,1,0-.12.08.08,0,0,1,.11-.05.11.11,0,0,1,0,.13" transform="translate(-0.34 -4.5)" style="fill: #2a2a2a"/>
    </g>
    <g>
      <path d="M40.68,20.38a.13.13,0,0,0,0-.06.34.34,0,0,1-.2,0l-.12,5.37h.45Z" transform="translate(-0.34 -4.5)" style="fill: #f1ece4"/>
      <path d="M40.38,19.86a.17.17,0,0,1,.13-.1,1.6,1.6,0,0,1,0-.22.4.4,0,0,0-.32.24s0,0,0,0l.21.05s0,0,0,0" transform="translate(-0.34 -4.5)" style="fill: #007b92"/>
      <path d="M40.67,19.79a.19.19,0,0,1,0,.21,0,0,0,0,1,0,0,.81.81,0,0,1,.18.1s0,0,0,0a.39.39,0,0,0-.11-.44,1.08,1.08,0,0,1-.13.15" transform="translate(-0.34 -4.5)" style="fill: #007b92"/>
      <path d="M40.63,20.32a1.67,1.67,0,0,0-.06-.2.12.12,0,0,1-.08,0,.17.17,0,0,1-.08-.06l-.18.1a.35.35,0,0,0,.18.16l.06,0h.16" transform="translate(-0.34 -4.5)" style="fill: #007b92"/>
      <path d="M40.51,19.76h.11s0,0,0,0,.09-.1.15-.16a4.61,4.61,0,0,0,.78-1.27,6.18,6.18,0,0,0,.34-1.86,5.83,5.83,0,0,0-1.09,1.63,3.66,3.66,0,0,0-.33,1.41.74.74,0,0,0,0,.21" transform="translate(-0.34 -4.5)" style="fill: #f1ebe4"/>
      <path d="M40.57,20.12c0,.06,0,.12.06.2s0,0,0,0a4.78,4.78,0,0,0,.69,1.26,5.82,5.82,0,0,0,1.44,1.22,5.75,5.75,0,0,0-.86-1.75,3.7,3.7,0,0,0-1-1,.87.87,0,0,0-.18-.11.2.2,0,0,1-.14.11" transform="translate(-0.34 -4.5)" style="fill: #f1ebe4"/>
      <path d="M40.38,19.88l-.21-.05a4.37,4.37,0,0,0-1.51,0,6,6,0,0,0-1.78.62,5.76,5.76,0,0,0,1.95.14,4,4,0,0,0,1.39-.4L40.4,20a.19.19,0,0,1,0-.15" transform="translate(-0.34 -4.5)" style="fill: #f1ebe4"/>
      <path d="M40.71,20h0a.18.18,0,0,0-.06-.21s0,0,0,0h-.11a.28.28,0,0,0-.13.11v0a.16.16,0,0,0,0,.15.19.19,0,0,0,.08.07h.09a.19.19,0,0,0,.14-.11" transform="translate(-0.34 -4.5)" style="fill: #fff"/>
    </g>
    <g>
      <path d="M35.87,21.73a.13.13,0,0,1,0-.06.38.38,0,0,1-.21,0l-.12,5.59H36Z" transform="translate(-0.34 -4.5)" style="fill: #f1ece4"/>
      <path d="M35.81,21.47a.19.19,0,0,1,.15.09l.21-.07a.41.41,0,0,0-.35-.23h0a2.15,2.15,0,0,1,0,.23l0,0" transform="translate(-0.34 -4.5)" style="fill: #007b92"/>
      <path d="M36,21.72a.18.18,0,0,1-.18.13,0,0,0,0,1,0,0c0,.06,0,.13,0,.22h0a.4.4,0,0,0,.4-.26l-.2-.08" transform="translate(-0.34 -4.5)" style="fill: #007b92"/>
      <path d="M35.45,21.88l.18-.13a.13.13,0,0,1,0-.09.18.18,0,0,1,0-.1l-.17-.14a.39.39,0,0,0-.09.24v.06a.82.82,0,0,0,.06.16" transform="translate(-0.34 -4.5)" style="fill: #007b92"/>
      <path d="M36,21.56a.2.2,0,0,1,0,.11.11.11,0,0,1,0,0l.2.09a4.31,4.31,0,0,0,1.52.33,6.27,6.27,0,0,0,1.94-.3,6,6,0,0,0-2-.51,3.85,3.85,0,0,0-1.5.16l-.21.07" transform="translate(-0.34 -4.5)" style="fill: #f1ebe4"/>
      <path d="M35.63,21.74l-.17.13,0,0a5.2,5.2,0,0,0-1,1.11,6.53,6.53,0,0,0-.71,1.84,6,6,0,0,0,1.44-1.45,4,4,0,0,0,.6-1.34,1,1,0,0,0,0-.21.19.19,0,0,1-.16-.11" transform="translate(-0.34 -4.5)" style="fill: #f1ebe4"/>
      <path d="M35.79,21.48c0-.06,0-.14,0-.23a4.4,4.4,0,0,0-.47-1.5,6.1,6.1,0,0,0-1.21-1.54,5.94,5.94,0,0,0,.52,2,4,4,0,0,0,.88,1.23l.16.14a.17.17,0,0,1,.14-.07" transform="translate(-0.34 -4.5)" style="fill: #f1ebe4"/>
      <path d="M35.78,21.85h0a.17.17,0,0,0,.18-.12.11.11,0,0,0,0-.06.19.19,0,0,0,0-.1.21.21,0,0,0-.15-.09h0a.21.21,0,0,0-.15.07.3.3,0,0,0,0,.1.29.29,0,0,0,0,.09.23.23,0,0,0,.16.11" transform="translate(-0.34 -4.5)" style="fill: #fff"/>
    </g>
    <path d="M23.34,24.7h1.13a.38.38,0,0,1,.27.12,1.51,1.51,0,0,0,.09-.57c0-.91,1.85-1.55,1.85-3.69a3.1,3.1,0,0,0-6.2,0c0,2.18,1.85,2.82,1.85,3.69a1.54,1.54,0,0,0,.08.52.38.38,0,0,1,.21-.07Z" transform="translate(-0.34 -4.5)" style="fill: #fbde9c"/>
    <path d="M23.43,17.73h.31v.44H22v0h-.44v.32H21v-.4L21,21V18.36h.7V18h1Z" transform="translate(-0.34 -4.5)" style="fill: #fff;fill-rule: evenodd"/>
    <path d="M21.81,21.88h-.09v-.62h.34l.06,0Z" transform="translate(-0.34 -4.5)" style="fill: #fff;fill-rule: evenodd"/>
    <path d="M38.55,10.86h-.12a1.78,1.78,0,0,0-.61.11.83.83,0,0,1-1-.36,2.16,2.16,0,0,0-1.8-1,2.13,2.13,0,0,0-1.77,1,.83.83,0,0,1-1,.37,1.7,1.7,0,0,0-.54-.09h-.13a.87.87,0,0,0-.8.87h8.58a.89.89,0,0,0-.81-.87" transform="translate(-0.34 -4.5)" style="fill: #fff"/>
    <path d="M8.12,23.45H8a1.73,1.73,0,0,0-.6.11.84.84,0,0,1-1-.36,2.12,2.12,0,0,0-1.79-1,2.13,2.13,0,0,0-1.77,1,.86.86,0,0,1-1,.37,1.61,1.61,0,0,0-.54-.09H1.15a.89.89,0,0,0-.81.87H8.93a.89.89,0,0,0-.81-.87" transform="translate(-0.34 -4.5)" style="fill: #fff"/>
    <path d="M34,7.11h-.12a1.46,1.46,0,0,0-.55.11.77.77,0,0,1-.94-.33,2,2,0,0,0-1.64-1,1.93,1.93,0,0,0-1.62.92.79.79,0,0,1-.91.34,1.33,1.33,0,0,0-.49-.09h-.11a.8.8,0,0,0-.74.8h7.86a.81.81,0,0,0-.74-.8" transform="translate(-0.34 -4.5)" style="fill: #fff"/>
    <path d="M13.48,18.89h-.11a1.45,1.45,0,0,0-.55.1.76.76,0,0,1-.94-.32,1.89,1.89,0,0,0-3.27,0,.76.76,0,0,1-.9.34,1.62,1.62,0,0,0-.49-.08H7.1a.83.83,0,0,0-.74.8h7.86a.81.81,0,0,0-.74-.8" transform="translate(-0.34 -4.5)" style="fill: #fff"/>
    <path d="M23.59,27.22a.9.9,0,0,0,.88-.69H22.7a.91.91,0,0,0,.89.69" transform="translate(-0.34 -4.5)" style="fill: #003939"/>
    <path d="M23.42,25.35h1.12a.4.4,0,0,1,.15,0,.38.38,0,0,0,.15-.3h0a.36.36,0,0,0-.1-.25.38.38,0,0,0-.27-.12h-.7V22.16c.22-.71,1-.5,1.24-2.49a3,3,0,0,0-1.37,2s0-.62-1.2-1.24a5.9,5.9,0,0,1,.43,1.12,1,1,0,0,0,.48.62V24.7h-.7a.38.38,0,0,0-.21.07.37.37,0,0,0-.16.31h0a.37.37,0,0,0,.18.32.41.41,0,0,1,.19-.05h.77Z" transform="translate(-0.34 -4.5)" style="fill: #00c299"/>
    <path d="M24.92,25.67a.35.35,0,0,0-.22-.29.4.4,0,0,0-.15,0H22.64a.41.41,0,0,0-.19,0,.33.33,0,0,0-.18.27.37.37,0,0,0,.37.32h1.91a.37.37,0,0,0,.37-.32" transform="translate(-0.34 -4.5)" style="fill: #003939"/>
    <path d="M22.63,26c-.21,0-.37.12-.37.27s.17.27.37.27h1.91c.21,0,.37-.12.37-.27s-.17-.27-.37-.27Z" transform="translate(-0.34 -4.5)" style="fill: #00c299"/>
  </g>
</svg>
