<?xml version="1.0" encoding="utf-8"?>
<!-- Generator: Adobe Illustrator 25.1.0, SVG Export Plug-In . SVG Version: 6.00 Build 0)  -->
<svg version="1.1" id="Layer_1" xmlns="http://www.w3.org/2000/svg" xmlns:xlink="http://www.w3.org/1999/xlink" x="0px" y="0px"
	 width="227.1px" height="44px" viewBox="0 0 227.1 44" style="enable-background:new 0 0 227.1 44;" xml:space="preserve">
<g>
	<rect x="-4.2" y="-4.3" style="display:none;fill:#FFFFFF;" width="53.6" height="53.6"/>
	<g id="OBJECTS_1_">
		<g transform="matrix(0.96164,0,0,0.925308,196.349,225.001)">
			<path style="fill:#006C78;" d="M-186.7-216.1c-1.8-3.4-2.7-5.1-4.5-8.5c-3.8-0.1-5.7-0.2-9.4-0.2c1.2,0.7,1.8,1.1,2.9,1.8
				c-0.3,0.5-0.4,0.8-0.7,1.3c-2.6,4.7-0.4,8.3,4.5,8.4c1.3,0,2.7,0.1,4.3,0.1c-1.4-0.2-2.2-1-1.5-2.2c0.6-1,0.9-1.5,1.5-2.6
				C-188.5-217.2-187.9-216.9-186.7-216.1"/>
			<g>
				<g>
					<defs>
						<path id="SVGID_1_" d="M-186.7-216.1c-1.8-3.4-2.7-5.1-4.5-8.5c-3.8-0.1-5.7-0.2-9.4-0.2c1.2,0.7,1.8,1.1,2.9,1.8
							c-0.3,0.5-0.4,0.8-0.7,1.3c-2.6,4.7-0.4,8.3,4.5,8.4c1.3,0,2.7,0.1,4.3,0.1c-1.4-0.2-2.2-1-1.5-2.2c0.6-1,0.9-1.5,1.5-2.6
							C-188.5-217.2-187.9-216.9-186.7-216.1"/>
					</defs>
					<clipPath id="SVGID_2_">
						<use xlink:href="#SVGID_1_"  style="overflow:visible;"/>
					</clipPath>
					<g style="clip-path:url(#SVGID_2_);">
						<g transform="matrix(1.03989,0,0,1.08072,-204.181,-243.163)">
							<path style="fill-rule:evenodd;clip-rule:evenodd;fill:#0098A8;" d="M15.2,20.9C15.2,21,15.3,20.9,15.2,20.9
								c-0.2,0-0.5,0.1-0.7,0.1c-0.5,0.1-1,0.1-1.5,0.1c-1.7,0-3.3-0.1-5,0.2c-0.2,0-0.3,0.1-0.5,0.2s-0.3,0.2-0.5,0.3
								c-0.3,0.3,0.1,0.5,0.3,0.6c0.5,0.1,1.1,0.2,1.6,0.4c0.3,0.1,0.9,0.5,0.6,0.6c-0.6,0.3-1,0.2-1.7,0.2c-1.4,0-3.1-0.3-4.5,0.2
								c-0.5,0.2-2,0.6-1.8,1.6C2,26.7,3.8,27.9,5,28.2c3.8,1,7.2,0.5,11-0.1c1.2-0.2,2.6-0.1,3.7-0.8c1.4-0.9,3.5-2.8,1.9-4.6
								c-0.3-0.3-0.6-0.7-1-0.9c-0.4-0.3-0.8-0.5-1.2-0.6L15.2,20.9"/>
						</g>
					</g>
				</g>
			</g>
		</g>
		<path style="fill:#0099A8;" d="M5.2,26.5c1,1.3,3.2,1.6,5.5,1.7c4,0.2,6.1,0.2,10.1,0.2c0,3.5,0,5.3,0,8.8c-3,0-4.4,0-7.4-0.2
			c-1.9-0.1-3.5-1.2-4.4-2.9C7.4,31,6.7,29.5,5.2,26.5"/>
		<g>
			<g>
				<defs>
					<path id="SVGID_3_" d="M-196.1-421.4c1.5,1.3,3.8,1,6.1,0.4c4.1-1.1,6.1-1.7,10.1-3c1.4,4.5,2,6.8,3.4,11.3
						c-2.9,1-4.4,1.4-7.4,2.1c-1.9,0.5-4-0.4-5.5-2.3C-192.1-416.4-193.4-418.1-196.1-421.4"/>
				</defs>
				<clipPath id="SVGID_4_">
					<use xlink:href="#SVGID_3_"  style="overflow:visible;"/>
				</clipPath>
				<g transform="matrix(0.991208,-0.326795,0.39057,1.2795,-211.564,-453.708)" style="clip-path:url(#SVGID_4_);">
					<path style="fill-rule:evenodd;clip-rule:evenodd;fill:#00B4C6;" d="M62,391c0.1,0,0.2-0.2,0.3-0.2c0.4,0,0.9,0.9,1,1
						c0.8,0.7,2,1.5,3,2c1.2,0.6,2.2,1,3.6,1.4c1.2,0.4,1.7,0.4,2.8,1c1.7,0.9,2.9,2.6,4.6,3.5c0.5,0.3,2.2,0.9,2.9,1.4
						c0.3,0.2,0.8,0.6,0.8,1.1c0.1,0.8-1,1.7-1.8,1.8c-2.3,0.3-4.5-0.5-6.7-1.3c-2-0.7-3.5-1.3-5.3-2.3c-2.5-1.3-4.5-3.3-6.3-5.4
						L62,391"/>
				</g>
			</g>
		</g>
		<g transform="matrix(0.96164,0,0,0.925308,254.497,83.902)">
			<path style="fill:#003939;" d="M-240.7-73.4c3.8-0.1,5.8-0.2,9.6-0.3c1.8-3.4,2.6-5.1,4.3-8.4c-1.2,0.7-1.8,1.1-2.9,1.8
				c-0.3-0.5-0.5-0.7-0.9-1.2c-3.1-4.4-7.3-4-9.5,0.4c-0.6,1.1-1.2,2.4-2,3.8c0.8-1.2,1.9-1.6,2.6-0.4c0.7,1,1,1.5,1.6,2.5
				C-238.9-74.5-239.5-74.1-240.7-73.4"/>
			<g>
				<g>
					<defs>
						<path id="SVGID_5_" d="M-240.7-73.4c3.8-0.1,5.8-0.2,9.6-0.3c1.8-3.4,2.6-5.1,4.3-8.4c-1.2,0.7-1.8,1.1-2.9,1.8
							c-0.3-0.5-0.5-0.7-0.9-1.2c-3.1-4.4-7.3-4-9.5,0.4c-0.6,1.1-1.2,2.4-2,3.8c0.8-1.2,1.9-1.6,2.6-0.4c0.7,1,1,1.5,1.6,2.5
							C-238.9-74.5-239.5-74.1-240.7-73.4"/>
					</defs>
					<clipPath id="SVGID_6_">
						<use xlink:href="#SVGID_5_"  style="overflow:visible;"/>
					</clipPath>
					<g style="clip-path:url(#SVGID_6_);">
						<g transform="matrix(0.265278,0,0,0.30577,-13.2921,28.7178)">
							<path style="fill-rule:evenodd;clip-rule:evenodd;fill:#007476;" d="M-866.1-341.8c0,0,22.9-0.1,30.4-15.7l8,4.7l1.1-7.1
								c0,0,11.8,1,22.6,15.1l-1.1,12h-60.6L-866.1-341.8z"/>
							<g>
								<g>
									<defs>
										<path id="SVGID_7_" d="M-866.1-341.8c0,0,22.9-0.1,30.4-15.7l8,4.7l1.1-7.1c0,0,11.8,1,22.6,15.1l-1.1,12h-60.6
											L-866.1-341.8z"/>
									</defs>
									<clipPath id="SVGID_8_">
										<use xlink:href="#SVGID_7_"  style="overflow:visible;"/>
									</clipPath>
									<g style="clip-path:url(#SVGID_8_);">
										<g transform="matrix(1,0,0,1.03052,0,-8.98933)">
											<path style="fill-rule:evenodd;clip-rule:evenodd;fill:#006566;" d="M-836-339.3c0-0.1,0,0.3,0,0.4c0,0.3,0,0.6,0,0.9
												c0,1-0.1,2.1-0.3,3c-0.5,2.9-1.6,5.8-3.6,8c-4.6,5-11.8,8.4-18.5,9.5c-2.7,0.5-6.7,0.5-8.3-2c-1.8-2.7,1.4-5.4,3.4-6.5
												c1.9-1,4.1-1.6,6.1-2.2c3.8-1.2,7.6-2.4,11.1-4.1c2.2-1.1,4.4-2.6,6.3-4.3c1.2-1,2.5-2.4,3.9-2.9"/>
										</g>
										<g transform="matrix(0.937692,0.358073,-0.415607,1.1558,56.5318,-133.773)">
											<path style="fill-rule:evenodd;clip-rule:evenodd;fill:#006566;" d="M-904.3,89.8c0.1,0,0.1,0.5,0.2,0.6
												c0.2,0.5,0.5,0.9,0.8,1.4c0.1,0.1,0.2,0.4,0.4,0.3c0.5-0.2,0.7-1.5,0.8-1.9c0.4-1.7,0.6-3.5-0.2-5.1
												c-0.3-0.5-0.3-1.2-0.8-1.5c-0.2-0.1-2.4-0.6-2.5-0.4c-0.2,1.3,1.7,4,1.7,5.3c0,0.4,0,0.9-0.1,1.3c0,0.1-0.1,0.6-0.1,0.6"
												/>
										</g>
										<g transform="matrix(1,0,0,1.03052,0,-8.98933)">
											<path style="fill-rule:evenodd;clip-rule:evenodd;fill:#006566;" d="M-863.7-316.6c0.4,0,1.1,0.4,1.7,0.4
												c2.5,0.1,5-0.3,7.4-0.4c4.1-0.2,8.2-0.4,12.3-1.2c4.4-0.9,9.1-2.1,12.7-5c2.4-1.9,4.3-4.2,6.4-6.3c0,0,0.5,0.1,0.6,0.2
												c0.5,0.2,1.1,0.6,1.7,0.7c3.2,0.9,5.8,2.8,8.5,4.5c2.2,1.3,4.6,2.1,6.3,4.1c0.6,0.7,1.4,1.3,1.5,2.3c0.6,4-5.3,4-7.9,4.1
												c-0.8,0-1.5,0.1-2.3,0.1h-2.7c-5.4,0-10.8-0.2-16.2,0c-4.1,0.1-8.2,0.7-12.2,1c-2.9,0.2-5.9,0.3-8.8,0.4
												c-0.7,0-1.4,0-2,0.1c-0.7,0.1-1.3,0.1-1.9,0.2c-1.8,0.2-4.5,0.7-5.7-1c-0.5-0.6-0.8-1.3-0.5-2"/>
											<g>
												<g>
													<defs>
														<path id="SVGID_9_" d="M-863.7-316.6c0.4,0,1.1,0.4,1.7,0.4c2.5,0.1,5-0.3,7.4-0.4c4.1-0.2,8.2-0.4,12.3-1.2
															c4.4-0.9,9.1-2.1,12.7-5c2.4-1.9,4.3-4.2,6.4-6.3c0,0,0.5,0.1,0.6,0.2c0.5,0.2,1.1,0.6,1.7,0.7
															c3.2,0.9,5.8,2.8,8.5,4.5c2.2,1.3,4.6,2.1,6.3,4.1c0.6,0.7,1.4,1.3,1.5,2.3c0.6,4-5.3,4-7.9,4.1
															c-0.8,0-1.5,0.1-2.3,0.1h-2.7c-5.4,0-10.8-0.2-16.2,0c-4.1,0.1-8.2,0.7-12.2,1c-2.9,0.2-5.9,0.3-8.8,0.4
															c-0.7,0-1.4,0-2,0.1c-0.7,0.1-1.3,0.1-1.9,0.2c-1.8,0.2-4.5,0.7-5.7-1c-0.5-0.6-0.8-1.3-0.5-2"/>
													</defs>
													<clipPath id="SVGID_10_">
														<use xlink:href="#SVGID_9_"  style="overflow:visible;"/>
													</clipPath>
													<g style="clip-path:url(#SVGID_10_);">
														<path style="fill-rule:evenodd;clip-rule:evenodd;fill:#00A99E;" d="M-823.8-329.9c-0.1-0.1,0.3,0.5,0.3,0.6
															c0.3,0.3,0.5,0.7,0.8,1c0.4,0.5,0.9,1,1.2,1.6c0.3,0.6,0.5,1.3,1,1.8c0.9,0.9,1.9,1.9,3,2.4c1,0.4,2,0.7,3,1.1
															c1.4,0.6,2.4,2,3.7,2.8c1.2,0.8,2.7,0.7,4.1,0.8c0.2,0,1.5,0,1.5-0.4c0-0.4-0.6-1.1-0.8-1.4c-0.8-1.4-1.5-2.6-2.8-3.6
															c-3.4-2.6-7-4.9-11.3-5.9c-0.5-0.1-1-0.4-1.5-0.4c-0.4,0-0.8,0-1.2-0.1c-0.6-0.1-1-0.3-1.5-0.2"/>
													</g>
												</g>
											</g>
										</g>
										<g transform="matrix(1,0,0,1.03052,0,-8.98933)">
											<path style="fill-rule:evenodd;clip-rule:evenodd;fill:#00A99E;" d="M-835.6-338.5c0,0,0.2,0.7,0.3,0.8
												c0.3,0.5,0.6,1.1,1,1.6c1,1.1,1.9,2.1,3,3.1c0.5,0.4,0.9,0.8,1.5,1c0.5,0.2,1.5,0.9,2,0.2c0.7-1.2,0-5.2-0.9-6.1
												c-0.5-0.5-1.4,1.3-2,0.9c-0.4-0.3-0.8-0.5-1.3-0.8c-0.6-0.4-1.4-0.9-2.1-1.1c-0.6-0.1-1.2,0.5-1.7,0.2"/>
										</g>
										<g transform="matrix(1,0,0,1.03052,0,-8.98933)">
											<path style="fill-rule:evenodd;clip-rule:evenodd;fill:#00A99E;" d="M-826.8-341.1c-0.2,0.3,0.7,1,1,1.1
												c1.3,0.9,2.9,1.4,4.2,2.3c0.8,0.6,1.5,1.2,2.3,1.8c0.9,0.6,1.8,1.2,2.7,1.8c1,0.6,2,1.3,3.1,1.7c0.2,0,0.3,0.1,0.5,0.2
												c0.7,0.2,2.4,0.5,2.8-0.4c0.1-0.2-0.2-0.7-0.3-0.9c-0.4-0.8-1.2-1.5-1.8-2.1c-1.7-1.9-3.8-3.4-6-4.6
												c-1-0.6-2.1-1.2-3.3-1.4c-1.2-0.2-2.8-0.8-4-0.5c-0.5,0.1-0.9,0.1-1.2,0.5C-826.8-341.5-826.9-341.3-826.8-341.1
												c-0.1,0,0,0.2,0,0.2"/>
										</g>
										<g transform="matrix(1,0,0,1.03052,0,-8.98933)">
											<path style="fill:#006566;" d="M-823.7-336.5c0.5,0,0.9,0.5,1.4,0.9c1.2,0.9,2.2,2,3.3,2.9c3.1,2.7,5.8,5.9,8.2,9.2
												l0,0.1c0.6,0.8,1.1,1.6,1.7,2.4l0,0.1c0,0-0.1,0.1-0.1,0.1l-0.2,0l-0.1-0.1c-3-4.2-6.2-8.4-10.2-11.8
												c-1-0.9-1.9-1.9-3-2.7c-0.3-0.3-0.6-0.6-1-0.8c-0.2-0.1-0.1,0-0.1,0l-0.1,0l-0.1-0.1l0-0.1
												C-823.9-336.4-823.8-336.5-823.7-336.5z M-813-328.9c0.2,0,0.4,0.2,0.4,0.2c0.1,0.1,0.1,0.1,0.2,0.1
												c0.5,0.8,1.1,1.4,1.7,2.2c0.4,0.5,0.7,1,1.1,1.6c0,0,0.4,0.6,0.8,1.1c0.3,0.5,0.6,1,1,1.5l0,0.1c0,0-0.1,0.1-0.1,0.1
												c0,0-0.2,0-0.2,0c0,0,0,0.2-0.1,0.3c-0.2,0.1-0.5-0.2-0.7-0.5l-0.2-0.3l0-0.1l-0.1,0c-0.1-0.2-0.1-0.2-0.1-0.2
												c-0.9-1.4-1.7-2.8-2.6-4.2c-0.1-0.1-0.1-0.2-0.2-0.2c-0.3-0.4-0.6-0.7-0.7-1.1l-0.1-0.1c-0.1-0.1-0.2-0.2-0.2-0.4
												L-813-328.9C-813-328.9-813-328.9-813-328.9z M-811.3-329.8c0.4,0,0.7,0.4,0.8,0.8c0.2,0.3,0.5,0.8,0,1
												c-0.5,0.1-1-0.7-1.2-1.3C-811.6-329.5-811.6-329.8-811.3-329.8z"/>
										</g>
										<g transform="matrix(1,0,0,1.03052,0,-8.98933)">
											<path style="fill:#006566;" d="M-833.7-330.9l0.1,0.1l0.1,0.1c0,2.6-0.3,5.3-1.5,7.7c-1.1,2.5-3,4.5-5.4,5.8
												c-1.6,0.8-3.3,1.5-5,1.9c-0.7,0.2-1.4,0.2-2.1,0.2l-0.3-0.1c-0.3-0.1-0.2-0.1-0.2-0.1l0-0.2c0.1-0.1,0-0.1,0.2-0.1l0.1,0
												c0,0,0.1,0,0.1,0c0.2,0,0.2,0,0.3,0c0.8,0,1.7-0.2,2.5-0.4c2.3-0.7,4.7-1.6,6.6-3.2c2.4-2.1,3.7-5.2,4.1-8.3
												c0.2-1,0.2-2.1,0.2-3.1l0.1-0.1C-833.9-330.8-833.7-330.9-833.7-330.9z M-823.4-327.5l0.1,0.1c0,0.5-0.5,0.9-0.7,1.3
												c-1.3,2.1-3.2,3.9-5.4,5.4c-1.3,0.9-2.7,1.6-4.1,2.2c0,0-0.1,0-0.1,0c-1,0.5-1.9,1-2.9,1.4c-0.2,0.1-0.5,0.2-0.8,0.2
												l-0.2,0c0,0-0.1-0.1-0.1-0.1l0-0.2l0.1-0.1c1.5-0.4,2.8-1.3,4.2-2c3.2-1.5,6.2-3.5,8.1-6.1c0.4-0.5,0.7-1.1,1.1-1.5
												c0.1-0.2,0.3-0.3,0.3-0.5c0-0.1,0,0,0,0l0-0.1l0.1-0.1C-823.5-327.5-823.4-327.5-823.4-327.5z M-826.8-319.7
												L-826.8-319.7l0,0.1l-0.1,0.1c-1,0.9-1.9,2-3.2,2.5c-0.2,0.1-0.5,0.1-0.8,0.1l-0.1,0l-0.1-0.1l0-0.1
												c0.1-0.1,0.2-0.1,0.2-0.1c1-0.2,1.8-0.9,2.5-1.5c0.2-0.2,0.4-0.4,0.6-0.6c0,0,0.3-0.3,0.6-0.5l0.2,0
												C-826.9-319.7-826.8-319.7-826.8-319.7z M-824.9-318.8l0.1,0.1l0,0.1c0,0-0.2,0.1-0.1,0.1c0,0-0.4,0.4-0.7,0.8l-0.1,0.1
												l-0.2,0l-0.1-0.1l0-0.1c0.3-0.3,0.5-0.7,0.8-0.9C-825.1-318.8-825-318.8-824.9-318.8z M-830.6-326.2l0.2,0.1l0.1,0.2
												c0,0.2,0,0.5,0,0.5c-0.1,1.5-0.8,2.9-1.6,4.1c-0.6,1-1.4,1.9-2.3,2.5c-0.2,0.1-0.4,0.2-0.7,0.2l-0.1-0.1l-0.1-0.1l0-0.1
												c0,0,0.4-0.1,0.6-0.3c1.8-1.4,3.1-3.6,3.5-5.8c0-0.2,0.1-0.5,0.1-0.5c0,0,0,0,0-0.1c0-0.1,0-0.3,0-0.3l0.1-0.1
												C-830.7-326.1-830.6-326.2-830.6-326.2z M-829.1-325.8c0.4,0,0.3,0.7-0.1,1c-0.2,0.2-0.6-0.1-0.3-0.6
												C-829.4-325.6-829.2-325.8-829.1-325.8z"/>
										</g>
									</g>
								</g>
							</g>
						</g>
					</g>
				</g>
			</g>
		</g>
		<g transform="matrix(0.96164,0,0,0.925308,289.285,202.878)">
			<path style="fill:#008A77;" d="M-273-213.8c-1.7,0.2-3,2.2-4.2,4.3c-2.1,3.8-3.2,5.7-5.3,9.5c-3.2-1.9-4.7-2.8-7.9-4.5
				c1.5-2.8,2.3-4.1,3.9-7c1-1.8,2.7-2.9,4.7-2.9C-278.3-214.2-276.5-214.1-273-213.8"/>
			<g>
				<g>
					<defs>
						<path id="SVGID_11_" d="M-273-213.8c-1.7,0.2-3,2.2-4.2,4.3c-2.1,3.8-3.2,5.7-5.3,9.5c-3.2-1.9-4.7-2.8-7.9-4.5
							c1.5-2.8,2.3-4.1,3.9-7c1-1.8,2.7-2.9,4.7-2.9C-278.3-214.2-276.5-214.1-273-213.8"/>
					</defs>
					<clipPath id="SVGID_12_">
						<use xlink:href="#SVGID_11_"  style="overflow:visible;"/>
					</clipPath>
					<g style="clip-path:url(#SVGID_12_);">
						<g transform="matrix(1.03989,0,0,1.08072,-300.824,-219.254)">
							<path style="fill-rule:evenodd;clip-rule:evenodd;fill:#00AF85;" d="M6.3,12.2c1.9-1.7,5.2-2.4,7.7-2
								c1.5,0.2,2.9,0.9,4.4,0.9c2.4-0.1,4.1-1.9,6.2-2.8c1.4-0.5,3.5-1,4.4,0.6c1.4,2.7-1.8,6-3.5,7.7c-1.9,1.9-4.1,3.6-6.9,4.3
								c-4.1,1-10.3-0.1-13.8-2.2L6.3,12.2z"/>
						</g>
					</g>
				</g>
			</g>
		</g>
		<g transform="matrix(0.96164,0,0,0.925308,305.841,415.86)">
			<path style="fill:#003939;" d="M-288.3-422.4c-1.9,3.3-2.9,5-4.9,8.3c1.9,3.3,2.9,4.9,4.8,8.1c0-1.4,0-2.1,0-3.5
				c0.6,0,0.9,0,1.5-0.1c5.4-0.2,7.3-4,4.7-8.2c-0.6-1.1-1.4-2.3-2.2-3.7c0.6,1.3,0.3,2.4-1.1,2.5c-1.2,0-1.8,0.1-3,0.1
				C-288.3-420.3-288.3-421-288.3-422.4"/>
			<g>
				<g>
					<defs>
						<path id="SVGID_13_" d="M-288.3-422.4c-1.9,3.3-2.9,5-4.9,8.3c1.9,3.3,2.9,4.9,4.8,8.1c0-1.4,0-2.1,0-3.5c0.6,0,0.9,0,1.5-0.1
							c5.4-0.2,7.3-4,4.7-8.2c-0.6-1.1-1.4-2.3-2.2-3.7c0.6,1.3,0.3,2.4-1.1,2.5c-1.2,0-1.8,0.1-3,0.1
							C-288.3-420.3-288.3-421-288.3-422.4"/>
					</defs>
					<clipPath id="SVGID_14_">
						<use xlink:href="#SVGID_13_"  style="overflow:visible;"/>
					</clipPath>
					<g style="clip-path:url(#SVGID_14_);">
						<g transform="matrix(0.928158,0.122851,-0.117828,0.961485,-244.467,-438.136)">
							<path style="fill-rule:evenodd;clip-rule:evenodd;fill:#005E5E;" d="M-36.2,24.6c0,0-0.1,0-0.1,0.1c-0.1,0.1-0.2,0.3-0.3,0.4
								c-0.3,0.3-0.6,0.6-0.9,0.9c-0.9,0.8-1.8,1.4-2.8,2c-0.9,0.4-1.8,0.8-2.6,1.1c-0.7,0.3-1.3,0.5-2,0.7c-2,0.8-4.1,1.4-5.8,2.8
								c-0.8,0.7-1.2,1.9-0.6,2.9c1,1.6,2.9,2.7,4.7,3.1c3.6,0.9,7,0.9,10.1-1.3c1.2-0.8,2.5-1.7,3-3c0.5-1.2,1-2.7,0.7-4.1
								c-0.2-0.9-0.5-0.8-0.9-1.6c-0.2-0.5,0-1,0-1.5L-36.2,24.6"/>
						</g>
						<g transform="matrix(1.02714,-0.168691,0.162318,1.06747,-375.336,-400.842)">
							<path style="fill-rule:evenodd;clip-rule:evenodd;fill:#0099A8;" d="M75.9-1.2c0.1,0,0.2-0.1,0.4-0.1
								c1.1,0.1,2.5,0.4,3.6,0.8c1,0.4,1.6,1.2,2.7,1.6c0.7,0.2,2.2,0.1,2.8,0.7c0.7,0.6-1,0.7-1.1,0.7c-0.2,0.1-0.4,0.4-0.2,0.5
								c0.3,0.2,0.8,0.2,1.2,0.3c0.8,0.2,3.9,0.7,3.9,2.3c0,0.2-0.1,0.3-0.2,0.4C89,6.2,89,6.8,88.8,7c-0.4,0.4-1.4,0.9-1.9,1.2
								c-1.2,0.6-1.7,0.9-3.1,1C83.2,9.2,82,9,81.4,9c-1.9-0.2-3.1-0.2-4.7-1.2L75.9-1.2"/>
						</g>
					</g>
				</g>
			</g>
		</g>
		<g transform="matrix(0.96164,0,0,0.925308,375.859,186.056)">
			<path style="fill:#008A77;" d="M-353.3-164.9c0.6-1.7-0.3-3.7-1.5-5.7c-2.1-3.6-3.2-5.5-5.3-9.2c3.2-1.9,4.8-2.8,8-4.6
				c1.5,2.7,2.3,4,3.9,6.6c1,1.6,1,3.5,0,5.2C-350.3-169.6-351.3-168-353.3-164.9"/>
			<g>
				<g>
					<defs>
						<path id="SVGID_15_" d="M-353.3-164.9c0.6-1.7-0.3-3.7-1.5-5.7c-2.1-3.6-3.2-5.5-5.3-9.2c3.2-1.9,4.8-2.8,8-4.6
							c1.5,2.7,2.3,4,3.9,6.6c1,1.6,1,3.5,0,5.2C-350.3-169.6-351.3-168-353.3-164.9"/>
					</defs>
					<clipPath id="SVGID_16_">
						<use xlink:href="#SVGID_15_"  style="overflow:visible;"/>
					</clipPath>
					<g style="clip-path:url(#SVGID_16_);">
						<g transform="matrix(0.967195,0.396975,-0.381977,1.00517,-268.749,-339.737)">
							<path style="fill-rule:evenodd;clip-rule:evenodd;fill:#00C299;" d="M-28.4,170c-0.1-0.1,0.5,0,0.5,0
								c0.4,0.1,0.8,0.1,1.2,0.1c1.1,0,2.2-0.1,3.3-0.4c2.6-0.6,5.3-1.1,8-0.9c0.7,0.1,2.4,0.6,2.8,1.1c0.2,0.2,0.2,0.6,0.3,0.9
								c0.6,1.9-1.1,3.3-2.8,3.8c-1.4,0.4-2.7,0.9-4.1,1c-1.3,0.1-2.5,0-3.8,0c-1.7,0.1-4,0.1-5.5-0.9L-28.4,170z"/>
						</g>
						<g transform="matrix(0.992274,0.577663,-0.773563,1.43518,-134.491,-542.094)">
							<path style="fill-rule:evenodd;clip-rule:evenodd;fill:#00AF85;" d="M-21.2,264.3c0.2,0.2,0.5-0.2,0.7-0.2
								c0.9-0.3,1.7-0.6,2.5-0.9c2.5-1,5-2.4,7.7-2.8c0.7-0.1,1.4-0.1,2.1-0.1c1.3,0,2.2,0.2,2.4,1.7c0.2,1.7-0.8,3-2.1,4
								c-2.7,1.9-6,3.5-9.4,2.8C-19.4,268.4-21.8,266.7-21.2,264.3"/>
						</g>
					</g>
				</g>
			</g>
		</g>
		<g transform="matrix(-0.277989,0.103067,-0.0988095,-0.266506,750.574,66.9705)">
			<path style="fill:#008A77;" d="M2197.1,1034.1c0.1,0,0.1,0.1,0.2,0.2l0,0c0.7,1.5,1,3.1,1.1,4.8l0,0.1l0,0.1c0,0,0,0.1,0,0.1
				c0,0.1,0,0.1,0,0.2c0,0,0,0.1,0,0.1c0.6,0.3,1.4,0.4,2,0.5c0.2,0,0.3,0.1,0.5,0.1c1.2,0.2,2.4,0.4,3.4,1c0.2,0.1,0.3,0.2,0.5,0.3
				c0,0,0.4,0.4,0.2,0.5c-0.1,0.1-0.2,0-0.4-0.1c-1-0.2-2.1-0.2-3.1-0.4c-1.2-0.2-2.3-0.7-3.2-1.5c0,0,0,0.1,0,0.1
				c0,0.7-0.1,1.5-0.1,2.2c0,0,0.1,0.3,0.3,0.5c0.8,1,2,1.6,2.9,2.4c0.7,0.7,1.5,1.3,1.9,2.2c0,0,0,0.1,0,0.1c0,0,0,0,0,0
				c0,0,0,0,0,0.1s0,0,0,0.1c0,0.1,0,0.2-0.1,0.2c-0.1,0-0.1-0.1-0.2-0.1c-1.3-1-2.9-1.8-4-3.1c-0.4-0.4-0.7-0.9-0.9-1.4
				c0,0,0,0.2-0.1,0.4c-0.1,0.7-0.3,1.5-0.4,2.2c0.7,1.3,1.8,2.2,2.6,3.3c0.5,0.6,0.9,1.2,1.4,1.8c0.3,0.4,0.6,0.9,0.7,1.4
				c0,0.1,0,0.2,0,0.2c-0.1,0.1-0.1,0.1-0.3,0c-0.1-0.1-0.3-0.3-0.4-0.4c-1.3-1.2-2.7-2.4-3.6-3.9c-0.3-0.5-0.5-1-0.6-1.5v0
				c-0.2,0.8-0.4,1.6-0.6,2.4l-0.1,0.4c0,0.1,0,0.1,0.1,0.3c0,0,0,0.1,0.1,0.1c0,0.1,0.1,0.1,0.1,0.1c0.5,0.8,1.2,1.4,1.7,2.2
				c0.5,0.7,0.9,1.6,1.3,2.4c0,0,0,0,0,0c0.1,0.2,0.1,0.4,0,0.4c-0.1,0.1-0.2-0.1-0.3-0.2c0,0-0.2-0.2-0.4-0.4
				c-1.1-1.3-2.4-2.5-2.7-4.2l0,0c-0.2,1-0.5,2-0.6,2.9l0,0.1c0,0.7,0.1,1.3,0.1,1.9c0.1,1.3,0.2,2.7,0.1,4c0,0.2-0.1,0.5-0.1,0.7
				l-0.1,0.1c0,0,0,0.1-0.1,0.1c-0.1,0-0.1-0.2-0.2-0.3c-0.7-2.1-0.8-4.3-0.3-6.4c0.1-0.6,0.3-1.2,0.6-1.8c0-0.1,0.1-0.2,0.1-0.3
				c0-0.1,0.1-0.2,0.1-0.2c0,0,0,0,0,0.1c-0.9,1.2-2.3,2-3.6,2.7c-0.3,0.2-0.6,0.3-0.9,0.4c-0.1,0-0.1,0-0.1,0c-0.1-0.1,0-0.3,0-0.4
				c0,0,0-0.1,0.1-0.1c0.6-1.2,1.9-1.8,3.2-2.5c0.7-0.4,1.3-0.8,1.8-1.4l0.1-0.3c0,0-0.1-0.1,0-0.1l0,0c0.1-0.6,0.3-1.1,0.4-1.7l0,0
				c0,0,0,0.1,0,0.1c-0.6,0.9-1.5,1.6-2.5,2.1c-0.7,0.4-1.5,0.6-2.3,0.9c-0.1,0-0.1,0-0.2,0.1c-0.1,0-0.2,0-0.2-0.2
				c0-0.2,0-0.2,0.1-0.3c0.1-0.2,0.3-0.4,0.5-0.6c1-1,2.2-1.8,3.5-2.6c0.5-0.3,1.1-0.7,1.5-1.2l0,0c0.1-0.6,0.2-1.1,0.3-1.7l0-0.1
				l0-0.1c-0.8,1.1-2.1,1.7-3.4,2.3c-0.3,0.1-0.5,0.2-0.8,0.4c-0.1,0.1-0.3,0.1-0.4,0.2c-0.1,0.1-0.3,0.1-0.4,0.2
				c-0.1,0.1-0.2,0-0.3-0.1v-0.1c0-0.1,0-0.1,0-0.1c0.3-0.8,1.1-1.2,1.8-1.7c0.9-0.6,1.9-1.1,2.9-1.7c0.3-0.2,0.7-0.5,0.9-0.8l0,0
				c0.1-0.7,0.2-1.4,0.2-2.2c0,0-0.1,0.2-0.2,0.3c-0.5,0.7-1.2,1.2-1.9,1.6c-0.9,0.6-1.8,1.1-2.7,1.6c-0.1,0.1-0.2,0.1-0.2,0.1
				c-0.1,0-0.2,0-0.2-0.1c0-0.1,0.1-0.2,0.1-0.2c1.1-1.4,2.4-2.6,3.9-3.6c0.4-0.3,0.9-0.5,1.2-0.9l0,0c-0.1-1.6-0.4-3.3-1-4.8l0-0.1
				C2197,1034.2,2197,1034.3,2197.1,1034.1C2197.1,1034.2,2197,1034.1,2197.1,1034.1z"/>
		</g>
		<g transform="matrix(0.113786,0.103835,-0.110996,0.119831,295.165,14.9695)">
			<path style="fill:#008A77;" d="M-1213.4,1057.5c-0.1,0-0.1,0-0.2-0.1c-0.2-0.2-0.5-0.3-0.7-0.5l0,0c-1.1-0.9-1.9-2-2.3-3.3
				c-0.4-1.3-0.4-2.7-0.5-3.9c0-0.2,0-0.4,0.3-0.4c0.3,0,0.6,0.2,0.9,0.4c0,0,0.2,0.2,0.4,0.3c1.1,0.8,2,1.9,2.4,3.3
				c0.5,1.5,0.4,3.1,0.4,4.7l0,0.1l0,0.1c0.1,0.3,0.1,0.5,0.2,0.8c0.4-2.1,1.3-4.1,2.9-5.5c0.4-0.4,0.9-0.7,1.5-0.9c0,0,0,0,0.1,0
				s0,0,0,0c0.1,0,0.2,0,0.3,0.2c0.1,0.5,0,1.1-0.1,1.6c0,0-0.1,0.4-0.2,0.7c-0.4,1.7-1.3,3.2-2.7,4.2c-0.5,0.3-1,0.6-1.6,0.8
				c0.2,1.4,0.4,2.8,0.6,4.2c0.7-2.1,2.2-4,4.2-5c0.5-0.3,1-0.5,1.6-0.6c0,0,0,0,0,0c0,0,0.1,0,0.1,0c0,0,0,0,0.1,0s0,0,0.1,0
				c0.1,0,0.2,0,0.3,0.2c0,0.6-0.2,1.2-0.4,1.8c-0.4,1.4-1.2,2.6-2.3,3.5c-0.9,0.7-2,1.1-3.1,1.1c-0.1,0-0.2,0-0.3,0
				c0,0.1,0,0.2,0.1,0.3c0.3,1.7,0.6,3.4,1.2,5.1c0.1-0.3,0.1-0.4,0.2-0.6c0.8-1.8,2.1-3.3,3.7-4.3c0.7-0.4,1.5-0.8,2.3-0.8
				c0,0,0,0,0,0c0.2,0,0.5,0.1,0.5,0.1c0.2,0.2,0.1,0.1,0.1,0.3c-0.6,2-1.8,3.9-3.5,5.1c-0.8,0.6-1.8,0.9-2.8,0.9
				c-0.1,0-0.2,0-0.3,0c0.5,1.3,1.1,2.6,1.9,3.8c0.9,1.4,2.1,2.7,3.4,3.7c0.3,0.2,0.6,0.5,0.9,0.7l0.1,0.2c-0.1,0-0.1,0-0.1,0
				l-0.1,0c-0.3-0.2-0.6-0.4-0.9-0.6l0,0c-1.9-1.5-3.5-3.5-4.6-5.6c0-0.1-0.1-0.1-0.1-0.1c-1.9,1.8-5.1,2.1-7.5,0.6
				c-0.5-0.3-1-0.6-1.4-1c-0.2-0.2,0-0.5,0.3-0.8c0.6-0.6,1.5-0.8,2.4-1c1.1-0.2,2.2-0.3,3.2,0.1c0.9,0.3,1.7,1,2.6,1.3
				c-0.7-1.5-1.2-3.2-1.5-4.8c-0.5,0.5-1.2,0.8-1.9,0.9c-2.5,0.5-5.1-1.1-6.4-2.6c-0.1-0.1-0.7-0.7-0.2-1c0.4-0.2,1-0.2,1.5-0.2
				c1.7,0,3.6,0,5,0.8c0.7,0.3,1.3,0.9,1.8,1.4c-0.4-1.9-0.6-3.9-0.9-5.8c-0.1,0.1-0.2,0.2-0.4,0.2c-2.2,1.2-5.3-0.1-6.5-2.3
				c-0.2-0.5-0.6-1.2,0.1-1.2c0.9,0.1,1.9,0.3,2.9,0.5c1,0.2,2,0.5,2.8,1.1c0.3,0.2,0.6,0.5,0.9,0.8c0,0,0-0.1,0-0.1
				C-1212.8,1059.6-1213.1,1058.5-1213.4,1057.5z"/>
		</g>
		<g transform="matrix(-0.201853,0.0125782,-0.0115437,-0.202147,367.546,192.444)">
			<path style="fill:#006C78;" d="M1731.3,968.5c0.1,0,0.1,0.1,0.2,0.2l0,0c0.7,1.5,1,3.1,1,4.8l0,0.1l0,0.1c0,0,0,0.1,0,0.1
				c0,0.1,0,0.1,0,0.2c0,0,0,0.1,0,0.1c0.6,0.3,1.3,0.4,2,0.5c0.2,0,0.3,0,0.5,0.1c1.2,0.2,2.4,0.4,3.4,1c0.2,0.1,0.3,0.2,0.5,0.3
				c0,0,0.4,0.4,0.2,0.5c-0.2,0.1-0.2,0-0.4,0c-1-0.2-2.1-0.2-3.1-0.5c-1.2-0.2-2.3-0.7-3.2-1.5c0,0,0,0.1,0,0.1
				c0,0.7-0.1,1.5-0.1,2.2c0,0,0.2,0.3,0.3,0.5c0.8,1,2,1.5,2.9,2.4c0.7,0.7,1.5,1.3,1.9,2.2c0,0,0,0.1,0,0.1s0,0,0,0c0,0,0,0,0,0
				c0,0,0,0,0,0c0,0.1,0,0.2-0.1,0.2c-0.1,0-0.2-0.1-0.2-0.1c-1.3-1-2.9-1.8-4-3.1c-0.4-0.4-0.7-0.9-0.9-1.4c0,0,0,0.2-0.1,0.4
				c-0.1,0.7-0.3,1.5-0.4,2.2c0.7,1.3,1.8,2.2,2.7,3.3c0.5,0.6,0.9,1.2,1.4,1.8c0.3,0.4,0.6,0.9,0.7,1.4c0,0.1,0,0.2,0,0.2
				c-0.1,0.1-0.1,0.1-0.3,0c-0.2-0.1-0.3-0.3-0.4-0.4c-1.3-1.2-2.7-2.4-3.6-3.9c-0.3-0.5-0.5-1-0.6-1.5v0c-0.2,0.8-0.4,1.6-0.6,2.4
				l-0.1,0.4c0,0.1,0,0.1,0.1,0.3c0,0,0,0.1,0.1,0.1c0,0,0.1,0.1,0.1,0.1c0.5,0.8,1.2,1.4,1.7,2.2c0.5,0.7,0.9,1.5,1.3,2.4
				c0,0,0,0,0,0c0.1,0.2,0.1,0.4,0,0.5c-0.1,0.1-0.2-0.1-0.3-0.2c0,0-0.2-0.2-0.4-0.4c-1.1-1.3-2.4-2.5-2.7-4.2l0,0
				c-0.2,1-0.5,2-0.7,3l0,0c0,0.7,0.1,1.3,0.1,1.9c0.1,1.3,0.2,2.7,0.1,4c0,0.2-0.1,0.5-0.1,0.7l-0.1,0.1c0,0,0,0.1-0.1,0
				c-0.1,0-0.1-0.2-0.2-0.3c-0.7-2-0.8-4.3-0.3-6.4c0.2-0.6,0.3-1.2,0.6-1.8c0-0.1,0.1-0.2,0.1-0.3c0-0.1,0.1-0.2,0.1-0.2
				c0,0,0,0,0,0c-0.9,1.2-2.3,2-3.6,2.7c-0.3,0.2-0.6,0.3-0.9,0.4c-0.1,0-0.1,0-0.2,0c-0.1-0.1,0-0.3,0-0.4c0,0,0-0.1,0.1-0.1
				c0.6-1.2,1.9-1.8,3.2-2.5c0.7-0.4,1.3-0.8,1.8-1.4l0.1-0.3c0,0-0.1-0.1,0-0.1l0,0c0.1-0.6,0.3-1.1,0.4-1.7l0,0c0,0,0,0,0,0.1
				c-0.6,0.9-1.5,1.6-2.5,2.1c-0.7,0.4-1.5,0.6-2.3,0.9c-0.1,0-0.1,0-0.2,0.1c-0.1,0-0.2,0-0.2-0.2c0-0.2,0-0.2,0.1-0.3
				c0.1-0.2,0.3-0.4,0.5-0.6c1-1,2.2-1.8,3.5-2.6c0.5-0.3,1.1-0.7,1.5-1.2l0,0c0.1-0.5,0.2-1.1,0.3-1.7l0-0.1l0-0.1
				c-0.8,1.1-2.1,1.7-3.4,2.3c-0.3,0.1-0.5,0.2-0.8,0.4c-0.1,0.1-0.3,0.1-0.4,0.2c-0.2,0.1-0.3,0.1-0.4,0.2c-0.1,0-0.2,0-0.3-0.1
				v-0.1c0,0,0-0.1,0-0.1c0.3-0.8,1.1-1.2,1.8-1.7c0.9-0.6,1.9-1,2.8-1.7c0.3-0.2,0.7-0.5,0.9-0.8l0,0c0.1-0.7,0.2-1.5,0.2-2.2
				c0,0-0.1,0.2-0.2,0.3c-0.5,0.7-1.2,1.2-1.9,1.6c-0.9,0.6-1.8,1-2.7,1.6c-0.1,0.1-0.2,0.1-0.2,0.1c-0.1,0-0.2,0-0.2-0.1
				c0-0.1,0.1-0.2,0.1-0.2c1.1-1.4,2.4-2.6,3.9-3.5c0.4-0.3,0.9-0.5,1.2-0.9l0,0c-0.1-1.6-0.4-3.3-1-4.8l0-0.1
				C1731.3,968.6,1731.2,968.7,1731.3,968.5C1731.3,968.5,1731.3,968.5,1731.3,968.5z"/>
		</g>
		<g transform="matrix(0.0536221,0.0943788,-0.0962217,0.0586485,89.5487,45.6142)">
			<path style="fill:#006C78;" d="M-619.5,485.3c-0.1,0-0.1,0-0.2-0.1c-0.2-0.2-0.5-0.3-0.7-0.5l0,0c-1.1-0.9-1.9-2-2.3-3.3
				c-0.4-1.3-0.5-2.6-0.5-3.9c0-0.2,0-0.4,0.3-0.4c0.3,0,0.6,0.2,0.9,0.4c0,0,0.2,0.2,0.4,0.3c1.1,0.9,2,1.9,2.4,3.3
				c0.5,1.5,0.5,3.1,0.4,4.6l0,0.1l0,0.1c0.1,0.3,0.1,0.5,0.2,0.8c0.4-2.1,1.3-4.1,2.9-5.5c0.4-0.4,0.9-0.7,1.5-0.9c0,0,0,0,0,0
				s0,0,0,0c0.1,0,0.2,0,0.3,0.2c0.1,0.5,0,1.1-0.1,1.6c0,0-0.1,0.4-0.2,0.7c-0.4,1.7-1.3,3.2-2.7,4.2c-0.5,0.3-1,0.6-1.6,0.8
				c0.2,1.4,0.4,2.8,0.6,4.2c0.7-2.1,2.2-4,4.2-5c0.5-0.3,1-0.5,1.6-0.5c0,0,0,0,0,0c0,0,0.1,0,0.1,0c0,0,0,0,0.1,0s0,0,0,0
				c0.1,0,0.2,0,0.3,0.2c0,0.6-0.2,1.2-0.5,1.8c-0.4,1.4-1.2,2.6-2.3,3.5c-0.9,0.7-2,1.1-3.1,1.1c-0.1,0-0.2,0-0.3,0
				c0,0.1,0,0.2,0,0.3c0.3,1.7,0.6,3.4,1.2,5.1c0.1-0.3,0.1-0.4,0.2-0.6c0.8-1.8,2.1-3.3,3.7-4.3c0.7-0.4,1.5-0.8,2.3-0.8
				c0,0,0,0,0,0c0.2,0,0.5,0.1,0.5,0.1c0.2,0.2,0.1,0,0,0.3c-0.6,2-1.8,3.9-3.5,5.1c-0.8,0.6-1.8,1-2.8,0.9c-0.1,0-0.2,0-0.3,0
				c0.5,1.3,1.1,2.6,1.9,3.8c0.9,1.4,2,2.7,3.4,3.7c0.3,0.2,0.6,0.5,0.9,0.7l0.1,0.2c0,0,0,0-0.1,0l-0.1,0c-0.3-0.2-0.6-0.4-1-0.6
				l0,0c-1.9-1.5-3.5-3.5-4.6-5.6c0,0,0-0.1-0.1-0.1c-1.9,1.8-5.1,2.1-7.5,0.6c-0.5-0.3-1-0.6-1.4-1c-0.2-0.2,0-0.5,0.3-0.8
				c0.6-0.6,1.5-0.8,2.4-1c1.1-0.2,2.2-0.3,3.2,0.1c0.9,0.4,1.7,1,2.6,1.3c-0.7-1.5-1.2-3.2-1.5-4.8c-0.5,0.5-1.2,0.8-1.9,0.9
				c-2.5,0.5-5.1-1.1-6.4-2.6c0-0.1-0.7-0.7-0.2-1c0.4-0.2,1-0.2,1.5-0.2c1.7,0,3.6,0,5,0.8c0.7,0.4,1.3,0.9,1.8,1.4
				c-0.4-1.9-0.6-3.9-0.9-5.8c-0.1,0.1-0.2,0.2-0.4,0.2c-2.2,1.2-5.3-0.1-6.5-2.3c-0.2-0.5-0.6-1.2,0.1-1.2c0.9,0.1,1.9,0.3,2.9,0.5
				c1,0.2,2,0.5,2.8,1.1c0.3,0.2,0.6,0.5,0.9,0.8c0,0,0-0.1,0-0.1C-618.9,487.4-619.2,486.3-619.5,485.3z"/>
		</g>
		<g transform="matrix(0.812984,0.21056,-0.23879,0.921982,122.209,-13.3902)">
			<path style="fill-rule:evenodd;clip-rule:evenodd;fill:#0098A8;" d="M-106.8,68.8c0,0,0.3-1.9,2-1.8c0.9,0.1,0.8,1.1-0.1,1
				C-105.5,67.9-106.1,67.9-106.8,68.8z"/>
		</g>
		<g transform="matrix(0.828052,-0.449292,0.518803,0.956161,-101.624,105.443)">
			<path style="fill-rule:evenodd;clip-rule:evenodd;fill:#00B3C6;" d="M151.7-10.6c0,0,0.5-1.8,2.2-1.7c1.2,0.1,1.1,1.1,0.2,1
				C153.5-11.3,152.5-11.5,151.7-10.6z"/>
		</g>
		<g transform="matrix(0.504956,0.0587858,-0.0655482,0.563043,108.52,95.5428)">
			<g transform="matrix(0.293906,0,0,0.293906,135.94,278.695)">
				<path style="fill:#2A2A2A;" d="M-1154.9-1307.1c0,0,0.9-4.2,4.4-4.9c1.3-0.2-1.4,1.4,0.8,5.7L-1154.9-1307.1z"/>
			</g>
			<g transform="matrix(0.293906,0,0,0.293906,107.352,326.281)">
				<path style="fill:#2A2A2A;" d="M-1068.1-1463.4c-0.8,1.1-1.3,3.7-1.2,4.2c0.1,0.6,1.4,3.3,2.3,3.3c0.9,0.1,2.7-1.6,3.1-2.1
					c0.4-0.6-2.9-4.8-2.8-5.1C-1066.6-1463.1-1067.9-1463.6-1068.1-1463.4"/>
			</g>
			<g transform="matrix(0.293906,0,0,0.293906,85.7419,336.159)">
				<path style="fill:#2A2A2A;" d="M-1002.4-1496.3c-0.4-0.9,1-8.1,19.4-7c10.4,0.9,17.2,10.7,18.8,16.3c4.9-0.4,7.9,2.5,7.9,2.5
					s-9-1.3-11.3,6.7c-1-4.4,1.8-8.1,1.8-8.1s-0.9-3.3-6.2-4.2c-3.5-0.9-16.3-1.8-18.5-2.9
					C-992.8-1494.2-1001.7-1494.5-1002.4-1496.3"/>
			</g>
			<g transform="matrix(0.293906,0,0,0.293906,167.225,306.005)">
				<path style="fill:#FFFFFF;" d="M-1249.9-1388.8c-3.2-0.6-3.5-1.5-2.7-1.8c1.6-0.5,5.3,1.6,5.1,0.4c-0.2-1.2-3.9-4.2-6.3-3.5
					s-1.8,2.9-3.7,3.7c-4.6,2-11.4-5.4-15-5.9c-2.8-0.4-6,1.6-7.2,2.5c0.3,1.6,8.7,3.7,11,4.2c3.1,0.6,15.2,0.1,21.7,2.5
					C-1247.3-1387.7-1248.2-1388.5-1249.9-1388.8"/>
			</g>
			<g transform="matrix(0.293906,0,0,0.293906,123.111,300.283)">
				<path style="fill:#FFFFFF;" d="M-1115.9-1378.8c0,0-2.1,0.3-3,0.1c-0.9-0.2-3.2,0.4-3.3,0.8s0.1,0.8,1.9,1.2s3.1-0.1,3.8-0.2
					C-1115.2-1377.2-1113.6-1379.3-1115.9-1378.8"/>
			</g>
			<g transform="matrix(0.293906,0,0,0.293906,116.393,323.994)">
				<path style="fill:#2A2A2A;" d="M-1095.5-1456c-0.6,1,0.6,4.4,1,4.9s2.9,2.1,3.7,1.7c0.8-0.4,1.5-2.7,1.5-3.4
					c0-0.7-4.9-2.6-5-2.9L-1095.5-1456z"/>
			</g>
			<g transform="matrix(0.102243,-0.275548,-0.275548,-0.102243,110.462,297.131)">
				<path style="fill:#2A2A2A;" d="M906.7,1485.6c-0.3,0-0.5,0.2-0.5,0.6c0,0.3,0.2,0.6,0.5,0.6c0.3,0,0.5-0.2,0.5-0.6
					C907.3,1485.8,907,1485.6,906.7,1485.6"/>
			</g>
		</g>
		<g transform="matrix(0.668584,0,0,0.668584,138.551,79.5428)">
			<g transform="matrix(1.12296,0,0,1.46345,418.672,300.425)">
				<path style="fill:#F1ECE4;" d="M-503.2-265.8C-503.2-265.8-503.2-265.8-503.2-265.8c-0.1,0-0.2,0-0.3-0.1l-0.2,5.5h0.6
					L-503.2-265.8z"/>
			</g>
			<g transform="matrix(1,0,0,1,414.487,216.289)">
				<path style="fill:#007B92;" d="M-561.3-305.5c0-0.1,0.1-0.1,0.2-0.2c0-0.1,0-0.2,0-0.3c-0.2,0-0.4,0.1-0.5,0.4c0,0,0,0,0,0.1
					C-561.5-305.6-561.4-305.6-561.3-305.5C-561.3-305.5-561.3-305.5-561.3-305.5"/>
			</g>
			<g transform="matrix(1,0,0,1,418.363,221.862)">
				<path style="fill:#007B92;" d="M-564.8-311.2c0.1,0.1,0.1,0.2,0.1,0.3c0,0,0,0,0,0c0.1,0,0.2,0.1,0.3,0.2c0,0,0,0,0,0
					c0.1-0.2,0-0.5-0.2-0.7C-564.6-311.4-564.7-311.3-564.8-311.2"/>
			</g>
			<g transform="matrix(1,0,0,1,417.967,223.006)">
				<path style="fill:#007B92;" d="M-564.4-311.6c0-0.1-0.1-0.2-0.1-0.3c0,0-0.1,0-0.1,0c0,0-0.1-0.1-0.1-0.1
					c-0.1,0-0.2,0.1-0.3,0.2c0.1,0.1,0.2,0.2,0.3,0.2c0,0,0.1,0,0.1,0C-564.6-311.6-564.5-311.6-564.4-311.6"/>
			</g>
			<g transform="matrix(1,0,0,1,416.222,174.257)">
				<path style="fill:#F1EBE4;" d="M-562.9-263.7c0,0,0.1,0,0.2,0c0,0,0,0,0.1,0c0.1-0.1,0.1-0.1,0.2-0.2c0.3-0.4,0.8-1,1.2-1.9
					c0.5-1.2,0.5-2.8,0.5-2.8s-1,1-1.6,2.4c-0.4,0.9-0.5,1.6-0.5,2.1C-562.9-263.9-562.9-263.8-562.9-263.7"/>
			</g>
			<g transform="matrix(1,0,0,1,417.113,260.585)">
				<path style="fill:#F1EBE4;" d="M-563.7-349.5c0,0.1,0,0.2,0.1,0.3c0,0,0,0,0,0.1c0.2,0.5,0.5,1.1,1,1.9c0.8,1,2.2,1.8,2.2,1.8
					s-0.3-1.3-1.3-2.6c-0.5-0.7-1.1-1.2-1.5-1.5c-0.1-0.1-0.2-0.1-0.3-0.2C-563.5-349.5-563.6-349.5-563.7-349.5"/>
			</g>
			<g transform="matrix(1,0,0,1,414.424,228.975)">
				<path style="fill:#F1EBE4;" d="M-561.3-318.2c-0.1,0-0.2,0-0.3-0.1c-0.5-0.1-1.3-0.2-2.3-0.1c-1.3,0.2-2.7,0.9-2.7,0.9
					s1.3,0.4,2.9,0.2c0.9-0.1,1.6-0.4,2.1-0.6c0.1-0.1,0.2-0.1,0.3-0.2C-561.3-318-561.3-318.1-561.3-318.2"/>
			</g>
			<g transform="matrix(1,0,0,1,419.07,220.39)">
				<path style="fill:#FFFFFF;" d="M-565.4-309.4C-565.4-309.4-565.4-309.4-565.4-309.4c0.1-0.1,0-0.2-0.1-0.3c0,0,0,0-0.1,0
					c0,0-0.1,0-0.2,0c-0.1,0-0.2,0.1-0.2,0.2c0,0,0,0,0,0c0,0.1,0,0.2,0,0.2c0,0,0.1,0.1,0.1,0.1c0,0,0.1,0,0.1,0
					C-565.5-309.3-565.5-309.4-565.4-309.4"/>
			</g>
		</g>
		<g transform="matrix(0.696252,0,0,0.696252,82.2449,85.871)">
			<g transform="matrix(1.12296,0,0,1.46345,418.672,300.425)">
				<path style="fill:#F1ECE4;" d="M-432.1-268.2C-432.2-268.2-432.2-268.3-432.1-268.2c-0.1,0-0.2,0-0.3-0.1l-0.2,5.5h0.6
					L-432.1-268.2z"/>
			</g>
			<g transform="matrix(0.327062,0.945003,-0.945003,0.327062,421.776,222.756)">
				<path style="fill:#007B92;" d="M-457.7,358.5c0-0.1,0.1-0.1,0.2-0.2c0-0.1,0-0.2,0-0.3c-0.2,0-0.4,0.1-0.5,0.4c0,0,0,0,0,0.1
					C-457.8,358.5-457.7,358.5-457.7,358.5C-457.7,358.5-457.7,358.5-457.7,358.5"/>
			</g>
			<g transform="matrix(0.327062,0.945003,-0.945003,0.327062,417.777,228.241)">
				<path style="fill:#007B92;" d="M-461.1,352.8c0.1,0.1,0.1,0.2,0.1,0.3c0,0,0,0,0,0c0.1,0,0.2,0.1,0.3,0.2c0,0,0,0,0,0
					c0.1-0.2,0-0.5-0.2-0.7C-461,352.7-461.1,352.8-461.1,352.8"/>
			</g>
			<g transform="matrix(0.327062,0.945003,-0.945003,0.327062,416.566,228.241)">
				<path style="fill:#007B92;" d="M-460.8,352.5c0-0.1-0.1-0.2-0.1-0.3c0,0-0.1,0-0.1,0c0,0-0.1-0.1-0.1-0.1
					c-0.1,0-0.2,0.1-0.3,0.2c0.1,0.1,0.2,0.2,0.3,0.2c0,0,0.1,0,0.1,0C-460.9,352.5-460.9,352.5-460.8,352.5"/>
			</g>
			<g transform="matrix(0.327062,0.945003,-0.945003,0.327062,462.063,210.648)">
				<path style="fill:#F1EBE4;" d="M-459.2,400.4c0,0,0.1,0,0.2,0c0,0,0,0,0.1,0c0.1-0.1,0.1-0.1,0.2-0.2c0.3-0.4,0.8-1,1.2-1.9
					c0.5-1.2,0.5-2.8,0.5-2.8s-1,1-1.6,2.4c-0.4,0.9-0.5,1.6-0.5,2.1C-459.2,400.2-459.2,400.3-459.2,400.4"/>
			</g>
			<g transform="matrix(0.327062,0.945003,-0.945003,0.327062,380.775,239.725)">
				<path style="fill:#F1EBE4;" d="M-460,314.6c0,0.1,0,0.2,0.1,0.3c0,0,0,0,0,0.1c0.2,0.5,0.5,1.1,1,1.9c0.8,1,2.1,1.8,2.1,1.8
					s-0.3-1.3-1.3-2.6c-0.5-0.7-1.1-1.2-1.5-1.5c-0.1-0.1-0.2-0.1-0.3-0.2C-459.8,314.5-459.9,314.6-460,314.6"/>
			</g>
			<g transform="matrix(0.327062,0.945003,-0.945003,0.327062,409.767,226.845)">
				<path style="fill:#F1EBE4;" d="M-457.6,345.8c-0.1,0-0.2,0-0.3-0.1c-0.5-0.1-1.3-0.2-2.3-0.1c-1.3,0.2-2.7,0.9-2.7,0.9
					s1.3,0.4,2.9,0.2c0.9-0.1,1.6-0.4,2.1-0.6c0.1-0.1,0.2-0.1,0.3-0.2C-457.6,346-457.6,345.9-457.6,345.8"/>
			</g>
			<g transform="matrix(0.327062,0.945003,-0.945003,0.327062,419.4,228.428)">
				<path style="fill:#FFFFFF;" d="M-461.8,354.6C-461.8,354.6-461.8,354.6-461.8,354.6c0.1-0.1,0-0.2-0.1-0.3c0,0,0,0-0.1,0
					c0,0-0.1,0-0.2,0c-0.1,0-0.1,0.1-0.2,0.2c0,0,0,0,0,0c0,0.1,0,0.2,0,0.2c0,0,0.1,0.1,0.1,0.1c0,0,0.1,0,0.1,0
					C-461.9,354.8-461.8,354.7-461.8,354.6"/>
			</g>
		</g>
		<g transform="matrix(1,0,0,1,244.479,254.184)">
			<path style="fill:#FBDE9C;" d="M-221.1-229.5h1.1c0.1,0,0.2,0.1,0.3,0.1c0.1-0.1,0.1-0.3,0.1-0.6c0-0.9,1.9-1.6,1.9-3.7
				c0-1.7-1.4-3.1-3.1-3.1s-3.1,1.4-3.1,3.1c0,2.2,1.9,2.8,1.9,3.7c0,0.2,0,0.4,0.1,0.5c0.1,0,0.1-0.1,0.2-0.1L-221.1-229.5
				L-221.1-229.5z"/>
		</g>
		<path style="fill-rule:evenodd;clip-rule:evenodd;fill:#FFFFFF;" d="M23.4,17.7L23.4,17.7L23.4,17.7L23.4,17.7L23.4,17.7h0.1h0h0
			l0,0l0,0l0,0l0,0l0,0l0,0l0,0l0,0l0,0l0,0l0,0l0,0l0,0l0,0l0,0l0,0l0,0v0v0v0v0v0v0v0v0l0,0l0,0l0,0l0,0l0,0l0,0l0,0l0,0l0,0l0,0
			l0,0l0,0l0,0l0,0l0,0l0,0l0,0h0h0h0h0h0h0h0h0h0h0h0h0h0h0h0h0h0h0h0h0h0h0h0h0h0h0h0h0h0h0h0h0h0h0h0h0h0h0h0h0h0h0h0h0h0h0h0h0
			l0,0l0,0l0,0l0,0l0,0l0,0l0,0l0,0l0,0l0,0l0,0l0,0l0,0l0,0l0,0l0,0l0,0l0,0l0,0l0,0l0,0l0,0l-0.2,0l0,0l0,0l0,0l0,0l0,0l0,0l0,0
			l0,0l0,0l0,0l0,0l0,0l0,0l0,0l0,0l0,0l0,0l0,0l0,0l0,0l0,0l0,0l0,0l0,0l0,0l0,0l0,0l0,0l0,0l0,0l0,0l0,0l0,0l0,0l0,0l0,0l0,0l0,0
			l0,0l0,0l0,0l0,0l0,0l0,0l0,0l0,0l0,0l0,0l0,0l0,0l0,0l0,0l0,0l0,0l0,0l0,0l0,0l0,0l0,0l0,0l0,0l0,0l0,0l0,0l0,0l0,0l0,0l0,0l0,0
			l0,0l0,0l0,0l0,0l0,0l0,0l0,0l0,0l0,0l0,0l0,0l0,0l0,0l0,0l0,0l0,0l0,0l0,0l0,0l0,0l0,0l0,0l0,0l0,0l0,0l0,0l0,0l0,0l0,0l0,0l0,0
			l0,0v0v0v0v0v0v0v0v0v0v0v0v0v0v0v0v0v0v0v0v0v0v0v0v0v0v0v0v0v0v0v0v0v0v0v0v0v0v0v0v0v0v0v0v0v0v0v0v0v0v0v0v0v0v0v0v0v0v0v0v0
			v0v0v0v0v0v0v0v0v0v0v0v0v0v0v0v0v0v0v0v0v0v0v0v0v0v0v0v0v0l0,0v0v0v0v0v0v0v0v0v0l0,0l0,0l0,0l0,0l0,0l0,0l0,0l0,0l0,0l0,0l0,0
			l0,0l0,0l0,0l0,0l0,0h0h0h0h0h0h0h0h0h0l0,0l0,0l0,0l0,0l0,0l0,0l0,0l0,0l0,0l0,0l0,0l0,0l0,0l0,0l0,0l0,0l0,0l0,0l0,0l0,0l0,0
			l0,0l0,0v0v0v0v0v0v0L21,21v0v0v0v0v0v0v0v0v0v0v0v0v0v0v0v0v0v0v0v0v0v0v0v0v0v0v0v0v0v0v0v0v0v0v0v0v0v0v0v0v0v0v0v0v0v0v0v0v0
			v0v0v0v0v0v0v0v0v0v0v0v0v0v0l0,0l0,0l0,0l0,0l0,0l0,0l0,0l0,0l0,0l0,0l0,0l0,0l0,0l0,0l0,0l0,0l0,0l0,0l0,0l0,0l0,0l0,0l0,0l0,0
			l0,0l0,0l0,0l0,0l0,0l0,0l0,0l0,0l0,0l0,0l0,0l0,0l0,0l0,0l0,0l0,0l0,0l0,0l0,0l0,0l0,0l0,0l0,0l0,0l0,0l0,0l0,0l0,0l0,0l0,0l0,0
			l0,0l0,0l0,0l0,0l0,0l0,0l0,0l0,0l0,0l0,0l0,0l0,0l0,0l0,0l0,0l0,0l0,0l0,0l0,0l0,0l0,0l0,0l0,0l0,0l0,0l0,0l0,0l0,0l0,0l0,0l0,0
			l0,0l0,0l0,0l0,0l0,0l0,0l0,0l0,0l0,0l0,0l0,0l0,0l0,0l0,0l0,0l0,0l0,0l0,0l0,0l0,0l0,0l0,0l0,0l0,0l0,0l0,0l0,0l0,0l0,0l0,0l0,0
			l0,0l0,0.1l0,0l0,0l0,0l0,0l0,0l0,0l0,0l0,0l0,0l0,0l0,0l0,0l0,0l0,0l0,0l0,0l0,0l0,0l0,0l0,0l0,0l0,0l0,0l0,0l0,0l0,0l0,0l0,0h0
			h0h0h0h0h0h0h0h0h0h0h0h0h0h0h0h0h0L23.4,17.7L23.4,17.7L23.4,17.7L23.4,17.7L23.4,17.7L23.4,17.7L23.4,17.7L23.4,17.7L23.4,17.7z
			"/>
		<path style="fill-rule:evenodd;clip-rule:evenodd;fill:#FFFFFF;" d="M21.8,21.9L21.8,21.9L21.8,21.9L21.8,21.9L21.8,21.9
			L21.8,21.9L21.8,21.9L21.8,21.9L21.8,21.9L21.8,21.9L21.8,21.9h0.1h0h0h0h0h0h0h0h0h0h0h0h0h0h0h0h0h0h0h0h0h0l0,0l0,0v0v0v0v0v0
			v0v0v0v0v0v0v0v0v0v0v0v0l0,0v0v0v0l0,0l0,0l0,0l0,0l0,0l0,0l0,0l0,0l0,0l0,0l0,0l0,0l0,0l0,0l0,0l0,0l0,0l0,0l0,0l0,0l0,0l0,0
			l0,0l0,0l0,0l0,0l0,0l0,0v0v0v0v0v0v0v0v0v0v0v0v0v0v0v0v0v0v0v0v0v0v0v0v0v0v0v0v0v0v0v0v0v0v0v0v0v0v0v0v0v0v0v0v0v0v0v0v0v0v0
			v0v0v0v0v0v0v0v0v0v0v0l0,0l0,0l0,0h0h0h0h0h0h0h0h0h0h0h0h0h0h0h0h0h0h0h0h0h0h0h0h0h0h0h0h0h0h0h0h0h0h0h0h0h0h0h0h0h0h0h0h0h0
			h0h0h0h0h0h0h0h0h0h0h0h0h0h0h0h0h0h0h0h0l0,0l0,0v0v0v0l0,0l0,0l0,0l0,0l0,0l0,0l0,0l0,0l0,0l0,0l0,0l0,0l0,0l0,0l0,0l0,0l0,0
			l0,0l0,0l0,0l0,0l0,0l0,0l0,0l0,0l0,0l0,0l0,0l0,0l0,0l0,0l0,0v0v0v0v0v0v0v0v0v0v0v0v0v0v0v0v0v0v0v0v0v0v0v0v0v0v0v0v0v0v0v0v0
			v0v0v0v0v0v0v0v0v0v0v0v0v0v0v0l0,0l0,0l0,0h0h0h0h0h0h0h0h0h0h0h0h0h0h0h0h0h0h0h0h0h0h0h0h0h0h0h0L21.8,21.9L21.8,21.9
			L21.8,21.9L21.8,21.9L21.8,21.9L21.8,21.9z"/>
		<g transform="matrix(0.144383,0,0,0.160523,398.61,139.372)">
			<path style="fill:#FFFFFF;" d="M-2493.8-800.6c-0.3,0-0.6,0-0.9,0c-1.5,0-2.9,0.2-4.2,0.7c-2.6,0.9-5.5,0.1-7.1-2.2
				c-2.7-3.9-7.3-6.5-12.4-6.5c-5.1,0-9.5,2.5-12.3,6.3c-1.6,2.2-4.3,3.1-6.8,2.3c-1.2-0.4-2.4-0.6-3.7-0.6c-0.3,0-0.6,0-0.9,0
				c-3.5,0.2-5.4,2.8-5.6,5.4h59.4C-2488.4-797.8-2490.3-800.3-2493.8-800.6"/>
		</g>
		<g transform="matrix(0.144383,0,0,0.160523,115.64,256.419)">
			<path style="fill:#FFFFFF;" d="M-744.7-1451.3c-0.3,0-0.6,0-0.8,0c-1.5,0-2.9,0.2-4.2,0.7c-2.6,0.9-5.5,0.1-7.1-2.2
				c-2.7-3.9-7.3-6.5-12.4-6.5c-5,0-9.5,2.5-12.3,6.3c-1.6,2.2-4.3,3.1-6.8,2.3c-1.2-0.4-2.4-0.6-3.7-0.6c-0.3,0-0.6,0-0.8,0
				c-3.5,0.2-5.4,2.8-5.6,5.4h59.4C-739.3-1448.6-741.2-1451.1-744.7-1451.3"/>
		</g>
		<g transform="matrix(0.132205,0,0,0.146984,355.982,104.8)">
			<path style="fill:#FFFFFF;" d="M-2435.7-664.6c-0.3,0-0.6,0-0.9,0c-1.5,0-2.9,0.2-4.2,0.7c-2.6,0.9-5.5,0.1-7.1-2.2
				c-2.7-3.9-7.3-6.5-12.4-6.5c-5.1,0-9.5,2.5-12.3,6.3c-1.6,2.2-4.3,3.1-6.8,2.3c-1.2-0.4-2.4-0.6-3.7-0.6c-0.3,0-0.6,0-0.9,0
				c-3.5,0.2-5.4,2.8-5.6,5.4h59.4C-2430.4-661.9-2432.2-664.4-2435.7-664.6"/>
		</g>
		<g transform="matrix(0.132205,0,0,0.146984,165.537,214.37)">
			<path style="fill:#FFFFFF;" d="M-1150.1-1329.9c-0.3,0-0.6,0-0.8,0c-1.5,0-2.9,0.2-4.2,0.7c-2.6,0.9-5.5,0.1-7.1-2.2
				c-2.7-3.9-7.3-6.5-12.4-6.5c-5.1,0-9.5,2.5-12.3,6.3c-1.6,2.2-4.3,3.1-6.8,2.3c-1.2-0.4-2.4-0.6-3.7-0.6c-0.3,0-0.6,0-0.8,0
				c-3.5,0.2-5.4,2.8-5.6,5.4h59.4C-1144.8-1327.2-1146.6-1329.7-1150.1-1329.9"/>
		</g>
		<g transform="matrix(1,0,0,1,259.469,288.921)">
			<path style="fill:#003939;" d="M-235.9-261.7c0.4,0,0.8-0.3,0.9-0.7h-1.8C-236.7-262-236.3-261.7-235.9-261.7"/>
		</g>
		<g transform="matrix(1,0,0,1,257.927,225.69)">
			<path style="fill:#00C299;" d="M-234.5-200.3h1.1c0.1,0,0.1,0,0.1,0c0.1-0.1,0.1-0.2,0.1-0.3v0c0-0.1,0-0.2-0.1-0.2
				c-0.1-0.1-0.2-0.1-0.3-0.1h-0.7v-2.5c0.2-0.7,1-0.5,1.2-2.5c0,0-1.2,0.7-1.4,2c0,0,0-0.6-1.2-1.2c0,0,0.4,0.7,0.4,1.1
				s0.5,0.6,0.5,0.6v2.5h-0.7c-0.1,0-0.1,0-0.2,0.1c-0.1,0.1-0.2,0.2-0.2,0.3v0c0,0.1,0.1,0.2,0.2,0.3c0.1,0,0.1-0.1,0.2-0.1
				L-234.5-200.3L-234.5-200.3z"/>
		</g>
		<g transform="matrix(1,0,0,1,271.806,280.921)">
			<path style="fill:#003939;" d="M-246.9-255.2c0-0.1-0.1-0.2-0.2-0.3c-0.1,0-0.1,0-0.1,0h-0.8h-0.3h-0.8c-0.1,0-0.1,0-0.2,0.1
				c-0.1,0.1-0.2,0.2-0.2,0.3c0,0.1,0.2,0.3,0.4,0.3h1.9C-247.1-254.9-246.9-255.1-246.9-255.2"/>
		</g>
		<g transform="matrix(1,0,0,1,250.603,288.921)">
			<path style="fill:#00C299;" d="M-228-262.9c-0.2,0-0.4,0.1-0.4,0.3s0.2,0.3,0.4,0.3h1.9c0.2,0,0.4-0.1,0.4-0.3s-0.2-0.3-0.4-0.3
				H-228z"/>
		</g>
	</g>
</g>
<text transform="matrix(1 0 0 1 41.9287 39.5009)" style="fill:#003939; font-family:'MyriadPro-Regular'; font-size:53px;">BIOLETA</text>
</svg>
