<?xml version="1.0" encoding="utf-8"?>
<!-- Generator: Adobe Illustrator 25.1.0, SVG Export Plug-In . SVG Version: 6.00 Build 0)  -->
<svg version="1.1" id="Layer_1" xmlns="http://www.w3.org/2000/svg" xmlns:xlink="http://www.w3.org/1999/xlink" x="0px" y="0px"
	 width="44px" height="44px" viewBox="0 0 44 44" style="enable-background:new 0 0 44 44;" xml:space="preserve">
<g>
	<rect x="-4.25" y="-4.28" style="display:none;fill:#FFFFFF;" width="53.64" height="53.64"/>
	<g id="OBJECTS_1_">
		<g transform="matrix(0.96164,0,0,0.925308,196.349,225.001)">
			<path style="fill:#006C78;" d="M-186.71-216.15c-1.78-3.4-2.69-5.11-4.48-8.5c-3.8-0.11-5.69-0.16-9.39-0.2
				c1.17,0.74,1.76,1.1,2.93,1.83c-0.29,0.52-0.43,0.77-0.72,1.3c-2.62,4.68-0.42,8.29,4.49,8.37c1.26,0.02,2.66,0.07,4.29,0.12
				c-1.44-0.19-2.24-1.01-1.54-2.2c0.59-1.03,0.89-1.54,1.49-2.56C-188.47-217.25-187.88-216.88-186.71-216.15"/>
			<g>
				<defs>
					<path id="SVGID_1_" d="M-186.71-216.15c-1.78-3.4-2.69-5.11-4.48-8.5c-3.8-0.11-5.69-0.16-9.39-0.2
						c1.17,0.74,1.76,1.1,2.93,1.83c-0.29,0.52-0.43,0.77-0.72,1.3c-2.62,4.68-0.42,8.29,4.49,8.37c1.26,0.02,2.66,0.07,4.29,0.12
						c-1.44-0.19-2.24-1.01-1.54-2.2c0.59-1.03,0.89-1.54,1.49-2.56C-188.47-217.25-187.88-216.88-186.71-216.15"/>
				</defs>
				<clipPath id="SVGID_2_">
					<use xlink:href="#SVGID_1_"  style="overflow:visible;"/>
				</clipPath>
				<g style="clip-path:url(#SVGID_2_);">
					<g transform="matrix(1.03989,0,0,1.08072,-204.181,-243.163)">
						<path style="fill-rule:evenodd;clip-rule:evenodd;fill:#0098A8;" d="M15.24,20.93c0.01,0.02,0.02-0.08,0-0.07
							c-0.25,0.05-0.47,0.17-0.72,0.2c-0.49,0.07-0.98,0.08-1.48,0.09c-1.66,0.04-3.34-0.13-4.98,0.23
							c-0.17,0.04-0.34,0.11-0.5,0.19c-0.16,0.08-0.32,0.18-0.46,0.3c-0.31,0.29,0.07,0.52,0.33,0.59c0.52,0.14,1.05,0.21,1.56,0.36
							c0.28,0.08,0.9,0.47,0.64,0.6c-0.63,0.3-1.02,0.22-1.69,0.2c-1.44-0.05-3.07-0.29-4.48,0.18c-0.53,0.17-1.99,0.64-1.78,1.57
							c0.29,1.28,2.15,2.51,3.34,2.83c3.77,1.02,7.22,0.48,10.99-0.13c1.2-0.2,2.64-0.14,3.72-0.81c1.41-0.88,3.46-2.84,1.89-4.59
							C21.32,22.33,21,22,20.62,21.74c-0.37-0.26-0.79-0.45-1.22-0.59L15.24,20.93"/>
					</g>
				</g>
			</g>
		</g>
		<path style="fill:#0099A8;" d="M5.19,26.54c1.05,1.27,3.23,1.62,5.48,1.71c4.03,0.16,6.05,0.2,10.11,0.2
			c-0.01,3.53-0.02,5.29-0.04,8.82c-2.96-0.01-4.44-0.05-7.38-0.23c-1.87-0.12-3.54-1.2-4.42-2.89C7.44,31.05,6.69,29.52,5.19,26.54
			"/>
		<g>
			<defs>
				<path id="SVGID_3_" d="M5.19,26.54c1.05,1.27,3.23,1.62,5.48,1.71c4.03,0.16,6.05,0.2,10.11,0.2c-0.01,3.53-0.02,5.29-0.04,8.82
					c-2.96-0.01-4.44-0.05-7.38-0.23c-1.87-0.12-3.54-1.2-4.42-2.89C7.44,31.05,6.69,29.52,5.19,26.54"/>
			</defs>
			<clipPath id="SVGID_4_">
				<use xlink:href="#SVGID_3_"  style="overflow:visible;"/>
			</clipPath>
			<g transform="matrix(0.991208,-0.326795,0.39057,1.2795,-211.564,-453.708)" style="clip-path:url(#SVGID_4_);">
				<path style="fill-rule:evenodd;clip-rule:evenodd;fill:#00B4C6;" d="M62,391c0.12-0.02,0.18-0.18,0.3-0.19
					c0.42-0.05,0.87,0.9,1.04,1.05c0.81,0.74,1.99,1.52,2.97,2.04c1.23,0.65,2.23,1.01,3.55,1.44c1.23,0.4,1.69,0.39,2.84,1
					c1.72,0.91,2.86,2.56,4.57,3.49c0.54,0.29,2.19,0.9,2.87,1.41c0.31,0.24,0.77,0.62,0.84,1.06c0.12,0.83-1.03,1.67-1.78,1.76
					c-2.31,0.27-4.54-0.55-6.69-1.28c-2-0.67-3.5-1.29-5.35-2.28c-2.5-1.34-4.46-3.27-6.29-5.37L62,391"/>
			</g>
		</g>
		<g transform="matrix(0.96164,0,0,0.925308,254.497,83.902)">
			<path style="fill:#003939;" d="M-240.68-73.38c3.83-0.12,5.77-0.19,9.61-0.32c1.76-3.37,2.63-5.05,4.28-8.36
				c-1.17,0.73-1.76,1.1-2.93,1.83c-0.34-0.49-0.51-0.73-0.85-1.21c-3.07-4.4-7.28-4-9.49,0.39c-0.56,1.13-1.22,2.36-1.98,3.8
				c0.8-1.21,1.89-1.58,2.65-0.42c0.67,0.98,1,1.48,1.65,2.46C-238.92-74.48-239.5-74.11-240.68-73.38"/>
			<g>
				<defs>
					<path id="SVGID_5_" d="M-240.68-73.38c3.83-0.12,5.77-0.19,9.61-0.32c1.76-3.37,2.63-5.05,4.28-8.36
						c-1.17,0.73-1.76,1.1-2.93,1.83c-0.34-0.49-0.51-0.73-0.85-1.21c-3.07-4.4-7.28-4-9.49,0.39c-0.56,1.13-1.22,2.36-1.98,3.8
						c0.8-1.21,1.89-1.58,2.65-0.42c0.67,0.98,1,1.48,1.65,2.46C-238.92-74.48-239.5-74.11-240.68-73.38"/>
				</defs>
				<clipPath id="SVGID_6_">
					<use xlink:href="#SVGID_5_"  style="overflow:visible;"/>
				</clipPath>
				<g style="clip-path:url(#SVGID_6_);">
					<g transform="matrix(0.265278,0,0,0.30577,-13.2921,28.7178)">
						<path style="fill-rule:evenodd;clip-rule:evenodd;fill:#007476;" d="M-866.08-341.81c0,0,22.9-0.07,30.42-15.73l8.02,4.72
							l1.08-7.09c0,0,11.8,0.96,22.58,15.07l-1.06,11.98h-60.62L-866.08-341.81z"/>
						<g>
							<defs>
								<path id="SVGID_7_" d="M-866.08-341.81c0,0,22.9-0.07,30.42-15.73l8.02,4.72l1.08-7.09c0,0,11.8,0.96,22.58,15.07
									l-1.06,11.98h-60.62L-866.08-341.81z"/>
							</defs>
							<clipPath id="SVGID_8_">
								<use xlink:href="#SVGID_7_"  style="overflow:visible;"/>
							</clipPath>
							<g style="clip-path:url(#SVGID_8_);">
								<g transform="matrix(1,0,0,1.03052,0,-8.98933)">
									<path style="fill-rule:evenodd;clip-rule:evenodd;fill:#006566;" d="M-836.03-339.3c0-0.07,0,0.3,0,0.39
										c0,0.31,0.05,0.6,0.05,0.92c0,0.96-0.13,2.09-0.29,3.04c-0.48,2.88-1.56,5.77-3.57,7.96c-4.6,5.02-11.82,8.37-18.47,9.55
										c-2.66,0.47-6.65,0.51-8.34-2.03c-1.78-2.67,1.37-5.37,3.42-6.46c1.89-1,4.09-1.58,6.12-2.22
										c3.79-1.2,7.57-2.36,11.14-4.15c2.24-1.12,4.44-2.65,6.32-4.29c1.17-1.02,2.53-2.43,3.91-2.89"/>
								</g>
								<g transform="matrix(0.937692,0.358073,-0.415607,1.1558,56.5318,-133.773)">
									<path style="fill-rule:evenodd;clip-rule:evenodd;fill:#006566;" d="M-904.26,89.78c0.09,0,0.14,0.53,0.18,0.63
										c0.18,0.49,0.49,0.95,0.78,1.38c0.08,0.11,0.23,0.39,0.42,0.3c0.5-0.25,0.65-1.48,0.75-1.95c0.37-1.65,0.59-3.52-0.18-5.07
										c-0.27-0.54-0.26-1.24-0.84-1.53c-0.23-0.11-2.44-0.55-2.46-0.45c-0.25,1.26,1.65,4.02,1.65,5.31
										c0,0.36-0.01,0.92-0.12,1.26c-0.03,0.1-0.12,0.6-0.09,0.57"/>
								</g>
								<g transform="matrix(1,0,0,1.03052,0,-8.98933)">
									<path style="fill-rule:evenodd;clip-rule:evenodd;fill:#006566;" d="M-863.66-316.61c0.37,0,1.1,0.41,1.65,0.44
										c2.47,0.15,4.95-0.26,7.4-0.4c4.14-0.24,8.24-0.38,12.31-1.25c4.38-0.93,9.08-2.15,12.68-4.98
										c2.38-1.87,4.32-4.18,6.41-6.27c0.05-0.05,0.52,0.15,0.59,0.18c0.49,0.25,1.14,0.58,1.69,0.73
										c3.15,0.9,5.76,2.84,8.54,4.51c2.18,1.31,4.64,2.11,6.27,4.14c0.58,0.73,1.4,1.29,1.54,2.27c0.58,4.04-5.33,4.03-7.88,4.14
										c-0.77,0.03-1.54,0.07-2.31,0.07h-2.67c-5.39,0-10.77-0.22-16.16-0.04c-4.11,0.14-8.15,0.71-12.24,1.03
										c-2.94,0.23-5.88,0.29-8.83,0.4c-0.68,0.03-1.37,0.04-2.05,0.11c-0.65,0.07-1.29,0.13-1.94,0.18
										c-1.82,0.16-4.45,0.68-5.68-0.95c-0.45-0.61-0.84-1.28-0.48-2.02"/>
									<g>
										<defs>
											<path id="SVGID_9_" d="M-863.66-316.61c0.37,0,1.1,0.41,1.65,0.44c2.47,0.15,4.95-0.26,7.4-0.4
												c4.14-0.24,8.24-0.38,12.31-1.25c4.38-0.93,9.08-2.15,12.68-4.98c2.38-1.87,4.32-4.18,6.41-6.27
												c0.05-0.05,0.52,0.15,0.59,0.18c0.49,0.25,1.14,0.58,1.69,0.73c3.15,0.9,5.76,2.84,8.54,4.51
												c2.18,1.31,4.64,2.11,6.27,4.14c0.58,0.73,1.4,1.29,1.54,2.27c0.58,4.04-5.33,4.03-7.88,4.14
												c-0.77,0.03-1.54,0.07-2.31,0.07h-2.67c-5.39,0-10.77-0.22-16.16-0.04c-4.11,0.14-8.15,0.71-12.24,1.03
												c-2.94,0.23-5.88,0.29-8.83,0.4c-0.68,0.03-1.37,0.04-2.05,0.11c-0.65,0.07-1.29,0.13-1.94,0.18
												c-1.82,0.16-4.45,0.68-5.68-0.95c-0.45-0.61-0.84-1.28-0.48-2.02"/>
										</defs>
										<clipPath id="SVGID_10_">
											<use xlink:href="#SVGID_9_"  style="overflow:visible;"/>
										</clipPath>
										<g style="clip-path:url(#SVGID_10_);">
											<path style="fill-rule:evenodd;clip-rule:evenodd;fill:#00A99E;" d="M-823.76-329.89c-0.14-0.09,0.27,0.49,0.33,0.56
												c0.28,0.32,0.54,0.67,0.81,0.99c0.42,0.5,0.88,0.98,1.21,1.56c0.34,0.6,0.55,1.28,1.04,1.77c0.87,0.88,1.86,1.89,3,2.4
												c0.97,0.44,2,0.67,2.98,1.11c1.43,0.65,2.42,2.01,3.74,2.82c1.23,0.75,2.72,0.72,4.08,0.76c0.25,0.01,1.47,0,1.5-0.43
												c0.03-0.38-0.57-1.07-0.75-1.38c-0.78-1.37-1.47-2.59-2.75-3.57c-3.44-2.64-7.05-4.91-11.33-5.9
												c-0.5-0.12-0.97-0.35-1.49-0.41c-0.4-0.05-0.81,0.03-1.2-0.06c-0.57-0.13-0.95-0.34-1.55-0.2"/>
										</g>
									</g>
								</g>
								<g transform="matrix(1,0,0,1.03052,0,-8.98933)">
									<path style="fill-rule:evenodd;clip-rule:evenodd;fill:#00A99E;" d="M-835.64-338.5c-0.03-0.03,0.25,0.69,0.32,0.84
										c0.27,0.54,0.6,1.14,1,1.6c0.97,1.09,1.86,2.13,2.98,3.06c0.45,0.37,0.92,0.8,1.48,0.99c0.53,0.18,1.55,0.9,1.97,0.16
										c0.7-1.22,0.02-5.18-0.93-6.1c-0.52-0.51-1.41,1.3-2.01,0.88c-0.41-0.29-0.85-0.54-1.28-0.8c-0.62-0.37-1.4-0.94-2.11-1.08
										c-0.59-0.12-1.2,0.45-1.72,0.24"/>
								</g>
								<g transform="matrix(1,0,0,1.03052,0,-8.98933)">
									<path style="fill-rule:evenodd;clip-rule:evenodd;fill:#00A99E;" d="M-826.75-341.13c-0.23,0.28,0.71,0.95,0.98,1.13
										c1.33,0.91,2.89,1.39,4.21,2.34c0.79,0.57,1.51,1.23,2.3,1.8c0.88,0.64,1.82,1.19,2.74,1.78c0.99,0.64,1.99,1.3,3.12,1.67
										c0.16,0.05,0.3,0.15,0.46,0.2c0.66,0.22,2.39,0.53,2.77-0.37c0.11-0.25-0.15-0.7-0.27-0.91c-0.42-0.75-1.2-1.46-1.79-2.1
										c-1.69-1.85-3.79-3.37-5.95-4.63c-1.04-0.61-2.09-1.2-3.29-1.43c-1.23-0.23-2.78-0.77-4.03-0.49
										c-0.49,0.11-0.89,0.11-1.22,0.51c-0.1,0.12-0.16,0.35-0.11,0.5c0.01,0.04,0.07,0.24,0.12,0.18"/>
								</g>
								<g transform="matrix(1,0,0,1.03052,0,-8.98933)">
									<path style="fill:#006566;" d="M-823.68-336.48c0.49,0.01,0.92,0.53,1.36,0.86c1.16,0.89,2.16,1.96,3.29,2.92
										c3.14,2.67,5.77,5.9,8.2,9.24l0.05,0.06c0.57,0.8,1.13,1.61,1.68,2.42l0.03,0.15c0,0-0.07,0.12-0.08,0.13l-0.15,0.03
										l-0.13-0.08c-3.02-4.19-6.15-8.41-10.21-11.82c-1.02-0.86-1.93-1.86-2.97-2.7c-0.34-0.28-0.64-0.64-1.03-0.8
										c-0.17-0.07-0.07-0.02-0.07-0.02l-0.14-0.04l-0.07-0.13l0.04-0.14C-823.88-336.4-823.77-336.48-823.68-336.48z
										 M-813.03-328.92c0.21,0.02,0.38,0.22,0.38,0.22c0.14,0.06,0.12,0.1,0.16,0.15c0.5,0.83,1.12,1.42,1.68,2.18
										c0.37,0.51,0.73,1.04,1.06,1.58c0,0,0.42,0.62,0.75,1.13c0.32,0.51,0.62,1.02,0.96,1.53l0.03,0.15c0,0-0.07,0.12-0.08,0.13
										c0,0-0.16-0.01-0.15,0.05c0,0,0.02,0.2-0.12,0.27c-0.23,0.11-0.49-0.24-0.67-0.51l-0.16-0.26l-0.05-0.09l-0.06-0.02
										c-0.11-0.17-0.1-0.24-0.1-0.24c-0.87-1.41-1.71-2.83-2.61-4.23c-0.09-0.13-0.12-0.17-0.18-0.25
										c-0.28-0.36-0.58-0.69-0.71-1.12l-0.14-0.13c-0.13-0.12-0.25-0.24-0.21-0.41l0.18-0.15
										C-813.04-328.92-813.04-328.92-813.03-328.92z M-811.29-329.78c0.36,0.02,0.65,0.42,0.84,0.82
										c0.23,0.3,0.51,0.83,0.04,0.96c-0.5,0.14-1.05-0.7-1.17-1.3C-811.63-329.5-811.59-329.79-811.29-329.78z"/>
								</g>
								<g transform="matrix(1,0,0,1.03052,0,-8.98933)">
									<path style="fill:#006566;" d="M-833.71-330.9l0.13,0.06l0.06,0.13c0,2.65-0.35,5.28-1.45,7.73
										c-1.1,2.46-3.01,4.49-5.43,5.8c-1.56,0.84-3.26,1.45-4.97,1.86c-0.69,0.17-1.39,0.23-2.11,0.18l-0.32-0.06
										c-0.26-0.11-0.23-0.14-0.23-0.14l0.03-0.23c0.11-0.1,0.05-0.06,0.18-0.06l0.12-0.03c0.04,0,0.08,0,0.12,0
										c0.19,0,0.21,0,0.29,0c0.83,0.02,1.66-0.17,2.45-0.4c2.33-0.69,4.68-1.58,6.59-3.24c2.38-2.06,3.7-5.22,4.14-8.3
										c0.15-1.04,0.21-2.08,0.21-3.13l0.06-0.13C-833.85-330.84-833.73-330.9-833.71-330.9z M-847.82-315.22 M-823.36-327.45
										l0.07,0.13c0.04,0.5-0.45,0.87-0.73,1.32c-1.34,2.15-3.2,3.94-5.36,5.39c-1.29,0.86-2.68,1.59-4.09,2.24
										c-0.03,0.01-0.06,0.03-0.09,0.04c-0.97,0.46-1.9,1.04-2.91,1.41c-0.25,0.09-0.52,0.17-0.78,0.23l-0.16-0.02
										c0,0-0.1-0.12-0.1-0.13l0.02-0.16l0.13-0.1c1.47-0.42,2.78-1.3,4.15-1.95c3.16-1.5,6.22-3.51,8.1-6.11
										c0.37-0.51,0.7-1.06,1.08-1.55c0.13-0.17,0.28-0.34,0.34-0.54c0.02-0.06,0.01-0.03,0.01-0.03l0.05-0.14l0.13-0.07
										C-823.45-327.49-823.4-327.47-823.36-327.45z M-826.77-319.68L-826.77-319.68l0.04,0.14l-0.07,0.13
										c-1.03,0.87-1.93,2-3.25,2.47c-0.24,0.09-0.51,0.14-0.77,0.15l-0.14-0.05l-0.07-0.13l0.04-0.14
										c0.1-0.06,0.15-0.07,0.23-0.08c0.96-0.16,1.76-0.86,2.48-1.49c0.21-0.19,0.42-0.37,0.63-0.56c0,0,0.3-0.26,0.61-0.49
										l0.15-0.04C-826.86-319.72-826.82-319.7-826.77-319.68z M-824.88-318.75l0.07,0.13l-0.04,0.14c0,0-0.19,0.1-0.11,0.07
										c0,0-0.4,0.44-0.71,0.82l-0.14,0.08l-0.16-0.05l-0.07-0.14l0.05-0.15c0.26-0.31,0.48-0.69,0.83-0.88
										C-825.07-318.8-824.98-318.78-824.88-318.75z M-830.56-326.2l0.15,0.07l0.07,0.16c0.01,0.18,0.01,0.45,0.01,0.45
										c-0.12,1.45-0.77,2.85-1.6,4.1c-0.64,0.97-1.38,1.92-2.31,2.54c-0.19,0.13-0.43,0.24-0.67,0.24l-0.14-0.06l-0.06-0.13
										l0.05-0.13c0,0,0.36-0.13,0.61-0.32c1.83-1.44,3.14-3.61,3.54-5.76c0.04-0.21,0.08-0.52,0.08-0.52
										c0-0.03,0.01-0.05,0.01-0.08c0.02-0.13,0.04-0.33,0.04-0.33l0.07-0.15C-830.71-326.14-830.57-326.2-830.56-326.2z
										 M-829.05-325.78c0.36,0.04,0.34,0.69-0.09,0.96c-0.25,0.16-0.6-0.15-0.35-0.63
										C-829.38-325.65-829.23-325.79-829.05-325.78z"/>
								</g>
							</g>
						</g>
					</g>
				</g>
			</g>
		</g>
		<g transform="matrix(0.96164,0,0,0.925308,289.285,202.878)">
			<path style="fill:#008A77;" d="M-272.96-213.76c-1.7,0.24-3.05,2.17-4.23,4.28c-2.12,3.8-3.19,5.73-5.31,9.53
				c-3.16-1.88-4.74-2.81-7.9-4.54c1.55-2.75,2.32-4.15,3.87-6.97c0.99-1.78,2.72-2.94,4.68-2.93
				C-278.3-214.25-276.52-214.12-272.96-213.76"/>
			<g>
				<defs>
					<path id="SVGID_11_" d="M-272.96-213.76c-1.7,0.24-3.05,2.17-4.23,4.28c-2.12,3.8-3.19,5.73-5.31,9.53
						c-3.16-1.88-4.74-2.81-7.9-4.54c1.55-2.75,2.32-4.15,3.87-6.97c0.99-1.78,2.72-2.94,4.68-2.93
						C-278.3-214.25-276.52-214.12-272.96-213.76"/>
				</defs>
				<clipPath id="SVGID_12_">
					<use xlink:href="#SVGID_11_"  style="overflow:visible;"/>
				</clipPath>
				<g style="clip-path:url(#SVGID_12_);">
					<g transform="matrix(1.03989,0,0,1.08072,-300.824,-219.254)">
						<path style="fill-rule:evenodd;clip-rule:evenodd;fill:#00AF85;" d="M6.27,12.15c1.87-1.71,5.25-2.44,7.74-2.03
							c1.47,0.24,2.86,0.95,4.39,0.86c2.35-0.14,4.07-1.93,6.18-2.75c1.36-0.53,3.55-1.02,4.4,0.62c1.4,2.71-1.77,5.98-3.47,7.67
							c-1.92,1.91-4.15,3.63-6.85,4.27c-4.11,0.97-10.26-0.15-13.81-2.22L6.27,12.15z"/>
					</g>
				</g>
			</g>
		</g>
		<g transform="matrix(0.96164,0,0,0.925308,305.841,415.86)">
			<path style="fill:#003939;" d="M-288.33-422.38c-1.94,3.31-2.91,4.98-4.85,8.29c1.91,3.28,2.87,4.91,4.79,8.08
				c0.01-1.38,0.01-2.07,0.01-3.46c0.59-0.03,0.89-0.04,1.48-0.08c5.35-0.25,7.26-4.02,4.73-8.24c-0.65-1.08-1.35-2.29-2.16-3.71
				c0.6,1.32,0.33,2.44-1.06,2.47c-1.19,0.04-1.78,0.06-2.96,0.09C-288.34-420.31-288.34-421-288.33-422.38"/>
			<g>
				<defs>
					<path id="SVGID_13_" d="M-288.33-422.38c-1.94,3.31-2.91,4.98-4.85,8.29c1.91,3.28,2.87,4.91,4.79,8.08
						c0.01-1.38,0.01-2.07,0.01-3.46c0.59-0.03,0.89-0.04,1.48-0.08c5.35-0.25,7.26-4.02,4.73-8.24c-0.65-1.08-1.35-2.29-2.16-3.71
						c0.6,1.32,0.33,2.44-1.06,2.47c-1.19,0.04-1.78,0.06-2.96,0.09C-288.34-420.31-288.34-421-288.33-422.38"/>
				</defs>
				<clipPath id="SVGID_14_">
					<use xlink:href="#SVGID_13_"  style="overflow:visible;"/>
				</clipPath>
				<g style="clip-path:url(#SVGID_14_);">
					<g transform="matrix(0.928158,0.122851,-0.117828,0.961485,-244.467,-438.136)">
						<path style="fill-rule:evenodd;clip-rule:evenodd;fill:#005E5E;" d="M-36.2,24.6c0.05,0.01-0.08,0.05-0.11,0.09
							c-0.1,0.12-0.18,0.27-0.29,0.38c-0.29,0.3-0.59,0.59-0.9,0.87c-0.9,0.78-1.76,1.43-2.84,1.96c-0.86,0.42-1.75,0.76-2.63,1.11
							c-0.65,0.26-1.31,0.46-1.96,0.71c-2.03,0.78-4.11,1.4-5.8,2.84c-0.84,0.72-1.24,1.93-0.62,2.93c1.01,1.64,2.92,2.65,4.74,3.1
							c3.59,0.89,7,0.86,10.09-1.3c1.18-0.82,2.46-1.66,3.04-3.04c0.51-1.23,1.03-2.68,0.72-4.05c-0.21-0.93-0.55-0.76-0.88-1.63
							c-0.19-0.49-0.05-1.01,0-1.49L-36.2,24.6"/>
					</g>
					<g transform="matrix(1.02714,-0.168691,0.162318,1.06747,-375.336,-400.842)">
						<path style="fill-rule:evenodd;clip-rule:evenodd;fill:#0099A8;" d="M75.92-1.23c0.13-0.01,0.25-0.14,0.39-0.13
							c1.11,0.09,2.53,0.36,3.55,0.81c0.97,0.42,1.64,1.24,2.68,1.56c0.71,0.22,2.15,0.13,2.78,0.73c0.66,0.62-1.01,0.67-1.06,0.69
							c-0.16,0.06-0.38,0.36-0.17,0.54c0.28,0.23,0.85,0.24,1.17,0.33c0.82,0.23,3.86,0.73,3.94,2.27c0.01,0.15-0.11,0.28-0.15,0.42
							C89,6.21,88.97,6.77,88.79,6.95c-0.43,0.45-1.4,0.95-1.94,1.21c-1.21,0.59-1.69,0.88-3.05,1.01
							c-0.62,0.06-1.77-0.16-2.38-0.22c-1.9-0.19-3.14-0.16-4.73-1.19L75.92-1.23"/>
					</g>
				</g>
			</g>
		</g>
		<g transform="matrix(0.96164,0,0,0.925308,375.859,186.056)">
			<path style="fill:#008A77;" d="M-353.31-164.87c0.61-1.68-0.34-3.7-1.51-5.7c-2.11-3.6-3.17-5.46-5.27-9.23
				c3.19-1.89,4.78-2.83,7.96-4.56c1.54,2.71,2.32,4.03,3.87,6.61c0.99,1.63,1.01,3.54-0.04,5.22
				C-350.3-169.55-351.3-168-353.31-164.87"/>
			<g>
				<defs>
					<path id="SVGID_15_" d="M-353.31-164.87c0.61-1.68-0.34-3.7-1.51-5.7c-2.11-3.6-3.17-5.46-5.27-9.23
						c3.19-1.89,4.78-2.83,7.96-4.56c1.54,2.71,2.32,4.03,3.87,6.61c0.99,1.63,1.01,3.54-0.04,5.22
						C-350.3-169.55-351.3-168-353.31-164.87"/>
				</defs>
				<clipPath id="SVGID_16_">
					<use xlink:href="#SVGID_15_"  style="overflow:visible;"/>
				</clipPath>
				<g style="clip-path:url(#SVGID_16_);">
					<g transform="matrix(0.967195,0.396975,-0.381977,1.00517,-268.749,-339.737)">
						<path style="fill-rule:evenodd;clip-rule:evenodd;fill:#00C299;" d="M-28.41,170.02c-0.09-0.13,0.51-0.01,0.55,0
							c0.38,0.09,0.77,0.08,1.16,0.09c1.12,0.04,2.17-0.14,3.27-0.37c2.64-0.55,5.29-1.11,7.98-0.9c0.73,0.06,2.36,0.61,2.84,1.14
							c0.22,0.24,0.25,0.57,0.34,0.87c0.57,1.92-1.08,3.31-2.82,3.79c-1.38,0.39-2.7,0.9-4.14,1.02c-1.26,0.1-2.49-0.04-3.75,0.01
							c-1.73,0.06-3.99,0.1-5.45-0.94L-28.41,170.02z"/>
					</g>
					<g transform="matrix(0.992274,0.577663,-0.773563,1.43518,-134.491,-542.094)">
						<path style="fill-rule:evenodd;clip-rule:evenodd;fill:#00AF85;" d="M-21.15,264.3c0.19,0.18,0.49-0.17,0.74-0.25
							c0.85-0.3,1.7-0.57,2.54-0.9c2.5-0.99,4.95-2.42,7.66-2.78c0.68-0.09,1.37-0.06,2.05-0.07c1.29-0.03,2.22,0.21,2.36,1.66
							c0.17,1.69-0.78,3.05-2.13,3.98c-2.73,1.87-6.04,3.47-9.42,2.83c-2.09-0.4-4.44-2.06-3.89-4.53"/>
					</g>
				</g>
			</g>
		</g>
		<g transform="matrix(-0.277989,0.103067,-0.0988095,-0.266506,750.574,66.9705)">
			<path style="fill:#008A77;" d="M2197.12,1034.13c0.07,0.01,0.08,0.11,0.16,0.18l0.01,0.02c0.67,1.49,0.98,3.11,1.05,4.75
				l0.03,0.07l0.01,0.1c0,0.03-0.03,0.08-0.03,0.08c0,0.06,0,0.12,0,0.19c0,0.03,0,0.06,0,0.09c0.6,0.34,1.35,0.39,2.04,0.48
				c0.16,0.02,0.32,0.05,0.48,0.07c1.18,0.18,2.39,0.42,3.45,0.98c0.16,0.09,0.32,0.18,0.48,0.28c0,0,0.45,0.37,0.22,0.5
				c-0.15,0.09-0.19-0.01-0.37-0.05c-1.02-0.21-2.08-0.25-3.11-0.45c-1.16-0.23-2.31-0.66-3.2-1.47c0,0.04,0,0.07,0,0.11
				c-0.01,0.73-0.06,1.46-0.14,2.18c0,0,0.15,0.29,0.32,0.49c0.79,0.97,1.97,1.55,2.92,2.39c0.73,0.65,1.49,1.32,1.9,2.22
				c0,0,0.02,0.06,0.02,0.07c0,0.01,0,0.02,0,0.03c0,0.02,0,0.03,0,0.05c0,0.02,0,0.03,0,0.05c-0.01,0.08-0.04,0.18-0.13,0.18
				c-0.09,0.01-0.15-0.07-0.22-0.12c-1.33-1.02-2.86-1.82-4.04-3.08c-0.38-0.4-0.7-0.87-0.89-1.39c0,0-0.03,0.2-0.06,0.4
				c-0.12,0.74-0.27,1.47-0.43,2.2c0.68,1.26,1.76,2.24,2.65,3.34c0.47,0.57,0.93,1.15,1.36,1.75c0.31,0.43,0.59,0.9,0.68,1.42
				c0.01,0.09-0.02,0.15-0.02,0.15c-0.05,0.08-0.14,0.12-0.28,0.01c-0.15-0.12-0.26-0.29-0.4-0.43c-1.29-1.22-2.68-2.4-3.58-3.93
				c-0.28-0.47-0.51-0.97-0.59-1.51l0-0.01c-0.18,0.81-0.38,1.63-0.57,2.44l-0.09,0.38c0.03,0.09-0.01,0.07,0.12,0.27
				c0.02,0.03,0.04,0.06,0.06,0.09c0.04,0.05,0.08,0.11,0.08,0.11c0.53,0.76,1.22,1.4,1.74,2.16c0.51,0.74,0.91,1.55,1.26,2.37
				c0.01,0.01,0.01,0.02,0.02,0.04c0.06,0.16,0.14,0.38-0.01,0.45c-0.11,0.06-0.23-0.09-0.3-0.22c0,0-0.21-0.24-0.37-0.43
				c-1.11-1.27-2.36-2.51-2.73-4.21l-0.01-0.03c-0.23,0.98-0.46,1.96-0.65,2.94l-0.01,0.05c0.01,0.65,0.08,1.29,0.13,1.93
				c0.1,1.32,0.2,2.65,0.06,3.97c-0.02,0.25-0.07,0.49-0.14,0.72l-0.1,0.14c-0.03,0.01-0.04,0.07-0.12,0.05
				c-0.12-0.03-0.12-0.19-0.17-0.33c-0.67-2.05-0.8-4.29-0.29-6.39c0.15-0.62,0.32-1.25,0.63-1.81c0.02-0.1,0.05-0.2,0.07-0.3
				c0.02-0.1,0.05-0.23,0.05-0.23c-0.01,0.02-0.02,0.03-0.04,0.05c-0.92,1.2-2.29,1.98-3.64,2.71c-0.29,0.16-0.59,0.32-0.9,0.4
				c-0.05,0.01-0.11,0.01-0.15-0.03c-0.1-0.11-0.01-0.27,0.04-0.38c0.01-0.03,0.03-0.06,0.05-0.09c0.62-1.17,1.95-1.81,3.16-2.5
				c0.66-0.37,1.3-0.79,1.77-1.37l0.07-0.27c-0.01-0.04-0.05-0.07,0.02-0.12l0.01-0.01c0.14-0.56,0.28-1.13,0.42-1.69l0.01-0.04
				c-0.01,0.02-0.03,0.05-0.04,0.07c-0.6,0.9-1.51,1.6-2.46,2.08c-0.74,0.37-1.53,0.61-2.3,0.91c-0.05,0.02-0.07,0.04-0.18,0.08
				c-0.08,0.03-0.22,0-0.2-0.16c0-0.19,0.04-0.16,0.09-0.26c0.13-0.21,0.31-0.39,0.49-0.57c1.04-1,2.25-1.84,3.5-2.58
				c0.54-0.32,1.08-0.67,1.47-1.18l0.01-0.01c0.12-0.55,0.24-1.1,0.34-1.66l0.01-0.06l0.01-0.06c-0.75,1.1-2.08,1.68-3.36,2.27
				c-0.27,0.12-0.54,0.25-0.82,0.37c-0.14,0.06-0.27,0.12-0.41,0.17c-0.15,0.06-0.29,0.14-0.43,0.21c-0.09,0.05-0.25,0.02-0.26-0.14
				l0-0.1c0.01-0.05,0.02-0.07,0.03-0.09c0.29-0.75,1.1-1.23,1.76-1.65c0.94-0.59,1.95-1.05,2.85-1.69c0.33-0.24,0.66-0.5,0.88-0.84
				l0,0c0.09-0.72,0.16-1.45,0.19-2.18c0,0-0.1,0.19-0.2,0.34c-0.47,0.69-1.18,1.2-1.88,1.64c-0.88,0.56-1.8,1.05-2.69,1.59
				c-0.09,0.06-0.22,0.14-0.22,0.14c-0.06,0.03-0.16,0.01-0.17-0.07c-0.02-0.09,0.07-0.2,0.07-0.2c1.08-1.39,2.41-2.57,3.87-3.55
				c0.42-0.28,0.86-0.54,1.2-0.91l0.03-0.03c-0.05-1.63-0.36-3.28-1-4.79l-0.02-0.08c-0.01-0.1-0.02-0.04-0.01-0.17
				C2197.06,1034.17,2197.05,1034.13,2197.12,1034.13z"/>
		</g>
		<g transform="matrix(0.113786,0.103835,-0.110996,0.119831,295.165,14.9695)">
			<path style="fill:#008A77;" d="M-1213.37,1057.47c-0.06-0.02-0.13-0.04-0.2-0.08c-0.24-0.16-0.47-0.32-0.69-0.5l-0.03-0.02
				c-1.08-0.86-1.92-2-2.32-3.35c-0.39-1.28-0.45-2.65-0.5-3.93c-0.01-0.17-0.02-0.38,0.3-0.38c0.31,0.01,0.6,0.19,0.87,0.36
				c0,0,0.24,0.17,0.4,0.29c1.06,0.84,1.98,1.93,2.43,3.28c0.49,1.48,0.45,3.08,0.44,4.65l-0.02,0.12l-0.01,0.1
				c0.07,0.26,0.14,0.53,0.2,0.8c0.37-2.09,1.28-4.12,2.86-5.54c0.43-0.39,0.93-0.72,1.51-0.86c0.02,0,0.04-0.01,0.05-0.01
				c0.01,0,0.03-0.01,0.04-0.01c0.11-0.02,0.25-0.02,0.3,0.17c0.14,0.51-0.01,1.07-0.13,1.62c0,0-0.09,0.41-0.16,0.69
				c-0.39,1.66-1.28,3.24-2.68,4.21c-0.49,0.34-1.02,0.59-1.59,0.75c0.25,1.4,0.4,2.82,0.57,4.21c0.68-2.11,2.23-3.96,4.15-5.03
				c0.5-0.28,1.03-0.5,1.64-0.55c0.01,0,0.02,0,0.03,0c0.03,0,0.07,0,0.1,0c0.02,0,0.04,0,0.06,0c0.02,0,0.03,0,0.05,0
				c0.12,0.01,0.25,0.03,0.26,0.24c0,0.62-0.25,1.22-0.45,1.84c-0.44,1.37-1.19,2.64-2.32,3.52c-0.88,0.69-1.97,1.1-3.09,1.13
				c-0.09,0-0.18,0-0.28,0c0.02,0.11,0.03,0.23,0.05,0.34c0.26,1.72,0.63,3.43,1.18,5.06c0.07-0.29,0.14-0.4,0.22-0.58
				c0.75-1.79,2.07-3.34,3.73-4.34c0.7-0.42,1.48-0.75,2.3-0.76c0.01,0,0.01,0,0.02,0c0.23,0.01,0.5,0.11,0.5,0.11
				c0.21,0.16,0.12,0.05,0.05,0.3c-0.56,2.02-1.79,3.87-3.49,5.13c-0.81,0.6-1.81,0.95-2.8,0.9c-0.09,0-0.18-0.01-0.27-0.03
				c0.5,1.32,1.12,2.6,1.9,3.8c0.92,1.41,2.05,2.68,3.36,3.74c0.28,0.24,0.58,0.47,0.88,0.69l0.1,0.23c-0.05,0.01-0.05,0-0.1,0
				l-0.13,0.01c-0.33-0.2-0.64-0.42-0.95-0.64l-0.01-0.01c-1.94-1.49-3.52-3.48-4.6-5.6c-0.02-0.05-0.05-0.09-0.07-0.14
				c-1.9,1.81-5.11,2.08-7.48,0.64c-0.49-0.29-0.97-0.61-1.37-0.98c-0.19-0.18,0.02-0.49,0.32-0.76c0.62-0.56,1.51-0.78,2.36-0.96
				c1.07-0.23,2.2-0.3,3.23,0.09c0.93,0.35,1.72,0.97,2.64,1.34c-0.69-1.54-1.15-3.16-1.51-4.81c-0.52,0.47-1.16,0.8-1.86,0.93
				c-2.47,0.49-5.13-1.08-6.39-2.56c-0.05-0.06-0.69-0.73-0.18-0.98c0.44-0.22,0.99-0.18,1.48-0.18c1.74,0.01,3.57,0.04,5.03,0.78
				c0.69,0.35,1.28,0.86,1.8,1.43c-0.38-1.93-0.62-3.89-0.9-5.81c-0.11,0.1-0.25,0.16-0.39,0.23c-2.2,1.17-5.32-0.09-6.47-2.28
				c-0.25-0.47-0.56-1.23,0.14-1.17c0.94,0.08,1.91,0.32,2.87,0.52c0.99,0.21,1.96,0.53,2.8,1.12c0.34,0.24,0.64,0.51,0.93,0.8
				c-0.01-0.04-0.01-0.07-0.02-0.11C-1212.84,1059.6-1213.07,1058.52-1213.37,1057.47z"/>
		</g>
		<g transform="matrix(-0.201853,0.0125782,-0.0115437,-0.202147,367.546,192.444)">
			<path style="fill:#006C78;" d="M1731.34,968.51c0.07,0.01,0.08,0.11,0.16,0.18l0.01,0.01c0.67,1.49,0.98,3.11,1.05,4.75
				l0.03,0.07l0.01,0.1c0,0.03-0.03,0.08-0.03,0.08c0,0.06,0,0.12,0,0.19c0,0.03,0,0.06,0,0.09c0.6,0.34,1.35,0.39,2.04,0.48
				c0.16,0.02,0.32,0.05,0.48,0.07c1.18,0.18,2.39,0.42,3.45,0.98c0.16,0.09,0.32,0.18,0.48,0.28c0,0,0.45,0.37,0.22,0.5
				c-0.15,0.09-0.19,0-0.37-0.05c-1.03-0.21-2.08-0.25-3.11-0.45c-1.16-0.23-2.31-0.66-3.2-1.47c0,0.04,0,0.07,0,0.11
				c-0.01,0.73-0.06,1.46-0.14,2.18c0,0,0.15,0.29,0.32,0.49c0.79,0.97,1.97,1.55,2.92,2.39c0.73,0.65,1.49,1.32,1.9,2.22
				c0,0,0.02,0.06,0.02,0.07c0,0.01,0,0.02,0,0.03c0,0.02,0,0.03,0,0.05c0,0.02,0,0.03,0,0.05c-0.01,0.08-0.04,0.18-0.13,0.18
				c-0.09,0.01-0.15-0.07-0.22-0.12c-1.33-1.02-2.86-1.82-4.04-3.08c-0.38-0.4-0.7-0.87-0.89-1.39c0,0-0.03,0.2-0.06,0.4
				c-0.12,0.74-0.27,1.47-0.43,2.2c0.68,1.26,1.76,2.24,2.65,3.34c0.47,0.57,0.93,1.15,1.36,1.75c0.31,0.43,0.59,0.9,0.68,1.42
				c0.01,0.09-0.02,0.15-0.02,0.15c-0.05,0.08-0.14,0.12-0.28,0.01c-0.15-0.12-0.26-0.29-0.4-0.43c-1.29-1.22-2.68-2.4-3.58-3.93
				c-0.28-0.47-0.51-0.97-0.59-1.51l0-0.01c-0.19,0.81-0.38,1.63-0.57,2.44l-0.09,0.38c0.03,0.09-0.01,0.07,0.12,0.27
				c0.02,0.03,0.04,0.06,0.06,0.09c0.04,0.05,0.08,0.11,0.08,0.11c0.53,0.76,1.22,1.4,1.74,2.16c0.51,0.74,0.91,1.55,1.26,2.37
				c0.01,0.01,0.01,0.02,0.02,0.04c0.06,0.16,0.14,0.38-0.01,0.45c-0.11,0.06-0.23-0.09-0.3-0.22c0,0-0.21-0.24-0.37-0.43
				c-1.11-1.27-2.36-2.51-2.73-4.21l-0.01-0.03c-0.23,0.98-0.46,1.96-0.65,2.95l-0.01,0.05c0.01,0.65,0.08,1.29,0.13,1.93
				c0.1,1.32,0.2,2.65,0.06,3.97c-0.02,0.25-0.07,0.49-0.14,0.72l-0.1,0.14c-0.03,0.01-0.04,0.07-0.12,0.05
				c-0.12-0.03-0.12-0.19-0.17-0.33c-0.67-2.05-0.8-4.29-0.29-6.39c0.15-0.62,0.32-1.25,0.63-1.81c0.02-0.1,0.05-0.2,0.07-0.29
				c0.02-0.1,0.05-0.23,0.05-0.23c-0.01,0.02-0.02,0.03-0.04,0.05c-0.92,1.2-2.29,1.98-3.64,2.71c-0.29,0.16-0.59,0.32-0.9,0.4
				c-0.05,0.01-0.11,0.01-0.15-0.03c-0.1-0.11-0.01-0.27,0.04-0.38c0.02-0.03,0.03-0.06,0.05-0.09c0.62-1.17,1.95-1.81,3.16-2.5
				c0.66-0.37,1.3-0.79,1.77-1.37l0.07-0.27c-0.01-0.04-0.05-0.07,0.02-0.12l0.01-0.01c0.14-0.56,0.28-1.13,0.42-1.69l0.01-0.04
				c-0.01,0.02-0.03,0.05-0.04,0.07c-0.6,0.9-1.51,1.6-2.46,2.08c-0.74,0.37-1.53,0.61-2.3,0.91c-0.05,0.02-0.07,0.04-0.18,0.08
				c-0.08,0.03-0.22,0-0.2-0.16c0-0.19,0.04-0.16,0.09-0.26c0.13-0.21,0.31-0.39,0.49-0.57c1.04-1,2.25-1.84,3.5-2.58
				c0.54-0.32,1.08-0.67,1.47-1.18l0.01-0.01c0.12-0.55,0.24-1.1,0.34-1.66l0.01-0.06l0.01-0.06c-0.75,1.1-2.08,1.68-3.36,2.27
				c-0.27,0.12-0.54,0.25-0.82,0.37c-0.14,0.06-0.27,0.12-0.41,0.17c-0.15,0.06-0.29,0.14-0.43,0.21c-0.09,0.05-0.25,0.02-0.26-0.14
				l0-0.1c0.01-0.05,0.02-0.07,0.03-0.09c0.29-0.75,1.1-1.23,1.76-1.65c0.94-0.59,1.95-1.05,2.85-1.69c0.33-0.24,0.66-0.5,0.88-0.84
				l0,0c0.09-0.72,0.16-1.45,0.19-2.18c0,0-0.1,0.19-0.2,0.34c-0.47,0.69-1.18,1.2-1.88,1.64c-0.88,0.56-1.8,1.05-2.69,1.59
				c-0.09,0.06-0.22,0.14-0.22,0.14c-0.06,0.03-0.16,0.01-0.17-0.07c-0.02-0.09,0.07-0.2,0.07-0.2c1.09-1.39,2.41-2.57,3.87-3.55
				c0.42-0.28,0.86-0.54,1.2-0.91l0.03-0.03c-0.05-1.63-0.36-3.28-1-4.79l-0.02-0.08c-0.01-0.1-0.02-0.04-0.01-0.17
				C1731.27,968.55,1731.26,968.51,1731.34,968.51z"/>
		</g>
		<g transform="matrix(0.0536221,0.0943788,-0.0962217,0.0586485,89.5487,45.6142)">
			<path style="fill:#006C78;" d="M-619.46,485.29c-0.06-0.02-0.13-0.04-0.2-0.08c-0.24-0.16-0.47-0.32-0.69-0.5l-0.03-0.02
				c-1.08-0.86-1.92-2-2.32-3.35c-0.39-1.28-0.45-2.65-0.5-3.93c-0.01-0.17-0.02-0.38,0.3-0.38c0.31,0.01,0.6,0.19,0.87,0.36
				c0,0,0.24,0.17,0.4,0.29c1.06,0.85,1.98,1.93,2.43,3.28c0.49,1.48,0.45,3.08,0.44,4.65l-0.02,0.12l-0.01,0.1
				c0.07,0.26,0.14,0.53,0.2,0.8c0.37-2.09,1.28-4.12,2.86-5.54c0.43-0.39,0.93-0.72,1.51-0.86c0.02,0,0.04-0.01,0.05-0.01
				c0.01,0,0.03-0.01,0.04-0.01c0.11-0.02,0.25-0.02,0.3,0.17c0.14,0.51-0.01,1.07-0.13,1.62c0,0-0.09,0.41-0.16,0.69
				c-0.39,1.66-1.28,3.24-2.68,4.21c-0.49,0.34-1.02,0.59-1.59,0.75c0.25,1.4,0.4,2.82,0.57,4.21c0.68-2.11,2.23-3.96,4.15-5.03
				c0.5-0.28,1.03-0.5,1.64-0.55c0.01,0,0.02,0,0.03,0c0.03,0,0.07,0,0.1,0c0.02,0,0.04,0,0.06,0c0.02,0,0.03,0,0.05,0
				c0.12,0.01,0.25,0.03,0.26,0.24c0,0.62-0.25,1.22-0.45,1.84c-0.44,1.37-1.19,2.64-2.32,3.52c-0.88,0.69-1.97,1.1-3.09,1.13
				c-0.09,0-0.18,0-0.28,0c0.02,0.11,0.03,0.23,0.05,0.34c0.26,1.72,0.63,3.43,1.18,5.06c0.07-0.29,0.14-0.4,0.22-0.58
				c0.75-1.79,2.07-3.34,3.73-4.34c0.7-0.42,1.48-0.75,2.3-0.76c0.01,0,0.01,0,0.02,0c0.23,0.01,0.5,0.11,0.5,0.11
				c0.21,0.16,0.12,0.05,0.05,0.3c-0.56,2.02-1.79,3.87-3.49,5.13c-0.81,0.6-1.81,0.95-2.8,0.9c-0.09,0-0.18-0.01-0.27-0.03
				c0.5,1.32,1.12,2.6,1.9,3.8c0.92,1.41,2.05,2.68,3.36,3.74c0.28,0.24,0.58,0.47,0.88,0.69l0.1,0.23c-0.05,0.01-0.05,0-0.1,0
				l-0.13,0.01c-0.33-0.2-0.64-0.42-0.95-0.64l-0.01-0.01c-1.94-1.49-3.52-3.48-4.6-5.6c-0.02-0.05-0.05-0.09-0.07-0.14
				c-1.9,1.81-5.11,2.08-7.48,0.64c-0.49-0.29-0.97-0.61-1.37-0.98c-0.19-0.18,0.02-0.49,0.32-0.76c0.62-0.56,1.51-0.78,2.36-0.96
				c1.07-0.23,2.2-0.3,3.23,0.09c0.93,0.35,1.72,0.97,2.64,1.34c-0.69-1.54-1.15-3.16-1.51-4.81c-0.52,0.47-1.16,0.8-1.86,0.93
				c-2.47,0.49-5.13-1.08-6.39-2.56c-0.05-0.06-0.69-0.73-0.18-0.98c0.44-0.22,0.99-0.18,1.48-0.18c1.74,0.01,3.57,0.04,5.03,0.78
				c0.69,0.35,1.28,0.86,1.8,1.43c-0.38-1.93-0.62-3.89-0.9-5.81c-0.11,0.1-0.25,0.16-0.39,0.23c-2.2,1.17-5.32-0.09-6.47-2.28
				c-0.25-0.47-0.56-1.23,0.14-1.17c0.94,0.08,1.91,0.32,2.87,0.52c0.99,0.21,1.96,0.53,2.8,1.12c0.34,0.24,0.64,0.51,0.93,0.8
				c-0.01-0.04-0.01-0.07-0.02-0.11C-618.92,487.42-619.15,486.34-619.46,485.29z"/>
		</g>
		<g transform="matrix(0.812984,0.21056,-0.23879,0.921982,122.209,-13.3902)">
			<path style="fill-rule:evenodd;clip-rule:evenodd;fill:#0098A8;" d="M-106.84,68.75c0,0,0.32-1.91,1.97-1.81
				c0.9,0.06,0.78,1.08-0.13,1.02C-105.53,67.93-106.09,67.86-106.84,68.75z"/>
		</g>
		<g transform="matrix(0.828052,-0.449292,0.518803,0.956161,-101.624,105.443)">
			<path style="fill-rule:evenodd;clip-rule:evenodd;fill:#00B3C6;" d="M151.69-10.58c0,0,0.51-1.76,2.17-1.69
				c1.18,0.06,1.06,1.07,0.16,1.02C153.48-11.28,152.48-11.48,151.69-10.58z"/>
		</g>
		<g transform="matrix(0.504956,0.0587858,-0.0655482,0.563043,108.52,95.5428)">
			<g transform="matrix(0.293906,0,0,0.293906,135.94,278.695)">
				<path style="fill:#2A2A2A;" d="M-1154.87-1307.1c0,0,0.94-4.15,4.36-4.93c1.28-0.25-1.41,1.4,0.78,5.7L-1154.87-1307.1z"/>
			</g>
			<g transform="matrix(0.293906,0,0,0.293906,107.352,326.281)">
				<path style="fill:#2A2A2A;" d="M-1068.06-1463.38c-0.77,1.11-1.26,3.69-1.2,4.21c0.07,0.62,1.44,3.27,2.33,3.33
					c0.88,0.05,2.7-1.55,3.08-2.14c0.37-0.59-2.87-4.75-2.76-5.11C-1066.62-1463.1-1067.91-1463.59-1068.06-1463.38"/>
			</g>
			<g transform="matrix(0.293906,0,0,0.293906,85.7419,336.159)">
				<path style="fill:#2A2A2A;" d="M-1002.44-1496.33c-0.39-0.93,1-8.14,19.42-7c10.36,0.86,17.17,10.73,18.79,16.35
					c4.92-0.36,7.86,2.47,7.86,2.47s-8.96-1.26-11.32,6.65c-1.03-4.4,1.77-8.13,1.77-8.13s-0.88-3.26-6.22-4.24
					c-3.51-0.9-16.3-1.85-18.46-2.94C-992.78-1494.24-1001.66-1494.49-1002.44-1496.33"/>
			</g>
			<g transform="matrix(0.293906,0,0,0.293906,167.225,306.005)">
				<path style="fill:#FFFFFF;" d="M-1249.87-1388.79c-3.25-0.55-3.52-1.53-2.69-1.8c1.57-0.48,5.29,1.6,5.07,0.36
					c-0.21-1.24-3.9-4.22-6.26-3.49c-2.36,0.73-1.8,2.9-3.66,3.71c-4.61,2.01-11.44-5.4-14.96-5.94c-2.82-0.43-6.01,1.63-7.16,2.46
					c0.27,1.58,8.74,3.74,11.01,4.16c3.05,0.56,15.2,0.1,21.66,2.48C-1247.34-1387.68-1248.22-1388.51-1249.87-1388.79"/>
			</g>
			<g transform="matrix(0.293906,0,0,0.293906,123.111,300.283)">
				<path style="fill:#FFFFFF;" d="M-1115.91-1378.83c0,0-2.09,0.26-2.97,0.07c-0.88-0.19-3.25,0.37-3.32,0.76
					c-0.07,0.39,0.11,0.85,1.89,1.15c1.78,0.3,3.05-0.1,3.77-0.19C-1115.2-1377.19-1113.57-1379.35-1115.91-1378.83"/>
			</g>
			<g transform="matrix(0.293906,0,0,0.293906,116.393,323.994)">
				<path style="fill:#2A2A2A;" d="M-1095.51-1455.98c-0.63,0.97,0.59,4.37,0.97,4.86c0.38,0.49,2.93,2.06,3.71,1.65
					c0.78-0.41,1.51-2.73,1.53-3.42c0.02-0.69-4.91-2.59-5-2.95L-1095.51-1455.98z"/>
			</g>
			<g transform="matrix(0.102243,-0.275548,-0.275548,-0.102243,110.462,297.131)">
				<path style="fill:#2A2A2A;" d="M906.72,1485.56c-0.31,0-0.55,0.25-0.55,0.55c0,0.31,0.25,0.55,0.55,0.55
					c0.31,0,0.55-0.25,0.55-0.55C907.28,1485.81,907.03,1485.56,906.72,1485.56"/>
			</g>
		</g>
		<g transform="matrix(0.668584,0,0,0.668584,138.551,79.5428)">
			<g transform="matrix(1.12296,0,0,1.46345,418.672,300.425)">
				<path style="fill:#F1ECE4;" d="M-503.18-265.75c-0.01-0.02-0.01-0.04-0.02-0.06c-0.08,0.02-0.17,0.02-0.26,0l-0.16,5.48h0.6
					L-503.18-265.75z"/>
			</g>
			<g transform="matrix(1,0,0,1,414.487,216.289)">
				<path style="fill:#007B92;" d="M-561.32-305.55c0.03-0.08,0.11-0.14,0.19-0.16c0-0.09-0.01-0.19,0-0.32
					c-0.2,0.02-0.39,0.15-0.47,0.36c-0.01,0.02-0.02,0.04-0.02,0.07c0.12,0.03,0.22,0.05,0.31,0.08
					C-561.32-305.53-561.32-305.54-561.32-305.55"/>
			</g>
			<g transform="matrix(1,0,0,1,418.363,221.862)">
				<path style="fill:#007B92;" d="M-564.77-311.23c0.09,0.07,0.13,0.2,0.08,0.31c0,0,0,0.01-0.01,0.01
					c0.08,0.04,0.17,0.09,0.27,0.16c0.01-0.02,0.02-0.03,0.02-0.05c0.1-0.24,0.03-0.5-0.16-0.66
					C-564.64-311.36-564.71-311.29-564.77-311.23"/>
			</g>
			<g transform="matrix(1,0,0,1,417.967,223.006)">
				<path style="fill:#007B92;" d="M-564.42-311.59c-0.04-0.12-0.07-0.22-0.09-0.3c-0.04,0.01-0.09,0-0.13-0.02
					c-0.05-0.02-0.09-0.06-0.12-0.1c-0.07,0.05-0.16,0.1-0.27,0.16c0.06,0.1,0.16,0.19,0.28,0.24c0.03,0.01,0.06,0.02,0.08,0.03
					C-564.6-311.57-564.51-311.57-564.42-311.59"/>
			</g>
			<g transform="matrix(1,0,0,1,416.222,174.257)">
				<path style="fill:#F1EBE4;" d="M-562.86-263.67c0.05-0.01,0.11-0.01,0.16,0.01c0.02,0.01,0.05,0.02,0.07,0.04
					c0.06-0.06,0.13-0.14,0.22-0.23c0.33-0.37,0.79-1,1.16-1.91c0.48-1.18,0.51-2.78,0.51-2.78s-0.97,0.96-1.63,2.44
					c-0.38,0.86-0.47,1.62-0.49,2.11C-562.87-263.87-562.87-263.76-562.86-263.67"/>
			</g>
			<g transform="matrix(1,0,0,1,417.113,260.585)">
				<path style="fill:#F1EBE4;" d="M-563.66-349.47c0.02,0.09,0.05,0.19,0.09,0.3c0.01,0.02,0.01,0.04,0.02,0.06
					c0.17,0.47,0.48,1.15,1.04,1.89c0.78,1.01,2.15,1.83,2.15,1.83s-0.34-1.33-1.29-2.63c-0.53-0.73-1.12-1.19-1.53-1.45
					c-0.1-0.07-0.19-0.12-0.27-0.16C-563.49-349.54-563.57-349.49-563.66-349.47"/>
			</g>
			<g transform="matrix(1,0,0,1,414.424,228.975)">
				<path style="fill:#F1EBE4;" d="M-561.26-318.21c-0.08-0.02-0.19-0.05-0.31-0.08c-0.49-0.1-1.27-0.2-2.26-0.07
					c-1.27,0.16-2.66,0.93-2.66,0.93s1.32,0.37,2.92,0.21c0.93-0.09,1.64-0.39,2.07-0.61c0.11-0.06,0.2-0.11,0.27-0.16
					C-561.27-318.05-561.28-318.13-561.26-318.21"/>
			</g>
			<g transform="matrix(1,0,0,1,419.07,220.39)">
				<path style="fill:#FFFFFF;" d="M-565.41-309.43c0,0,0-0.01,0.01-0.01c0.05-0.11,0.01-0.24-0.08-0.31
					c-0.02-0.02-0.04-0.03-0.07-0.04c-0.05-0.02-0.11-0.02-0.16-0.01c-0.08,0.02-0.15,0.08-0.19,0.16c0,0.01,0,0.02-0.01,0.02
					c-0.02,0.08-0.01,0.16,0.03,0.23c0.03,0.04,0.07,0.08,0.12,0.1c0.04,0.02,0.09,0.02,0.14,0.02
					C-565.53-309.29-565.45-309.35-565.41-309.43"/>
			</g>
		</g>
		<g transform="matrix(0.696252,0,0,0.696252,82.2449,85.871)">
			<g transform="matrix(1.12296,0,0,1.46345,418.672,300.425)">
				<path style="fill:#F1ECE4;" d="M-432.14-268.23c-0.01-0.02-0.01-0.04-0.02-0.06c-0.08,0.02-0.17,0.02-0.26,0l-0.16,5.48h0.6
					L-432.14-268.23z"/>
			</g>
			<g transform="matrix(0.327062,0.945003,-0.945003,0.327062,421.776,222.756)">
				<path style="fill:#007B92;" d="M-457.67,358.5c0.03-0.08,0.11-0.14,0.19-0.16c0-0.09-0.01-0.19,0-0.32
					c-0.2,0.02-0.39,0.15-0.47,0.36c-0.01,0.02-0.02,0.04-0.02,0.07c0.12,0.03,0.22,0.05,0.31,0.08
					C-457.67,358.52-457.67,358.51-457.67,358.5"/>
			</g>
			<g transform="matrix(0.327062,0.945003,-0.945003,0.327062,417.777,228.241)">
				<path style="fill:#007B92;" d="M-461.13,352.82c0.09,0.07,0.13,0.2,0.08,0.31c0,0,0,0.01-0.01,0.01
					c0.08,0.04,0.17,0.09,0.27,0.16c0.01-0.02,0.02-0.03,0.02-0.05c0.1-0.24,0.03-0.5-0.16-0.66
					C-460.99,352.68-461.07,352.76-461.13,352.82"/>
			</g>
			<g transform="matrix(0.327062,0.945003,-0.945003,0.327062,416.566,228.241)">
				<path style="fill:#007B92;" d="M-460.77,352.46c-0.04-0.12-0.07-0.22-0.09-0.3c-0.04,0.01-0.09,0-0.13-0.02
					c-0.05-0.02-0.09-0.06-0.12-0.1c-0.07,0.05-0.16,0.1-0.27,0.16c0.06,0.1,0.16,0.19,0.28,0.24c0.03,0.01,0.06,0.02,0.08,0.03
					C-460.95,352.47-460.86,352.47-460.77,352.46"/>
			</g>
			<g transform="matrix(0.327062,0.945003,-0.945003,0.327062,462.063,210.648)">
				<path style="fill:#F1EBE4;" d="M-459.22,400.37c0.05-0.01,0.11-0.01,0.16,0.01c0.02,0.01,0.05,0.02,0.07,0.04
					c0.06-0.06,0.13-0.14,0.22-0.23c0.33-0.37,0.79-1,1.16-1.91c0.48-1.18,0.51-2.78,0.51-2.78s-0.97,0.96-1.63,2.44
					c-0.38,0.86-0.47,1.62-0.49,2.11C-459.22,400.18-459.22,400.29-459.22,400.37"/>
			</g>
			<g transform="matrix(0.327062,0.945003,-0.945003,0.327062,380.775,239.725)">
				<path style="fill:#F1EBE4;" d="M-460.01,314.57c0.02,0.09,0.05,0.19,0.09,0.3c0.01,0.02,0.01,0.04,0.02,0.06
					c0.17,0.47,0.48,1.15,1.04,1.89c0.78,1.01,2.15,1.83,2.15,1.83s-0.34-1.33-1.29-2.63c-0.53-0.73-1.12-1.19-1.53-1.45
					c-0.1-0.07-0.19-0.12-0.27-0.16C-459.84,314.51-459.92,314.56-460.01,314.57"/>
			</g>
			<g transform="matrix(0.327062,0.945003,-0.945003,0.327062,409.767,226.845)">
				<path style="fill:#F1EBE4;" d="M-457.61,345.84c-0.08-0.02-0.19-0.05-0.31-0.08c-0.49-0.1-1.27-0.2-2.26-0.07
					c-1.27,0.16-2.66,0.93-2.66,0.93s1.32,0.37,2.92,0.21c0.93-0.09,1.64-0.39,2.07-0.61c0.11-0.06,0.2-0.11,0.27-0.16
					C-457.62,346-457.64,345.92-457.61,345.84"/>
			</g>
			<g transform="matrix(0.327062,0.945003,-0.945003,0.327062,419.4,228.428)">
				<path style="fill:#FFFFFF;" d="M-461.76,354.62c0,0,0-0.01,0.01-0.01c0.05-0.11,0.01-0.24-0.08-0.31
					c-0.02-0.02-0.04-0.03-0.07-0.04c-0.05-0.02-0.11-0.02-0.16-0.01c-0.08,0.02-0.15,0.08-0.19,0.16c0,0.01,0,0.02-0.01,0.02
					c-0.02,0.08-0.01,0.16,0.03,0.23c0.03,0.04,0.07,0.08,0.12,0.1c0.04,0.02,0.09,0.02,0.13,0.02
					C-461.88,354.76-461.8,354.7-461.76,354.62"/>
			</g>
		</g>
		<g transform="matrix(1,0,0,1,244.479,254.184)">
			<path style="fill:#FBDE9C;" d="M-221.14-229.48h1.13c0.11,0,0.2,0.05,0.27,0.12c0.06-0.15,0.09-0.33,0.09-0.57
				c0-0.91,1.85-1.55,1.85-3.69c0-1.71-1.39-3.1-3.1-3.1c-1.71,0-3.1,1.39-3.1,3.1c0,2.18,1.85,2.82,1.85,3.69
				c0,0.21,0.03,0.38,0.08,0.52c0.06-0.04,0.13-0.07,0.21-0.07H-221.14z"/>
		</g>
		<path style="fill-rule:evenodd;clip-rule:evenodd;fill:#FFFFFF;" d="M23.43,17.73l0.02,0l0.02,0l0.02,0l0.02,0l0.02,0l0.02,0
			l0.02,0l0.02,0.01l0.02,0.01l0.02,0.01l0.02,0.01l0.02,0.01l0.02,0.01l0.02,0.01l0.01,0.01l0.01,0.01l0.01,0.01l0.01,0.02
			l0.01,0.02l0.01,0.02l0.01,0.02l0.01,0.02l0.01,0.02l0.01,0.02l0,0.02l0,0.02l0,0.02l0,0.02l0,0.02l0,0.02l0,0.02l0,0.02
			l-0.01,0.02l-0.01,0.02l-0.01,0.02l-0.01,0.02l-0.01,0.02l-0.01,0.02l-0.01,0.02l-0.01,0.01l-0.01,0.01l-0.01,0.01l-0.02,0.01
			l-0.02,0.01l-0.02,0.01l-0.02,0.01l-0.02,0.01l-0.02,0.01l-0.02,0.01l-0.02,0l-0.02,0l-0.02,0l-0.02,0l-0.02,0l-0.02,0l-0.01,0
			l-0.01,0l-0.01,0l-0.01,0h-0.01l-0.01,0l-0.01,0l-0.01,0l-0.01,0l-0.01,0l-0.01,0l-0.01,0l-0.01,0l-0.01,0l-0.01,0l-0.01,0
			l-0.01,0l-0.01,0l-0.01,0l-0.01,0l-0.01,0l-0.01,0l-0.01,0l-0.01,0l-0.01,0l-0.01,0l-0.01,0l-0.01,0l-0.01,0l-0.01,0l-0.01,0
			l-0.01,0l-0.01,0l-0.01,0l-0.01,0l-0.01,0l-0.01,0l-0.01,0l-0.01,0l-0.01,0l-0.01,0l-0.01,0l-0.01,0.01l-0.01,0.01l-0.01,0.01
			l-0.01,0.01l-0.01,0.01l-0.01,0.01l-0.01,0.01l-0.01,0.01l-0.01,0.01l-0.01,0.01l-0.01,0.01l-0.01,0.01l-0.01,0.01l-0.01,0.01
			l-0.01,0.01l-0.01,0.01l-0.01,0.01l-0.01,0.01l-0.01,0.01l-0.01,0.01l-0.01,0.01l-0.01,0.01L22.6,18.6l-0.01,0.01l-0.01,0.01
			l-0.01,0.01l-0.01,0.01l-0.01,0.01l-0.01,0.01l-0.01,0.01l-0.01,0.01l-0.01,0.01l-0.01,0.01l-0.01,0.01l-0.01,0.01l-0.01,0.01
			l-0.01,0.01l-0.01,0.01l-0.01,0.01l-0.01,0.01l-0.01,0.01l-0.01,0.01l-0.01,0.01l-0.01,0.01l-0.01,0.01l-0.01,0.01l-0.01,0.01
			l-0.01,0.01l-0.01,0.01l-0.01,0.01l-0.01,0.01l-0.01,0.01l-0.01,0.01l-0.01,0.01l-0.01,0.01l-0.01,0.01l-0.01,0.01l-0.01,0.01
			l-0.01,0.01l-0.01,0.01l-0.01,0.01l-0.01,0.01l-0.01,0.01L22.15,19l-0.01,0.01l-0.01,0.01l-0.01,0.01l-0.01,0.01l-0.01,0.01
			l-0.01,0.01l-0.01,0.01l-0.01,0.01l-0.01,0.01l-0.01,0.01l-0.01,0.01l-0.01,0.01l-0.01,0.01l-0.01,0.01l-0.01,0.01L22,19.19
			l-0.01,0.01l-0.01,0.01l-0.01,0.01l-0.01,0.01l-0.01,0.01l-0.01,0.01l-0.01,0.01l-0.01,0.01l-0.01,0.01l-0.01,0.01l-0.01,0.01
			l-0.01,0.01l-0.01,0.01l-0.01,0.01l-0.01,0.01l-0.01,0.01l-0.01,0.01l-0.01,0.01l-0.01,0.01l-0.01,0.01l-0.01,0.01l-0.01,0.01
			l-0.01,0.01l-0.01,0.01l-0.01,0.01l-0.01,0.01l-0.01,0.01l-0.01,0.01l-0.01,0.01l-0.01,0.01l-0.01,0.01l-0.01,0.01l-0.01,0.01
			l-0.01,0.01l-0.01,0.01l-0.01,0.01l-0.01,0.01l-0.01,0.01l-0.01,0.01l-0.01,0.01l-0.01,0.01l-0.01,0.01l-0.01,0.01l-0.01,0.01
			l0,0.01l0,0.01l0,0.01l0,0.01l0,0.01l0,0.01l0,0.01l0,0.01l0,0.01l0,0.01l0,0.01l0,0.01l0,0.01l0,0.01l0,0.01l0,0.01l0,0.01
			l0,0.01l0,0.01l0,0.01l0,0.01l0,0.01l0,0.01l0,0.01l0,0.01l0,0.01l0,0.01l0,0.01l0,0.01l0,0.01l0,0.01l0,0.01l0,0.01l0,0.01
			l0,0.01l0,0.01l0,0.01l0,0.01l0,0.01l0,0.01l0,0.01l0,0.01l0,0.01l0,0.01l0,0.01l0,0.01l0,0.01l0,0.01v0.01l0,0.01l0,0.01l0,0.01
			l0,0.01l0,0.01l0,0.01l0,0.01l0,0.01l0,0.01l0,0.01l0,0.01l0,0.01l0,0.01l0,0.01l0,0.01l0,0.01l0,0.01l0,0.01l0,0.01l0,0.01
			l0,0.01l0,0.01l0,0.01l0,0.01l0,0.01l0,0.01l0,0.01l0,0.01l0,0.01l0,0.01l0,0.01l0,0.01l0,0.01l0,0.01l0,0.01l0,0.01l0,0.01
			l0,0.01l0,0.01l0,0.01l0.01,0.02l0,0.02l0,0.02l0,0.02l0,0.02l0,0.02l0,0.02l0,0.02l0,0.02l0,0.02l-0.01,0.02l-0.01,0.02
			l-0.01,0.02l-0.01,0.02l-0.01,0.02l-0.01,0.02l-0.01,0.01l-0.01,0.01l-0.01,0.01l-0.02,0.01l-0.02,0.01l-0.02,0.01l-0.02,0.01
			l-0.02,0.01l-0.02,0.01l-0.02,0.01l-0.02,0l-0.02,0l-0.02,0l-0.02,0l-0.02,0l-0.02,0l-0.02,0l-0.02,0l-0.02,0l-0.02-0.01
			l-0.02-0.01l-0.02-0.01l-0.02-0.01l-0.02-0.01l-0.02-0.01l-0.01-0.01l-0.01-0.01l-0.01-0.01l-0.01-0.02l-0.01-0.02l-0.01-0.02
			l-0.01-0.02l-0.01-0.02l-0.01-0.02l-0.01-0.02l-0.01-0.02l-0.01-0.02l-0.01-0.02l-0.01-0.02l-0.01-0.02l-0.01-0.02l-0.01-0.02
			l0-0.02l0-0.02l0-0.02l0-0.02l0-0.02l0-0.02L21,21l0-0.02l0-0.02l0-0.02l0-0.02l0-0.02l0-0.02l0-0.02l0-0.02l0-0.02l0-0.02l0-0.02
			l0-0.02l0-0.02l0-0.02l0-0.02l0-0.02l0-0.02l0-0.02l0-0.02l0-0.02l0-0.02l0-0.02l0-0.02l0-0.02l0-0.02v-0.02l0-0.02l0-0.02l0-0.02
			l0-0.02l0-0.02l0-0.02l0-0.02l0-0.02l0-0.02l0-0.02l0-0.02l0-0.02l0-0.02l0-0.02l0-0.02l0-0.02l0-0.02l0-0.02l0-0.02l0-0.02
			l0-0.02l0-0.02l0-0.02l0-0.02l0-0.02l0-0.02l0-0.02l0-0.02l0-0.02l0-0.02l0-0.02l0-0.02l0-0.02l0-0.02l0-0.02l0-0.02l0-0.02
			l0.01-0.02l0.01-0.02l0.01-0.02l0.01-0.02l0.01-0.02l0.01-0.02l0.01-0.02l0.01-0.02l0.01-0.02l0.01-0.02l0.01-0.02l0.01-0.02
			l0.01-0.02l0.01-0.02l0.01-0.02l0.01-0.02l0.01-0.02l0.01-0.02l0.01-0.02l0.01-0.02l0.01-0.02l0.01-0.02l0.01-0.02l0.01-0.02
			l0.01-0.02l0.01-0.02l0.01-0.02l0.01-0.02l0.01-0.02l0.01-0.02l0.01-0.02l0.01-0.02l0.01-0.02l0.01-0.02l0.01-0.02l0.01-0.02
			l0.01-0.02l0.01-0.02l0.01-0.02l0.01-0.02l0.01-0.02l0.01-0.02l0.01-0.02l0.01-0.02l0.01-0.02l0.01-0.02l0.01-0.02l0.01-0.02
			l0.01-0.02l0.01-0.02l0.01-0.02l0.01-0.02l0.01-0.02l0.01-0.02l0.01-0.02l0.01-0.02l0.01-0.02l0.01-0.02l0.01-0.02l0.01-0.02
			l0.01-0.02l0.01-0.02l0.01-0.02l0.01-0.02l0.01-0.02l0.01-0.02l0.01-0.02l0.01-0.02l0.01-0.02l0.01-0.01l0.01-0.01l0.01-0.01
			l0.01-0.01l0.01-0.01l0.01-0.01l0.01-0.01l0.01-0.01l0.01-0.01l0.01-0.01l0.01-0.01l0.01-0.01l0.01-0.01l0.01-0.01l0.01-0.01
			l0.01-0.01l0.01-0.01l0.01-0.01l0.01-0.01l0.01-0.01l0.01-0.01l0.01-0.01l0.01-0.01l0.01-0.01l0.01-0.01l0.01-0.01l0.01-0.01
			l0.01-0.01l0.02-0.01l0.02-0.01l0.02-0.01l0.02-0.01l0.02-0.01l0.02-0.01l0.02-0.01l0.02-0.01l0.02-0.01l0.02-0.01l0.02-0.01
			l0.02-0.01l0.02-0.01l0.02-0.01l0.02-0.01l0.02-0.01l0.02-0.01l0.02-0.01l0.02-0.01l0.02-0.01l0.02-0.01L22.39,18l0.02-0.01
			l0.02-0.01l0.02-0.01l0.02-0.01l0.02-0.01l0.02-0.01l0.02-0.01l0.02-0.01l0.02-0.01l0.02-0.01l0.02-0.01l0.02-0.01l0.02-0.01
			l0.02-0.01l0.02-0.01l0.02-0.01l0.02-0.01l0.02-0.01l0.02-0.01l0.02-0.01l0.02-0.01l0.02-0.01l0.02-0.01l0.02-0.01l0.02-0.01
			l0.02-0.01l0.02-0.01l0.02-0.01l0.02,0l0.02,0l0.02,0l0.02,0l0.02,0l0.02,0l0.02,0l0.02,0l0.02,0l0.02,0l0.02,0l0.02,0l0.02,0
			l0.02,0l0.02,0l0.02,0l0.02,0l0.02,0l0.02,0l0.02,0l0.02,0l0.02,0l0.02,0l0.02,0l0.02,0h0.02L23.43,17.73z"/>
		<path style="fill-rule:evenodd;clip-rule:evenodd;fill:#FFFFFF;" d="M21.81,21.88L21.81,21.88l0.01,0l0.01,0l0.01,0l0.01,0l0.01,0
			l0.01,0l0.01,0l0.01,0l0.01,0l0.01,0l0.01,0l0.01,0l0.01,0l0.01,0l0.01,0l0.01,0l0.01,0l0.01,0l0.01,0l0.01,0l0.01,0l0.01,0
			l0.01,0l0.01,0l0.01,0l0.01,0l0.01,0l0.01,0l0.01,0l0.01,0l0.01,0l0.01,0.01l0.01,0.01l0,0.01l0,0.01l0,0.01l0,0.01l0,0.01l0,0.01
			l0,0.01l0,0.01l0,0.01l0,0.01l0,0.01l0,0.01l0,0.01l0,0.01l0,0.01l0,0.01l0,0.01l0.01,0.01l0,0.01l0,0.01l0,0.01l0.01,0.01
			l0.01,0.01l0.01,0.01l0.01,0.01l0.01,0.01l0.01,0.01l0.01,0.01l0.01,0.01l0.01,0.01l0.01,0.01l0.01,0.01l0.01,0.01l0.01,0.01
			l0.01,0.01l0.01,0.01l0.01,0.01l0.01,0.01l0.01,0.01l0.01,0.01l0.01,0.01l0.01,0.01l0.01,0.01l0.01,0.01l0.01,0.01l0.01,0.01
			l0.01,0.01l0.01,0.01l0.01,0.01l0,0.01l0,0.01l0,0.01l0,0.01l0,0.01l0,0.01l0,0.01l0,0.01l0,0.01l0,0.01l0,0.01l0,0.01l0,0.01
			l0,0.01l0,0.01l0,0.01l0,0.01l0,0.01l0,0.01l0,0.01l0,0.01l0,0.01l0,0.01l0,0.01l0,0.01l0,0.01l0,0.01l0,0.01l0,0.01v0.01l0,0.01
			l0,0.01l0,0.01l0,0.01l0,0.01l0,0.01l0,0.01l0,0.01l0,0.01l0,0.01l0,0.01l0,0.01l0,0.01l0,0.01l0,0.01l0,0.01l0,0.01l0,0.01
			l0,0.01l0,0.01l0,0.01l0,0.01l0,0.01l0,0.01l0,0.01l0,0.01l0,0.01l0,0.01l0,0.01l0,0.01l0,0.01l-0.01,0.01l-0.01,0.01l-0.01,0.01
			l-0.01,0l-0.01,0l-0.01,0l-0.01,0l-0.01,0l-0.01,0l-0.01,0l-0.01,0l-0.01,0l-0.01,0l-0.01,0l-0.01,0l-0.01,0l-0.01,0l-0.01,0
			l-0.01,0l-0.01,0l-0.01,0l-0.01,0l-0.01,0l-0.01,0l-0.01,0l-0.01,0l-0.01,0l-0.01,0l-0.01,0l-0.01,0l-0.01,0l-0.01,0l-0.01,0
			l-0.01,0l-0.01,0l-0.01,0l-0.01,0l-0.01,0l-0.01,0l-0.01,0l-0.01,0l-0.01,0l-0.01,0l-0.01,0l-0.01,0l-0.01,0l-0.01,0l-0.01,0
			l-0.01,0l-0.01,0l-0.01,0l-0.01,0l-0.01,0l-0.01,0l-0.01,0l-0.01,0l-0.01,0l-0.01,0l-0.01,0l-0.01,0l-0.01,0l-0.01,0l-0.01,0
			l-0.01,0l-0.01,0l-0.01,0l-0.01,0l-0.01,0l-0.01-0.01l-0.01-0.01l0-0.01l0-0.01l0-0.01l-0.01-0.01l-0.01-0.02l-0.01-0.02
			l-0.01-0.02l-0.01-0.02l-0.01-0.02l-0.01-0.02l-0.01-0.02l-0.01-0.02l-0.01-0.02l-0.01-0.02l-0.01-0.02l-0.01-0.02l-0.01-0.02
			l-0.01-0.02l-0.01-0.02l-0.01-0.02l-0.01-0.02l-0.01-0.02l-0.01-0.02l-0.01-0.02l-0.01-0.02l-0.01-0.02l-0.01-0.02l-0.01-0.02
			l-0.01-0.02l-0.01-0.02l-0.01-0.02l-0.01-0.02l-0.01-0.02l-0.01-0.02l-0.01-0.02l0-0.01l0-0.01l0-0.01l0-0.01l0-0.01l0-0.01
			l0-0.01l0-0.01l0-0.01l0-0.01l0-0.01l0-0.01l0-0.01l0-0.01l0-0.01v-0.01l0-0.01l0-0.01l0-0.01l0-0.01l0-0.01l0-0.01l0-0.01l0-0.01
			l0-0.01l0-0.01l0-0.01l0-0.01l0-0.01l0-0.01l0-0.01l0-0.01l0-0.01l0-0.01l0-0.01l0-0.01l0-0.01l0-0.01l0-0.01l0-0.01l0-0.01
			l0-0.01l0-0.01l0-0.01l0-0.01l0-0.01l0-0.01l0.01-0.01l0.01-0.01l0.01-0.01l0.01,0l0.01,0l0.01,0l0.01,0l0.01,0l0.01,0l0.01,0
			l0.01,0l0.01,0l0.01,0l0.01,0l0.01,0l0.01,0l0.01,0l0.01,0l0.01,0l0.01,0l0.01,0l0.01,0l0.01,0l0.01,0l0.01,0l0.01,0l0.01,0
			l0.01,0l0.01,0l0.01,0l0.01,0l0.01,0l0.01,0l0.01,0L21.81,21.88L21.81,21.88z"/>
		<g transform="matrix(0.144383,0,0,0.160523,398.61,139.372)">
			<path style="fill:#FFFFFF;" d="M-2493.79-800.57c-0.28-0.02-0.56-0.03-0.85-0.03c-1.46,0-2.86,0.25-4.17,0.71
				c-2.62,0.92-5.53,0.06-7.12-2.22c-2.73-3.92-7.28-6.49-12.42-6.49c-5.05,0-9.52,2.47-12.26,6.27c-1.56,2.16-4.3,3.09-6.84,2.3
				c-1.18-0.37-2.44-0.57-3.74-0.57c-0.28,0-0.57,0.01-0.85,0.03c-3.52,0.23-5.36,2.75-5.59,5.43h59.44
				C-2488.43-797.83-2490.26-800.34-2493.79-800.57"/>
		</g>
		<g transform="matrix(0.144383,0,0,0.160523,115.64,256.419)">
			<path style="fill:#FFFFFF;" d="M-744.71-1451.31c-0.28-0.02-0.56-0.03-0.85-0.03c-1.46,0-2.86,0.25-4.17,0.71
				c-2.62,0.92-5.53,0.06-7.12-2.22c-2.73-3.92-7.28-6.49-12.42-6.49c-5.05,0-9.52,2.47-12.26,6.27c-1.56,2.16-4.3,3.09-6.84,2.3
				c-1.18-0.37-2.44-0.57-3.74-0.57c-0.28,0-0.57,0.01-0.85,0.03c-3.52,0.23-5.36,2.75-5.59,5.43h59.44
				C-739.35-1448.57-741.19-1451.08-744.71-1451.31"/>
		</g>
		<g transform="matrix(0.132205,0,0,0.146984,355.982,104.8)">
			<path style="fill:#FFFFFF;" d="M-2435.74-664.64c-0.28-0.02-0.56-0.03-0.85-0.03c-1.46,0-2.86,0.25-4.17,0.71
				c-2.62,0.92-5.53,0.06-7.12-2.22c-2.73-3.92-7.28-6.49-12.42-6.49c-5.05,0-9.52,2.47-12.26,6.27c-1.56,2.16-4.3,3.09-6.84,2.3
				c-1.18-0.37-2.44-0.57-3.74-0.57c-0.28,0-0.57,0.01-0.85,0.03c-3.53,0.23-5.36,2.75-5.59,5.43h59.44
				C-2430.38-661.9-2432.22-664.41-2435.74-664.64"/>
		</g>
		<g transform="matrix(0.132205,0,0,0.146984,165.537,214.37)">
			<path style="fill:#FFFFFF;" d="M-1150.14-1329.93c-0.28-0.02-0.56-0.03-0.85-0.03c-1.46,0-2.86,0.25-4.17,0.71
				c-2.62,0.92-5.53,0.06-7.12-2.22c-2.73-3.92-7.28-6.49-12.42-6.49c-5.05,0-9.52,2.47-12.26,6.27c-1.56,2.16-4.3,3.09-6.84,2.3
				c-1.18-0.37-2.44-0.57-3.74-0.57c-0.28,0-0.57,0.01-0.85,0.03c-3.52,0.23-5.36,2.75-5.59,5.43h59.44
				C-1144.78-1327.18-1146.61-1329.69-1150.14-1329.93"/>
		</g>
		<g transform="matrix(1,0,0,1,259.469,288.921)">
			<path style="fill:#003939;" d="M-235.88-261.7c0.43,0,0.79-0.3,0.88-0.69h-1.77C-236.67-261.99-236.31-261.7-235.88-261.7"/>
		</g>
		<g transform="matrix(1,0,0,1,257.927,225.69)">
			<path style="fill:#00C299;" d="M-234.51-200.34h1.12c0.05,0,0.1,0.01,0.15,0.03c0.09-0.07,0.15-0.18,0.15-0.3v-0.01
				c0-0.1-0.04-0.19-0.1-0.25c-0.07-0.07-0.16-0.12-0.27-0.12h-0.7v-2.54c0.22-0.71,0.99-0.5,1.24-2.49c0,0-1.21,0.7-1.37,1.99
				c0,0-0.04-0.62-1.2-1.24c0,0,0.35,0.7,0.43,1.12s0.48,0.62,0.48,0.62v2.54h-0.7c-0.08,0-0.15,0.03-0.21,0.07
				c-0.1,0.07-0.16,0.18-0.16,0.31v0.01c0,0.14,0.07,0.25,0.18,0.32c0.06-0.03,0.12-0.05,0.19-0.05H-234.51z"/>
		</g>
		<g transform="matrix(1,0,0,1,271.806,280.921)">
			<path style="fill:#003939;" d="M-246.89-255.25c0-0.11-0.09-0.23-0.22-0.29c-0.05-0.02-0.1-0.03-0.15-0.03h-0.79h-0.33h-0.79
				c-0.07,0-0.13,0.02-0.19,0.05c-0.11,0.06-0.18,0.17-0.18,0.27c0,0.15,0.17,0.32,0.37,0.32h1.91
				C-247.06-254.93-246.89-255.1-246.89-255.25"/>
		</g>
		<g transform="matrix(1,0,0,1,250.603,288.921)">
			<path style="fill:#00C299;" d="M-227.97-262.93c-0.21,0-0.37,0.12-0.37,0.27c0,0.15,0.17,0.27,0.37,0.27h1.91
				c0.21,0,0.37-0.12,0.37-0.27c0-0.15-0.17-0.27-0.37-0.27H-227.97z"/>
		</g>
	</g>
</g>
</svg>
